<svg width="716" height="738" viewBox="0 0 716 738" fill="none" xmlns="http://www.w3.org/2000/svg">
<path d="M243.77 146.64C243.77 146.64 237.83 119.54 258.77 106.89C260.623 105.778 262.539 104.776 264.51 103.89L259.83 64.53C199.7 101.39 204.14 158.53 218.73 200.44C221.54 164.53 243.77 146.64 243.77 146.64Z" fill="#DADCE0"/>
<path d="M464.25 270.74C461.67 266.87 452.38 266.87 452.38 266.87L451.61 244.93C454.519 243.323 456.794 240.773 458.06 237.7C450.45 235.6 420.29 202.26 422.39 154.14C422.39 154.14 436.58 133.69 419.55 127.5C402.52 121.31 395.77 147.89 395.77 154.34C395.637 149.554 395.85 144.765 396.41 140.01C396.523 138.893 396.707 137.784 396.96 136.69C395.35 135.13 386.84 127.69 364.96 121.5C362.45 123.93 361.12 125.38 361.12 125.38C361.12 125.38 361.95 123.81 363.63 121.13C354.541 118.692 345.301 116.858 335.97 115.64C334.61 117.94 333.92 119.25 333.92 119.25C333.92 119.25 334.23 117.9 334.92 115.5C328.39 114.65 321.24 113.94 313.4 113.5C315.165 115.049 316.819 116.719 318.35 118.5C318.35 118.5 281.18 95.28 261.83 113.34C242.48 131.4 250.66 160.57 250.66 160.57L246.34 152.31C246.34 152.31 225.77 168.27 225.21 210.64C225.138 215.738 225.764 220.822 227.07 225.75C229.08 227.919 230.893 230.261 232.49 232.75C235.344 237.286 237.255 242.35 238.11 247.64C251.42 264.87 270.25 273.24 270.25 273.24C273.52 237.62 291.54 252.33 291.54 252.33C278.76 251.17 277.98 256.33 276.83 259.33C276.25 260.82 270.25 308.11 283.41 317.4C296.57 326.69 319.8 320.11 349.61 312.76C379.42 305.41 389.68 315.85 393.94 319.34C398.2 322.83 403.03 325.92 407.1 316.63C409.51 311.13 405.74 306.12 402.26 302.93C398.56 301.3 393.26 298.8 386.98 295.84C377.63 295.62 353.18 296.62 310.89 308.76L295.89 312.37C295.89 312.37 294.34 256.11 316.02 260.75C337.7 265.39 408.77 299.64 408.77 299.64C408.77 299.64 427.1 306.87 433.29 303.77C439.48 300.67 466.83 274.64 464.25 270.74ZM385.25 242.47C374.41 256.41 352.04 254.39 328.46 238.99L327.39 238.27L327.03 238.02L326.24 237.46L325.8 237.14L325.03 236.57L324.56 236.21L323.73 235.57L323.28 235.22L322.28 234.45L321.92 234.16C321 233.413 320.05 232.623 319.07 231.79L318.76 231.52L317.59 230.52L317.18 230.16L316.05 229.16L315.63 228.79L314.43 227.64L314.09 227.33C313.6 226.87 313.09 226.41 312.61 225.93L312.52 225.85C310.86 224.277 309.173 222.61 307.46 220.85L307.29 220.68C306.78 220.16 306.29 219.68 305.75 219.09L305.57 218.91L303.95 217.2L303.89 217.14C294.57 207.19 285.21 195.29 279.11 183.59C278.69 182.78 278.28 181.97 277.89 181.17C276.762 178.853 275.761 176.476 274.89 174.05L274.83 173.86C274.041 171.636 273.406 169.361 272.93 167.05C272.935 166.96 272.935 166.87 272.93 166.78C272.8 166.1 272.69 165.44 272.6 164.78V164.6C272.411 163.184 272.314 161.758 272.31 160.33V160.06C272.31 159.46 272.31 158.87 272.38 158.28V157.96C272.484 156.631 272.702 155.312 273.03 154.02C273.051 153.961 273.068 153.901 273.08 153.84C273.23 153.28 273.4 152.72 273.59 152.18C273.64 152.06 273.68 151.95 273.72 151.83C273.92 151.29 274.14 150.75 274.39 150.22C274.39 150.22 274.44 150.11 274.47 150.05C274.76 149.44 275.09 148.84 275.47 148.25C275.69 147.9 275.91 147.55 276.15 147.25C276.28 147.06 276.42 146.87 276.56 146.69C276.709 146.472 276.869 146.261 277.04 146.06C277.18 145.88 277.32 145.7 277.47 145.53C277.62 145.36 277.91 145.02 278.14 144.77L278.47 144.42C278.81 144.07 279.17 143.72 279.54 143.42L279.93 143.07L280.83 142.32L281.23 142.01C281.67 141.67 282.12 141.33 282.59 141.01C316.66 117.78 356.83 164.01 372.41 183.33C387.99 202.65 396.07 228.54 385.23 242.47H385.25ZM398.67 257.06C413.67 226.6 394.02 186.86 394.02 186.86C419.29 224.02 398.65 257.06 398.65 257.06H398.67Z" fill="white"/>
<path d="M301.6 304.55C301.6 308.7 351.95 288.73 381.8 293.31C358.14 282.14 325.56 266.87 316.57 266.87C303.15 266.87 301.6 299.9 301.6 304.55Z" fill="white"/>
<path d="M141.51 225.31L144.15 223.88C143.28 224.34 142.41 224.81 141.52 225.31L74.62 172.42L145.71 223.06C154.17 218.542 163.136 215.044 172.42 212.64L15.77 76.64C-13.23 176.36 56.89 230.27 112.59 256.47C117 245.31 125.65 234.15 141.51 225.31Z" fill="#DADCE0"/>
<path d="M59.59 334.77C66.82 325.53 77.47 318.92 87.43 314.35L58.43 310.97L70.29 311.87L66.29 311.47L75.17 312.23L89.73 313.33C97.4608 309.941 105.515 307.344 113.77 305.58C112.414 302.249 111.34 298.81 110.56 295.3L19.99 284.03C28.24 310.03 42.74 325.7 59.6 334.77H59.59Z" fill="#DADCE0"/>
<path d="M449.54 9.81C387.34 27.36 350.18 87.75 350.18 87.75C383.99 36.91 449.54 9.81 449.54 9.81Z" fill="white"/>
<path d="M384.97 99.1C430.66 58.59 500.97 49.16 500.97 49.16C436.35 50.22 384.97 99.1 384.97 99.1Z" fill="white"/>
<path d="M163.77 448.32C162.84 454.51 161.55 460.53 170.77 466.76C181.1 473.76 181.1 477.6 193.77 477.34L196.35 476.34C196.35 476.34 170.54 466.27 170.54 459.82C170.56 455.86 171.26 451.933 172.61 448.21C172.61 448.21 170.54 457.5 175.96 461.88C181.38 466.26 206.16 477.11 206.16 477.11C206.16 477.11 213.9 481.5 221.39 480.47C228.88 479.44 233.52 476.6 236.39 470.66C238.12 467.03 239.09 463.03 240.99 460.52C231.24 452.4 209.68 439.04 209.68 439.04C209.68 439.04 210.45 437.11 218.97 439.43C227.49 441.75 246.2 458.01 246.2 458.01C252.39 458.27 261.2 446.91 261.2 446.91C266.37 434.27 262.5 424.46 262.5 424.46C262.5 424.46 246.69 405.56 240.69 401.46C235.31 397.82 231.4 397.98 231.4 397.98C231.4 397.98 245.22 388.59 266.11 421.52C269.24 418.68 273.48 413.95 274.88 408.17C277.21 398.62 267.66 397.33 260.17 381.59C254.09 368.79 245.64 362.34 239.91 360.36C239.91 360.36 232.62 357.71 222.3 360.81C211.98 363.91 178.03 385.81 178.03 385.81C141.39 349.16 99.38 362.13 99.38 362.13C122.01 344.67 152.23 359.13 168.78 369.81C175.26 364.81 181.08 357.38 185.71 343.94C188.63 335.47 187.29 322.85 186.82 319.25C178.38 325.37 163.6 331.4 140.82 325.74C140.82 325.74 176.69 321.35 195.82 310.26C193.459 313.682 190.514 316.66 187.12 319.06C189.155 323.381 190.456 328.011 190.97 332.76C202.37 329.24 211.69 321.35 211.69 321.35C208.747 325.989 204.896 329.986 200.37 333.1C199.64 347.5 203.26 357.31 205.46 361.84C207.027 360.987 208.673 360.137 210.4 359.29C229.76 349.74 243.91 354.37 243.91 354.37C260.19 360.09 270.11 385.76 273.37 389.75C276.86 394.01 283.44 400.2 281.37 409.23C280.42 413.39 277.88 417.23 275.42 420.23C290.1 423.28 303.42 423.66 311.05 421.79C334.27 416.11 342.53 362.95 342.53 362.95C346.66 395.47 324.47 422.31 324.47 422.31C428.64 447.53 415.77 323.13 415.77 323.13C423.51 352.04 414.22 389.72 414.22 389.72C443.13 377.33 440.03 338.62 440.03 338.62L431.77 346.87C445.77 330.24 446.14 309.39 445.83 302.64C442.73 306.17 440.23 308.96 439.04 310.15C434.59 314.6 419.84 309.33 409.43 305.62C416.96 317.17 403.23 337.87 393.28 326.73C382.44 314.64 367.77 314.87 349.92 319.52C332.07 324.17 295.33 332.41 279.46 325.45C266.94 319.97 269.52 278.45 269.52 278.45C258.115 273.094 247.748 265.761 238.9 256.79C238.914 263.686 237.927 270.547 235.97 277.16C236.15 268.427 235.437 259.698 233.84 251.11C233.41 239.49 221.28 228.28 221.28 228.28C208.99 217.81 184.21 208.47 145.28 232.77C97.28 262.71 121.54 321.55 121.54 321.55L115.86 311.74C115.86 311.74 84.37 315.87 65.27 341.17C46.17 366.47 55.47 393.82 55.47 393.82C55.47 393.82 48.24 403.62 50.82 408.82C53.4 414.02 73.82 419.27 73.82 419.27C73.82 419.27 80.99 453.08 139.82 448.43L163.77 448.32ZM215.43 390.23C219.95 387.01 218.14 381.72 218.14 381.72C223.56 396.43 206.14 394.88 205.37 404.17C204.751 410.27 203.319 416.26 201.11 421.98C201.11 421.98 200.72 417.72 200.72 405.72C200.72 393.72 210.03 394.11 215.45 390.23H215.43Z" fill="white"/>
<path d="M444.38 432.82C447.01 434.49 451.13 437.02 451.74 437.39C459.13 420.39 468.64 419.39 468.64 419.39C468.64 419.39 468.64 408.03 472.77 401.58C476.9 395.13 505.29 381.71 505.29 381.71C504 373.96 491.61 371.12 486.45 371.12C481.29 371.12 452.9 387.9 452.9 387.9C459.35 389.71 464.51 395.13 464.51 395.13C464.51 395.13 451.35 387.38 448.77 390.74C446.19 394.1 443.61 412.94 443.61 412.94C443.61 412.94 441.54 431.01 444.38 432.82Z" fill="white"/>
<path d="M431.57 145.06C429.9 149.84 427.57 154.15 427.04 156.66C425.52 163.46 428.45 208.84 459.54 229.98C461.63 221.53 470.47 176.52 431.57 145.06Z" fill="#070E0F"/>
<path d="M321.22 228.64C321.22 228.64 357.4 261 381.1 244.12C398.1 231.99 377.71 198.53 368.96 186.83C354.77 167.81 311.03 127.22 286.77 148.64C259.03 173.14 321.22 228.64 321.22 228.64Z" fill="#070E0F"/>
<path d="M318.69 425.33C312.49 430.5 292.36 428.43 292.36 428.43C284.904 428.038 277.494 427.017 270.21 425.38C269.87 425.68 269.65 425.85 269.65 425.85C270.327 429.448 270.505 433.123 270.18 436.77C280.36 435.83 291.18 434.04 303.46 436.69C303.46 436.69 322.04 447.01 335.46 444.69C346.52 442.78 349.34 435.78 349.99 433.38C326.93 434.38 318.69 425.33 318.69 425.33Z" fill="white"/>
<path d="M417.77 454.69L439.52 455.79L425.9 445.98L446.23 451.14L448.35 447.81C448.52 446.96 448.74 446.03 449.02 445.03C446.02 443.4 435.39 437.28 435.39 431.53V424.82C435.39 424.82 427.64 422.75 424.03 418.11L435.39 420.69L435.9 418.11C435.9 418.11 421.51 406.5 420.03 393.85C417.226 395.552 414.241 396.937 411.13 397.98C406.763 406.138 400.709 413.273 393.37 418.91C401.05 426.16 417.97 435.53 417.97 435.53C408.18 432.53 395.97 425.53 389.48 421.64C380.349 427.447 370.046 431.159 359.31 432.51C355.62 440.37 347.7 448.3 347.7 448.3C347.7 448.3 354.86 482.11 413.7 477.47L395.63 469.73L428.63 476.95L438.95 459.95L417.77 454.69Z" fill="white"/>
<path d="M209 484.57C202.543 482.929 195.818 482.629 189.24 483.69C196.148 487.476 203.392 490.613 210.88 493.06C238.73 502.34 266.43 493 284.88 483.42C272.67 486.29 261.11 481.21 261.11 481.21C251.54 483.21 241.51 482.49 235.44 481.73C229.38 485.16 220.44 487.19 209 484.57Z" fill="white"/>
<path d="M274.04 441.34C272.53 441.707 271.001 441.987 269.46 442.18C269.017 444.653 268.392 447.089 267.59 449.47C267.59 449.47 262.43 462.89 247.2 465.21C247.2 465.21 246.2 465.21 244.62 471.66C243.804 474.231 242.283 476.521 240.23 478.27C249.13 479.06 261.52 476.95 261.52 476.95C277.39 485.08 287.07 478.11 288.23 477.34C289.39 476.57 299.07 466.5 306.82 464.18C312.9 462.35 320.41 455.04 323.35 451.98C315.403 449.996 307.994 446.274 301.66 441.08C301.66 441.08 291.85 436.95 274.04 441.34Z" fill="white"/>
<path d="M510.19 388.69C505.03 388.69 480.77 398.75 476.9 411.14C473.03 423.53 483.35 420.95 489.55 425.33C495.75 429.71 509.93 441.08 509.93 441.08C509.93 441.08 500.13 437.98 497.8 436.95C495.47 435.92 482.32 426.62 470.45 427.4C460.39 428.05 456.09 446.4 455 452.06C455.285 453.141 455.8 454.147 456.51 455.01C461.41 460.95 487.22 466.11 492.38 469.47C497.54 472.83 499.87 474.11 499.87 474.11C499.87 474.11 456.25 460.69 449.77 461.47C443.29 462.25 438.67 468.18 437.9 475.15C437.13 482.12 434.28 488.82 444.61 495.79C454.94 502.76 454.93 506.63 467.61 506.38L470.19 505.38C470.19 505.38 444.38 495.32 444.38 488.86C444.399 484.901 445.096 480.974 446.44 477.25C446.44 477.25 444.38 486.54 449.8 490.93C455.22 495.32 480 506.16 480 506.16C480 506.16 487.74 510.54 495.22 509.51C502.7 508.48 507.35 505.64 510.22 499.7C513.09 493.76 513.84 486.8 520.03 487.06C526.22 487.32 535.03 475.96 535.03 475.96C540.19 463.31 536.32 453.51 536.32 453.51C536.32 453.51 546.39 446.8 548.71 437.25C551.03 427.7 541.48 426.41 534 410.66C526.52 394.91 515.35 388.69 510.19 388.69ZM465.35 456.24C465.35 447.53 475.61 432.43 475.61 432.43C474.486 441.171 470.931 449.42 465.35 456.24V456.24ZM492.26 416.75C492.26 416.75 496.32 399.53 511.26 394.3C511.23 394.3 496.51 415.4 492.26 416.75Z" fill="white"/>
<path d="M297.99 663.4C219.89 731.04 149.69 687.94 113.24 650.57C144.17 715 249.04 756.32 316.74 683.5C366.35 630.13 351.09 573.7 338.65 546.26C347.39 577.64 346.14 621.7 297.99 663.4Z" fill="white"/>
<path d="M300.77 718.27C310.47 720.12 330.09 723.18 349.71 722.15C341.907 713.806 334.737 704.891 328.26 695.48C320.121 704.234 310.88 711.894 300.77 718.27V718.27Z" fill="black"/>
<path d="M178.77 615.13C121.32 592.92 106.95 548.13 103.45 523.77C97.59 544.71 88.65 605.02 162.99 645.86C254.21 695.98 312.29 598.86 318.14 581.39C323.6 565.06 329.9 546.3 317.96 516.9C317.349 525.504 316.082 534.049 314.17 542.46C309.66 561.35 260.1 646.57 178.77 615.13Z" fill="white"/>
<path d="M200.59 526.64C154.22 506.73 146.64 478.21 147.81 458.89C101.28 518.3 174.57 560.89 174.57 560.89C276.85 592.44 302.74 515.89 308.24 491.89C307.762 489.996 307.576 488.04 307.69 486.09C298.13 503.64 264.15 553.96 200.59 526.64Z" fill="white"/>
<path d="M330.912 172.267C333.567 159.376 325.27 146.774 312.38 144.119C299.489 141.463 286.887 149.76 284.232 162.651C281.576 175.541 289.873 188.143 302.764 190.798C315.654 193.454 328.256 185.157 330.912 172.267Z" fill="white"/>
<path d="M331.809 188.339C332.939 184.257 330.545 180.031 326.462 178.901C322.38 177.771 318.154 180.165 317.024 184.247C315.895 188.33 318.288 192.556 322.371 193.685C326.453 194.815 330.679 192.422 331.809 188.339Z" fill="white"/>
<path d="M433.44 164.14C433.434 167.057 434.271 169.913 435.85 172.366C437.429 174.818 439.683 176.763 442.341 177.965C444.998 179.167 447.947 179.576 450.831 179.142C453.716 178.708 456.413 177.45 458.6 175.52C453.2 165.22 444.8 155.4 440.9 151.09C438.629 152.428 436.746 154.336 435.437 156.625C434.129 158.913 433.441 161.504 433.44 164.14V164.14Z" fill="white"/>
<path d="M452.44 178.97C452.433 180.05 452.756 181.106 453.365 181.998C453.973 182.89 454.84 183.575 455.848 183.961C456.856 184.348 457.958 184.418 459.008 184.163C460.057 183.907 461.003 183.337 461.72 182.53C460.594 179.463 459.213 176.496 457.59 173.66C456.21 173.702 454.9 174.279 453.938 175.271C452.977 176.262 452.439 177.589 452.44 178.97V178.97Z" fill="white"/>
<g style="mix-blend-mode:multiply">
<path d="M65.77 333.64C67.1 333.64 92.1 320.31 121.77 320.97C121.77 320.97 139.1 328.31 158.44 326.97C177.78 325.63 187.1 316.64 187.1 316.64L189.1 335.31L196.1 334.31L203.44 364.97L220.77 358.97L244.1 359.31L252.44 365.31C252.44 365.31 221.44 350.64 221.77 324.31C222.1 297.98 233.77 286.64 241.77 284.31C249.77 281.98 260.77 293.31 260.77 293.31C260.77 293.31 251.1 346.64 296.77 340.97C342.44 335.3 352.77 316.97 394.77 324.31C394.77 324.31 377.44 310.31 365.44 313.31C353.44 316.31 306.1 325.31 293.1 324.64C280.1 323.97 276.1 314.31 276.1 313.31C276.1 312.31 271.1 277.31 271.1 277.31C271.1 277.31 270.77 250.31 285.44 249.97C285.44 249.97 223.44 230.97 231.1 170.31C231.1 170.31 219.1 200.64 223.1 224.64C223.1 224.64 235.44 236.64 235.1 252.97C234.76 269.3 215.1 290.97 188.1 299.97C188.1 299.97 203.1 284.64 206.44 277.64C206.44 277.64 164.44 307.97 128.44 307.97C128.44 307.97 126.1 292.31 128.44 281.97C128.44 281.97 122.1 297.31 121.44 306.64C121.44 306.64 112.1 292.64 112.77 280.97L116.1 310.64L87.77 317.97L65.77 333.64Z" fill="#C7C7C7"/>
</g>
<g style="mix-blend-mode:multiply">
<path d="M50.1 395.64C50.1 395.64 71.77 403.31 74.1 403.97C74.1 403.97 74.77 389.64 76.77 382.64C76.77 382.64 111.44 430.31 143.77 427.31C176.1 424.31 183.44 418.97 183.44 418.97C183.44 418.97 168.77 445.64 172.1 453.31C175.43 460.98 215.1 473.31 221.1 472.64C227.1 471.97 233.77 453.31 233.77 453.31L219.1 442.31C219.1 442.31 234.77 447.97 242.1 446.64C249.43 445.31 260.1 424.64 259.1 418.97C258.1 413.3 244.1 399.31 244.1 399.31C244.1 399.31 255.77 405.97 262.1 405.97C268.43 405.97 270.44 397.31 270.44 397.31C270.44 397.31 276.44 401.64 276.44 405.97C276.44 410.3 265.77 426.31 265.77 426.31C265.77 426.31 265.77 443.64 264.77 446.31C263.77 448.98 251.44 457.64 251.44 458.64C251.44 459.64 242.44 463.31 242.44 463.31L232.77 480.31L217.1 484.64L196.77 481.97L180.77 480.64L154.1 453.97L160.44 450.64L164.44 443.64C164.44 443.64 87.77 451.31 76.1 416.97C76.1 416.97 46.44 409.64 46.1 406.64C45.76 403.64 50.1 395.64 50.1 395.64Z" fill="#C7C7C7"/>
</g>
<g style="mix-blend-mode:multiply">
<g style="mix-blend-mode:multiply">
<path d="M266.61 443.05C262.36 444.41 261.23 445.05 266.61 443.05V443.05Z" fill="#EFBA50"/>
</g>
<g style="mix-blend-mode:multiply">
<path d="M266.61 443.05C271.307 441.541 276.093 440.325 280.94 439.41C276.846 439.673 272.821 440.595 269.02 442.14L266.61 443.05Z" fill="#EFBA50"/>
</g>
<g style="mix-blend-mode:multiply">
<path d="M318.52 445.39C315.062 444.066 311.45 443.189 307.77 442.78C315.77 446.26 318.77 448.64 318.77 448.64C318.77 448.64 315.52 462.89 306.27 463.89C297.02 464.89 288.02 457.64 293.52 448.14C293.52 448.14 285.52 461.89 276.52 457.39C267.52 452.89 267.52 445.89 267.52 445.89C267.52 445.89 260.52 457.39 259.77 457.39C259.02 457.39 249.27 460.89 251.27 461.39C251.58 461.47 252.46 461.64 253.74 461.85L246.02 464.14C246.02 464.14 237.52 477.89 237.02 478.89C236.52 479.89 241.77 481.39 241.77 481.39L260.27 480.14C260.27 480.14 278.02 482.89 279.02 482.89C280.02 482.89 291.52 479.14 291.52 479.14L298.63 469.14C299.785 469.599 301.032 469.781 302.27 469.67C308.52 468.92 327.77 451.67 327.77 451.67L318.52 445.39ZM277.02 474.89C268.02 474.14 270.77 467.14 270.77 467.14L261.52 476.89C261.52 476.89 257.77 477.64 255.02 471.39C253.68 468.39 256.3 465.14 259.35 462.64C267.96 463.64 281.17 464.4 288.02 460.89C288.02 460.89 292.53 466.25 297.43 468.6C292.96 470.99 283.64 475.44 277.02 474.89Z" fill="#D1D1D1"/>
</g>
<g style="mix-blend-mode:multiply">
<path d="M280.94 439.41C291.63 438.94 295.02 445.41 295.02 445.41C298.57 442.72 303.43 442.35 307.8 442.8C305.41 441.75 302.6 440.62 299.27 439.41C294.55 437.64 287.54 438.2 280.94 439.41Z" fill="#D1D1D1"/>
</g>
</g>
<g style="mix-blend-mode:multiply">
<path d="M160.44 450.64C160.44 450.64 98.77 509.64 122.77 640.64C146.77 771.64 303.77 711.64 303.77 711.64L329.77 690.64C329.77 690.64 210.77 674.64 201.77 590.64C192.77 506.64 255.77 479.64 255.77 479.64L230.27 481.64L219.52 482.89L202.27 480.64L184.02 482.64C184.02 482.64 153.85 467.64 160.44 450.64Z" fill="white"/>
</g>
<g style="mix-blend-mode:multiply">
<path d="M439.77 465.97C439.77 465.97 404.1 471.64 385.44 455.97C385.44 455.97 387.1 464.64 389.77 467.31C389.77 467.31 373.77 458.64 378.77 438.31L392.77 431.31L417.44 436.31L402.77 425.31C402.77 425.31 423.1 414.31 424.1 401.31C425.1 388.31 422.44 389.64 422.44 389.64C422.44 389.64 430.77 349.97 416.44 324.97C416.44 324.97 445.44 324.97 447.44 308.64C449.44 292.31 446.44 296.64 446.44 296.64L430.1 308.97L401.77 299.31L388.44 293.31L340.77 298.64C340.77 298.64 392.77 293.64 402.1 307.31C411.43 320.98 401.1 326.97 401.1 326.97L415.85 325.22C415.85 325.22 420.02 362.89 409.77 392.89L390.52 417.64L370.02 425.89C370.02 425.89 353.77 427.39 354.52 427.39C355.27 427.39 343.02 452.89 343.02 452.89L363.27 473.39L399.77 480.39L423.27 481.89L433.27 477.64L439.77 465.97Z" fill="#C7C7C7"/>
</g>
<g style="mix-blend-mode:multiply">
<path d="M443.77 387.39L440.77 433.89L452.02 442.89L468.77 422.64L472.02 408.64L507.27 382.14C507.27 382.14 486.77 383.64 466.27 399.14C466.27 399.14 466.27 391.64 449.02 388.64L443.77 387.39Z" fill="#C7C7C7"/>
</g>
<g style="mix-blend-mode:multiply">
<path d="M435.77 471.64C435.77 471.64 435.52 484.89 443.52 488.14L445.77 477.14C448.667 482.609 452.715 487.385 457.635 491.14C462.555 494.894 468.23 497.538 474.27 498.89C495.27 503.89 510.27 502.14 512.77 496.14C515.27 490.14 510.02 483.14 502.52 479.89C495.02 476.64 526.27 484.89 533.27 477.89C540.27 470.89 532.02 489.64 530.27 490.39C528.52 491.14 520.52 492.39 519.27 493.64C516.571 497.08 514.067 500.669 511.77 504.39C510.77 506.14 494.02 513.89 494.02 513.89L474.77 508.89C474.77 508.89 461.27 512.64 458.77 512.14C456.27 511.64 438.27 494.39 437.77 492.89C437.27 491.39 428.77 481.64 435.77 471.64Z" fill="#C7C7C7"/>
</g>
<g style="mix-blend-mode:multiply">
<path d="M473.1 419.47C473.05 418.63 492.94 414.14 494.44 415.14C495.94 416.14 508.1 439.47 508.1 439.47C508.1 439.47 473.44 425.14 473.1 419.47Z" fill="#C7C7C7"/>
</g>
<g style="mix-blend-mode:multiply">
<path d="M277.52 407.14C277.52 407.14 308.02 415.39 320.02 402.89C332.02 390.39 342.52 363.64 342.52 363.64C342.52 363.64 336.52 402.39 330.02 409.39C323.52 416.39 389.02 410.64 397.27 398.89C402.476 391.391 407.154 383.539 411.27 375.39C411.27 375.39 409.27 398.39 398.02 410.64C386.77 422.89 355.77 429.39 355.77 429.39L351.52 437.39C351.52 437.39 325.27 436.39 320.27 430.64C315.27 424.89 309.77 433.39 298.77 435.14C287.77 436.89 268.77 438.14 268.77 438.14L269.02 422.89L277.52 407.14Z" fill="#CECECE"/>
</g>
<g style="mix-blend-mode:multiply">
<path d="M169.77 206.31L132.44 215.64L77.1 173.64L117.1 218.31C117.1 218.31 46.44 217.64 7.10001 142.97C7.10001 142.97 18.44 226.31 117.77 261.64C117.77 261.64 119.1 227.64 178.44 216.31L169.77 206.31Z" fill="#DEDAE0"/>
</g>
<g style="mix-blend-mode:multiply">
<path d="M101.1 291.97C101.1 291.97 99.77 306.64 97.1 310.64C94.43 314.64 60.77 311.31 60.77 311.31L72.44 316.31C72.44 316.31 24.77 313.31 14.44 281.97C14.44 281.97 35.1 332.97 62.77 336.31C62.77 336.31 86.44 316.64 101.77 311.64C117.1 306.64 116.1 307.97 116.1 307.97L112.77 291.64L101.1 291.97Z" fill="#DEDAE0"/>
</g>
<g style="mix-blend-mode:multiply">
<path d="M263.02 74.89C263.02 74.89 244.02 95.39 234.02 127.39C224.02 159.39 225.77 177.89 225.77 177.89L247.52 146.64C247.52 146.64 253.02 117.89 253.52 116.64C254.02 115.39 269.77 103.39 269.77 103.39L263.02 74.89Z" fill="#DEDAE0"/>
</g>
<path d="M272.54 164.77C272.63 165.44 272.74 166.1 272.87 166.77C272.875 166.86 272.875 166.95 272.87 167.04C273.346 169.351 273.981 171.626 274.77 173.85L274.83 174.04C275.7 176.466 276.702 178.843 277.83 181.16V181.16C278.22 181.96 278.63 182.77 279.05 183.58C285.15 195.28 294.51 207.18 303.83 217.13L303.89 217.19L305.51 218.9L305.69 219.08C306.2 219.62 306.69 220.15 307.23 220.67L307.4 220.84C309.107 222.58 310.793 224.247 312.46 225.84L312.55 225.92C313.04 226.4 313.55 226.86 314.03 227.32L314.37 227.63L315.58 228.74L316 229.11L317.13 230.11L317.54 230.47L318.71 231.47L319.02 231.74C320 232.567 320.95 233.357 321.87 234.11L322.23 234.4L323.23 235.17L323.68 235.52L324.51 236.16L324.98 236.52L325.75 237.09L326.19 237.41L326.98 237.97L327.34 238.22L328.41 238.94C351.99 254.34 374.36 256.36 385.2 242.42C396.04 228.48 387.77 202.42 372.29 183.19C356.81 163.96 316.54 117.64 282.47 140.87C282 141.19 281.55 141.53 281.11 141.87L280.71 142.18L279.81 142.93L279.42 143.28C279.05 143.62 278.69 143.97 278.35 144.28L278.02 144.63C277.79 144.88 277.57 145.13 277.35 145.39C277.13 145.65 277.06 145.74 276.92 145.92C276.749 146.121 276.589 146.332 276.44 146.55C276.3 146.73 276.16 146.92 276.03 147.11C275.79 147.45 275.57 147.8 275.35 148.11C275 148.7 274.67 149.3 274.35 149.91C274.35 149.97 274.3 150.03 274.27 150.08C274.02 150.61 273.8 151.15 273.6 151.69C273.6 151.81 273.52 151.92 273.47 152.04C273.28 152.58 273.11 153.14 272.96 153.7C272.948 153.761 272.931 153.821 272.91 153.88C272.582 155.172 272.364 156.491 272.26 157.82V158.14C272.26 158.73 272.2 159.32 272.19 159.92V160.19C272.194 161.618 272.291 163.044 272.48 164.46L272.54 164.77ZM286.77 148.64C311.03 127.22 354.77 167.81 368.96 186.86C377.71 198.56 398.13 232.02 381.1 244.15C357.4 261.03 321.22 228.64 321.22 228.64C321.22 228.64 259.03 173.14 286.77 148.64Z" fill="#070E0F"/>
<path d="M514.19 382.49C514.19 382.49 508.9 364.68 485.55 364.81C485.55 364.81 447.09 381.33 444.64 384.04C442.36 386.56 437.08 399.23 437.07 410.43L436.9 410.37C430.46 406.93 427.59 393.51 426.81 389.08C437.33 380.46 448.81 364.4 446.19 336.03C446.19 336.03 453.69 316.72 450.19 297.69C459.48 286.97 470.82 273.58 470.82 273.58C477.27 263.64 458.63 262.16 458.63 262.16L458.82 246.09C467.48 238.85 464.11 233.75 462.55 232.09C479.06 179.84 438.92 145.42 432.88 140.61C434.44 133.31 433.01 125.87 420.88 122.61C408.75 119.35 402.76 124.36 399.66 129.83C391.31 123.46 381.43 118.94 371.27 115.75C385.46 102.96 413.63 80.86 447.77 70.64C512.44 51.2 523.43 45 523.43 45C434.54 34.71 384.95 90.64 367.96 114.75C358.737 112.176 349.308 110.403 339.78 109.45C349.69 93.98 371.83 63.64 403.6 44.13C461.14 8.8 470.19 0 470.19 0C379.48 13.14 346.4 82.87 337.03 109.18C327.104 108.26 317.126 108.046 307.17 108.54C298.61 102.7 285.7 97.26 270.46 101.65L265.33 52.99C265.33 52.99 161.73 100.31 219.01 217.99C219.01 218.27 219.07 218.56 219.11 218.85C209.76 212.43 196.92 208.61 180.11 211.12L10.88 60.25C10.88 60.25 -48.46 198.71 110.09 264.64C108.241 273.224 108.085 282.086 109.63 290.73L7.27001 273.64C7.27001 273.64 19.52 318.64 56.16 339.8L55.95 340.16C40.95 366.49 47.18 391.27 47.18 391.27C47.18 391.27 41.5 407.27 41.5 410.37C41.5 413.47 45.36 422.63 68.02 425.57C72.8745 434.012 79.6087 441.222 87.7 446.64C96.4 452.48 116.05 454.86 131.9 455.82C77.09 513.64 72.41 620.2 120.77 680.31C159.01 727.87 224.62 751.18 281.56 728.11C350.23 741.89 378.11 727.97 378.11 727.97C360.35 717.89 346.75 700.41 337.4 684.9C338.32 683.72 339.24 682.53 340.15 681.3C341.43 679.64 342.63 677.94 343.79 676.23C344.12 675.75 344.46 675.32 344.79 674.83C406.48 583.34 321.26 506.49 314.95 496.21C314.08 494.79 312.63 491.64 312.63 491.64L309.77 477.98L307.26 469.98C307.752 469.819 308.257 469.706 308.77 469.64C313.49 468.91 324.01 463.41 329.45 453.15H329.87L340.13 451.15C340.13 451.15 345.77 465.08 361.53 475.64C377.29 486.2 428.89 485.45 428.89 485.45C429.15 489.84 435.09 498.61 447.74 508.45C460.39 518.29 461.41 508.71 482.84 513.61C504.27 518.51 516.9 507.16 518.45 500.71C520 494.26 521.03 494.25 521.03 494.25C536.26 491.93 541.42 478.51 541.42 478.51C541.42 478.51 545.81 466.51 543.49 454.9C543.49 454.9 553.04 447.28 555.1 438.25C557.16 429.22 550.58 423.02 547.1 418.76C543.62 414.5 532.52 385.46 514.19 382.49ZM500.97 49.16C500.97 49.16 430.66 58.59 384.97 99.1C384.97 99.1 436.35 50.22 500.97 49.16ZM449.54 9.81C449.54 9.81 383.99 36.91 350.18 87.75C350.18 87.75 387.34 27.36 449.54 9.81ZM443.61 412.95C443.61 412.95 446.19 394.11 448.77 390.75C451.35 387.39 464.51 395.14 464.51 395.14C464.51 395.14 459.35 389.72 452.9 387.91C452.9 387.91 481.29 371.13 486.45 371.13C491.61 371.13 504 373.97 505.29 381.72C505.29 381.72 476.9 395.14 472.77 401.59C468.64 408.04 468.64 419.4 468.64 419.4C468.64 419.4 459.13 420.4 451.74 437.4C451.13 437.03 447.01 434.5 444.38 432.83C441.54 431.01 443.61 412.95 443.61 412.95ZM431.61 145.06C470.51 176.52 461.67 221.53 459.61 229.98C428.52 208.84 425.61 163.46 427.11 156.66C427.59 154.15 429.9 149.84 431.57 145.06H431.61ZM318.42 118.46C316.889 116.679 315.235 115.009 313.47 113.46C321.31 113.95 328.47 114.66 334.99 115.46C334.27 117.86 333.99 119.21 333.99 119.21C333.99 119.21 334.68 117.9 336.04 115.6C345.398 116.818 354.665 118.655 363.78 121.1C362.1 123.78 361.27 125.35 361.27 125.35C361.27 125.35 362.6 123.9 365.11 121.47C386.95 127.66 395.46 135.1 397.11 136.66C396.857 137.754 396.673 138.863 396.56 139.98C395.949 144.741 395.685 149.541 395.77 154.34C395.77 147.89 402.48 121.34 419.51 127.5C436.54 133.66 422.35 154.14 422.35 154.14C420.25 202.26 450.41 235.6 458.02 237.7C456.754 240.773 454.479 243.323 451.57 244.93L452.34 266.87C452.34 266.87 461.63 266.87 464.21 270.74C466.79 274.61 439.44 300.68 433.21 303.74C426.98 306.8 408.77 299.64 408.77 299.64C408.77 299.64 337.77 265.32 316.07 260.64C294.37 255.96 295.94 312.26 295.94 312.26L310.94 308.65C353.23 296.51 377.68 295.51 387.03 295.73C393.28 298.73 398.61 301.19 402.31 302.82C405.79 306.01 409.56 311.02 407.15 316.52C403.08 325.81 398.24 322.71 393.99 319.23C389.74 315.75 379.47 305.29 349.66 312.65C319.85 320.01 296.66 326.58 283.46 317.29C270.26 308 276.3 260.71 276.88 259.22C278.03 256.22 278.81 251.09 291.59 252.22C291.59 252.22 273.59 237.51 270.3 273.13C270.3 273.13 251.47 264.76 238.16 247.53C237.29 242.236 235.361 237.172 232.49 232.64C230.893 230.151 229.08 227.809 227.07 225.64C225.774 220.747 225.148 215.701 225.21 210.64C225.72 168.31 246.37 152.31 246.37 152.31L250.69 160.57C250.69 160.57 242.5 131.41 261.86 113.34C281.22 95.27 318.38 118.46 318.38 118.46H318.42ZM381.77 293.31C351.92 288.73 301.57 308.7 301.57 304.55C301.57 299.9 303.12 266.87 316.57 266.87C325.56 266.87 358.14 282.14 381.77 293.31ZM218.77 200.38C204.18 158.51 199.77 101.33 259.87 64.47L264.55 103.83C262.579 104.716 260.663 105.718 258.81 106.83C237.85 119.5 243.77 146.64 243.77 146.64C243.77 146.64 221.54 164.53 218.77 200.38ZM15.77 76.64L172.42 212.64C163.135 215.05 154.169 218.555 145.71 223.08L74.62 172.44L141.52 225.33C142.41 224.83 143.28 224.33 144.15 223.9L141.51 225.33C125.65 234.17 117 245.33 112.59 256.49C56.89 230.27 -13.23 176.36 15.77 76.64ZM19.98 284.03L110.55 295.3C111.334 298.811 112.411 302.25 113.77 305.58C105.512 307.344 97.454 309.94 89.72 313.33L75.16 312.23L66.28 311.47L70.28 311.87L58.42 310.97L87.42 314.35C77.42 318.92 66.81 325.53 59.58 334.77C42.77 325.7 28.23 309.99 19.98 284.03ZM73.82 419.27C73.82 419.27 53.37 413.98 50.82 408.82C48.27 403.66 55.47 393.82 55.47 393.82C55.47 393.82 46.17 366.46 65.27 341.17C84.37 315.88 115.86 311.74 115.86 311.74L121.54 321.55C121.54 321.55 97.28 262.71 145.28 232.77C184.28 208.47 209.02 217.77 221.28 228.28C221.28 228.28 233.41 239.49 233.84 251.11C235.437 259.698 236.15 268.427 235.97 277.16C237.927 270.547 238.914 263.686 238.9 256.79C247.748 265.761 258.115 273.094 269.52 278.45C269.52 278.45 266.94 319.94 279.46 325.45C295.33 332.45 332.11 324.16 349.92 319.52C367.73 314.88 382.44 314.61 393.28 326.74C403.28 337.88 416.96 317.18 409.43 305.63C419.84 309.34 434.59 314.63 439.04 310.16C440.23 308.97 442.73 306.16 445.83 302.65C446.14 309.39 445.83 330.24 431.73 346.87L439.99 338.62C439.99 338.62 443.09 377.33 414.18 389.72C414.18 389.72 423.47 352.04 415.73 323.13C415.73 323.13 428.64 447.53 324.37 422.24C324.37 422.24 346.56 395.4 342.43 362.88C342.43 362.88 334.17 416.04 310.95 421.72C303.3 423.59 290 423.21 275.32 420.16C277.78 417.16 280.32 413.36 281.27 409.16C283.33 400.16 276.75 393.94 273.27 389.68C270.01 385.68 260.09 360.02 243.81 354.3C243.81 354.3 229.66 349.67 210.3 359.22C208.58 360.073 206.933 360.923 205.36 361.77C203.16 357.24 199.54 347.43 200.27 333.03C204.797 329.916 208.647 325.919 211.59 321.28C211.59 321.28 202.27 329.17 190.87 332.69C190.356 327.941 189.055 323.311 187.02 318.99C190.414 316.59 193.359 313.612 195.72 310.19C176.62 321.28 140.72 325.67 140.72 325.67C163.51 331.33 178.29 325.3 186.72 319.18C187.19 322.78 188.53 335.4 185.61 343.87C180.98 357.31 175.16 364.72 168.68 369.74C152.13 359.09 121.91 344.6 99.28 362.06C99.28 362.06 141.28 349.06 177.93 385.74C177.93 385.74 211.87 363.87 222.2 360.74C232.53 357.61 239.81 360.29 239.81 360.29C245.54 362.29 253.99 368.72 260.07 381.52C267.56 397.26 277.07 398.52 274.78 408.1C273.38 413.88 269.14 418.61 266.01 421.45C245.12 388.52 231.3 397.91 231.3 397.91C231.3 397.91 235.21 397.75 240.59 401.39C246.59 405.46 262.4 424.39 262.4 424.39C262.4 424.39 266.27 434.2 261.1 446.84C261.1 446.84 252.33 458.2 246.1 457.94C246.1 457.94 227.38 441.68 218.87 439.36C210.36 437.04 209.58 438.97 209.58 438.97C209.58 438.97 231.14 452.33 240.89 460.45C238.99 462.96 238.02 466.96 236.29 470.59C233.45 476.53 228.8 479.36 221.29 480.4C213.78 481.44 206.06 477.04 206.06 477.04C206.06 477.04 181.28 466.2 175.86 461.81C170.44 457.42 172.51 448.14 172.51 448.14C171.16 451.863 170.46 455.79 170.44 459.75C170.44 466.2 196.25 476.27 196.25 476.27L193.67 477.27C181.03 477.53 181.03 473.66 170.67 466.69C161.44 460.46 162.73 454.44 163.67 448.25L139.67 448.36C80.99 453.08 73.82 419.27 73.82 419.27ZM261.13 481.21C261.13 481.21 272.69 486.29 284.9 483.42C266.43 493 238.73 502.34 210.9 493.06C203.412 490.613 196.168 487.476 189.26 483.69C195.838 482.629 202.563 482.929 209.02 484.57C220.46 487.19 229.4 485.16 235.48 481.73C241.53 482.49 251.56 483.17 261.13 481.21ZM349.77 722.15C330.15 723.15 310.53 720.15 300.83 718.27C310.94 711.894 320.181 704.234 328.32 695.48C334.797 704.891 341.967 713.806 349.77 722.15V722.15ZM316.77 683.5C249.07 756.32 144.2 715 113.27 650.57C149.72 687.94 219.92 731.04 298.02 663.4C346.17 621.7 347.42 577.65 338.68 546.26C351.09 573.7 366.35 630.13 316.77 683.5ZM314.17 542.5C316.082 534.089 317.349 525.544 317.96 516.94C329.9 546.34 323.6 565.1 318.14 581.43C312.29 598.91 254.21 696.02 162.99 645.9C88.65 605.06 97.59 544.75 103.45 523.81C106.95 548.21 121.32 592.96 178.77 615.17C260.1 646.57 309.66 561.35 314.14 542.46L314.17 542.5ZM307.72 486.16C307.606 488.11 307.792 490.066 308.27 491.96C302.77 515.96 276.88 592.51 174.6 560.96C174.6 560.96 101.31 518.36 147.84 458.96C146.67 478.28 154.25 506.8 200.62 526.71C264.15 553.96 298.13 503.64 307.69 486.12L307.72 486.16ZM306.85 464.22C299.1 466.54 289.43 476.61 288.26 477.38C287.09 478.15 277.42 485.12 261.55 476.99C261.55 476.99 249.16 479.1 240.26 478.31C242.313 476.561 243.834 474.271 244.65 471.7C246.2 465.25 247.23 465.25 247.23 465.25C262.46 462.93 267.62 449.51 267.62 449.51C268.422 447.129 269.047 444.693 269.49 442.22C271.031 442.027 272.56 441.747 274.07 441.38C291.88 436.99 301.69 441.12 301.69 441.12C308.024 446.314 315.433 450.036 323.38 452.02C320.41 455.04 312.9 462.35 306.82 464.18L306.85 464.22ZM335.5 444.73C322.07 447.05 303.5 436.73 303.5 436.73C291.18 434.08 280.4 435.87 270.22 436.81C270.545 433.163 270.367 429.488 269.69 425.89C269.69 425.89 269.91 425.72 270.25 425.42C277.535 427.057 284.944 428.078 292.4 428.47C292.4 428.47 312.53 430.54 318.73 425.37C318.73 425.37 326.97 434.42 350.04 433.42C349.35 435.78 346.53 442.78 335.47 444.69L335.5 444.73ZM428.67 476.99L395.67 469.77L413.74 477.51C354.89 482.15 347.74 448.34 347.74 448.34C347.74 448.34 355.66 440.41 359.35 432.55C370.062 431.176 380.337 427.45 389.44 421.64C395.88 425.55 408.14 432.54 417.93 435.53C417.93 435.53 401.01 426.16 393.33 418.91C400.669 413.273 406.723 406.138 411.09 397.98C414.201 396.937 417.186 395.552 419.99 393.85C421.47 406.5 435.86 418.11 435.86 418.11L435.35 420.69L423.99 418.11C427.6 422.75 435.35 424.82 435.35 424.82V431.53C435.35 437.28 445.95 443.4 448.98 445.03C448.7 446.03 448.48 446.96 448.31 447.81L446.19 451.14L425.86 445.98L439.48 455.79L417.77 454.69L439 459.92L428.67 476.99ZM548.67 437.25C546.35 446.8 536.28 453.51 536.28 453.51C536.28 453.51 540.15 463.31 534.99 475.96C534.99 475.96 526.21 487.32 519.99 487.06C513.77 486.8 512.99 493.77 510.18 499.7C507.37 505.63 502.7 508.48 495.18 509.51C487.66 510.54 479.96 506.16 479.96 506.16C479.96 506.16 455.18 495.32 449.76 490.93C444.34 486.54 446.4 477.25 446.4 477.25C445.056 480.974 444.36 484.901 444.34 488.86C444.34 495.32 470.15 505.38 470.15 505.38L467.57 506.38C454.92 506.63 454.92 502.76 444.57 495.79C434.22 488.82 437.08 482.11 437.86 475.15C438.64 468.19 443.28 462.24 449.73 461.47C456.18 460.7 499.8 474.11 499.8 474.11C499.8 474.11 497.48 472.82 492.31 469.47C487.14 466.12 461.31 460.95 456.44 455.01C455.73 454.147 455.215 453.141 454.93 452.06C456.02 446.43 460.32 428.06 470.38 427.4C482.25 426.62 495.38 435.92 497.73 436.95C500.08 437.98 509.86 441.08 509.86 441.08C509.86 441.08 495.77 429.72 489.55 425.33C483.33 420.94 473.03 423.53 476.9 411.14C480.77 398.75 505.03 388.69 510.19 388.69C515.35 388.69 526.45 394.88 533.94 410.62C541.43 426.36 550.97 427.64 548.65 437.21L548.67 437.25Z" fill="black"/>
<path d="M398.65 257.06C398.65 257.06 419.29 224.06 394 186.86C394 186.86 413.61 226.64 398.65 257.06Z" fill="#070E0F"/>
<path d="M475.61 432.43C475.61 432.43 465.35 447.53 465.35 456.24C470.931 449.42 474.486 441.171 475.61 432.43V432.43Z" fill="#070E0F"/>
<path d="M492.26 416.75C496.51 415.4 511.26 394.3 511.26 394.3C496.32 399.53 492.26 416.75 492.26 416.75Z" fill="#070E0F"/>
<path d="M205.39 404.17C206.16 394.88 223.58 396.43 218.16 381.72C218.16 381.72 219.97 387.01 215.45 390.23C210.03 394.11 200.74 393.72 200.74 405.72C200.74 417.72 201.13 421.98 201.13 421.98C203.339 416.26 204.771 410.27 205.39 404.17Z" fill="#070E0F"/>
<path d="M608.372 218.162L608.372 202.975L630.85 179.401L630.85 144.972L641.925 144.972L641.925 190.092C641.925 192.431 642.363 194.624 643.24 196.671C644.154 198.717 645.378 200.49 646.914 201.989C648.449 203.524 650.24 204.73 652.286 205.607C654.37 206.484 656.581 206.923 658.92 206.923C661.259 206.923 663.452 206.484 665.499 205.607C667.546 204.73 669.318 203.524 670.817 201.989C672.352 200.49 673.558 198.717 674.435 196.671C675.312 194.624 675.751 192.431 675.751 190.092L675.751 138.667L608.372 138.667L608.372 127.428L686.99 127.428L686.99 190.092C686.99 193.966 686.241 197.603 684.742 201.002C683.28 204.401 681.27 207.361 678.712 209.883C676.19 212.442 673.229 214.452 669.83 215.914C666.431 217.412 662.794 218.162 658.92 218.162C655.411 218.162 652.085 217.559 648.942 216.353C645.835 215.146 643.039 213.483 640.554 211.364C638.105 209.244 636.058 206.74 634.414 203.853C632.806 201.002 631.727 197.913 631.179 194.587L608.372 218.162ZM647.681 338.229C642.235 338.229 637.118 337.37 632.33 335.652C627.542 333.934 623.376 331.485 619.83 328.305C616.285 325.162 613.489 321.379 611.442 316.957C609.396 312.534 608.372 307.619 608.372 302.209L608.372 276.058C608.372 270.612 609.396 265.66 611.442 261.201C613.489 256.742 616.285 252.922 619.83 249.743C623.376 246.599 627.542 244.169 632.33 242.451C637.118 240.733 642.235 239.874 647.681 239.874C653.09 239.874 658.171 240.733 662.922 242.451C667.71 244.169 671.877 246.599 675.422 249.743C679.004 252.922 681.818 256.742 683.865 261.201C685.948 265.66 686.99 270.612 686.99 276.058L686.99 302.209C686.99 307.619 685.948 312.534 683.865 316.957C681.818 321.379 679.004 325.162 675.422 328.305C671.877 331.485 667.71 333.934 662.922 335.652C658.171 337.37 653.09 338.229 647.681 338.229ZM647.681 326.99C651.555 326.99 655.192 326.423 658.591 325.29C661.99 324.157 664.951 322.512 667.473 320.356C670.031 318.236 672.041 315.641 673.503 312.571C675.002 309.537 675.751 306.083 675.751 302.209L675.751 276.058C675.751 272.184 675.002 268.693 673.503 265.587C672.041 262.517 670.031 259.903 667.473 257.747C664.951 255.627 661.99 253.982 658.591 252.813C655.192 251.68 651.555 251.113 647.681 251.113C643.807 251.113 640.152 251.68 636.716 252.813C633.317 253.982 630.338 255.627 627.78 257.747C625.258 259.903 623.266 262.517 621.804 265.587C620.342 268.693 619.611 272.184 619.611 276.058L619.611 302.209C619.611 306.083 620.342 309.537 621.804 312.571C623.266 315.641 625.258 318.236 627.78 320.356C630.338 322.512 633.317 324.157 636.716 325.29C640.152 326.423 643.807 326.99 647.681 326.99ZM608.372 375.621L608.372 364.382L686.99 364.382L686.99 375.621L608.372 375.621ZM630.85 498.868C627.707 498.868 624.765 498.264 622.023 497.058C619.319 495.889 616.943 494.281 614.896 492.234C612.886 490.224 611.296 487.848 610.127 485.107C608.957 482.365 608.372 479.46 608.372 476.39L608.372 423.155L619.611 423.155L619.611 476.39C619.611 477.925 619.904 479.368 620.488 480.721C621.073 482.11 621.877 483.316 622.901 484.339C623.924 485.363 625.112 486.167 626.464 486.751C627.853 487.336 629.315 487.629 630.85 487.629C632.385 487.629 633.829 487.336 635.181 486.751C636.534 486.167 637.721 485.363 638.745 484.339C639.768 483.316 640.572 482.11 641.157 480.721C641.742 479.368 642.034 477.925 642.034 476.39L642.034 423.155L653.273 423.155L653.273 465.151C653.273 466.686 653.566 468.13 654.15 469.482C654.735 470.871 655.539 472.077 656.563 473.1C657.586 474.124 658.774 474.928 660.126 475.512C661.515 476.097 662.977 476.39 664.512 476.39C666.047 476.39 667.491 476.097 668.843 475.512C670.232 474.928 671.438 474.124 672.462 473.1C673.485 472.077 674.289 470.871 674.874 469.482C675.459 468.13 675.751 466.686 675.751 465.151L675.751 417.563L608.372 417.563L608.372 406.325L686.99 406.325L686.99 465.151C686.99 468.221 686.387 471.127 685.181 473.868C684.011 476.609 682.403 478.985 680.356 480.995C678.346 483.042 675.97 484.65 673.229 485.819C670.488 487.026 667.582 487.629 664.512 487.629C662.136 487.629 659.889 487.281 657.769 486.587C655.685 485.892 653.748 484.96 651.957 483.791C651.19 485.984 650.112 487.994 648.723 489.822C647.334 491.686 645.726 493.275 643.898 494.591C642.071 495.944 640.042 496.985 637.813 497.716C635.62 498.484 633.299 498.868 630.85 498.868ZM608.372 605.119L608.372 523.815L686.99 523.815L686.99 605.119L675.751 605.119L675.751 535.054L619.611 535.054L619.611 605.119L608.372 605.119ZM642.034 595.579L642.034 540.646L653.273 540.646L653.273 595.579L642.034 595.579ZM608.372 712.192L608.372 630.888L686.99 630.888L686.99 712.192L675.751 712.192L675.751 642.127L619.611 642.127L619.611 712.192L608.372 712.192ZM642.034 702.653L642.034 647.719L653.273 647.719L653.273 702.653L642.034 702.653Z" fill="white"/>
<path d="M593.46 117.998L593.46 716.688L591.212 716.688L591.212 117.998L593.46 117.998Z" fill="white"/>
<path d="M608.372 218.162L604.301 218.162L604.301 228.226L611.298 220.993L608.372 218.162ZM608.372 202.975L605.426 200.166L604.301 201.346L604.301 202.975L608.372 202.975ZM630.85 179.401L633.797 182.211L634.921 181.031L634.921 179.401L630.85 179.401ZM630.85 144.972L630.85 140.9L626.779 140.9L626.779 144.972L630.85 144.972ZM641.925 144.972L645.996 144.972L645.996 140.9L641.925 140.9L641.925 144.972ZM643.24 196.671L639.498 198.275L639.51 198.303L639.523 198.33L643.24 196.671ZM646.914 201.989L649.792 199.11L649.775 199.092L649.758 199.075L646.914 201.989ZM652.286 205.607L650.683 209.349L650.694 209.354L650.706 209.359L652.286 205.607ZM665.499 205.607L667.103 209.349L665.499 205.607ZM670.817 201.989L667.973 199.075L667.938 199.11L667.903 199.145L670.817 201.989ZM675.751 138.667L679.822 138.667L679.822 134.595L675.751 134.595L675.751 138.667ZM608.372 138.667L604.301 138.667L604.301 142.738L608.372 142.738L608.372 138.667ZM608.372 127.428L608.372 123.357L604.301 123.357L604.301 127.428L608.372 127.428ZM686.99 127.428L691.061 127.428L691.061 123.357L686.99 123.357L686.99 127.428ZM684.742 201.002L681.017 199.359L681.009 199.376L681.002 199.393L684.742 201.002ZM678.712 209.883L675.853 206.984L675.833 207.004L675.812 207.025L678.712 209.883ZM669.83 215.914L668.221 212.174L668.204 212.181L668.188 212.189L669.83 215.914ZM648.942 216.353L647.469 220.148L647.476 220.151L647.483 220.154L648.942 216.353ZM640.554 211.364L637.889 214.442L637.901 214.452L637.912 214.461L640.554 211.364ZM634.414 203.853L630.868 205.853L630.872 205.86L630.876 205.868L634.414 203.853ZM631.179 194.587L635.196 193.925L633.88 185.94L628.253 191.757L631.179 194.587ZM612.444 218.162L612.444 202.975L604.301 202.975L604.301 218.162L612.444 218.162ZM611.319 205.785L633.797 182.211L627.904 176.592L605.426 200.166L611.319 205.785ZM634.921 179.401L634.921 144.972L626.779 144.972L626.779 179.401L634.921 179.401ZM630.85 149.043L641.925 149.043L641.925 140.9L630.85 140.9L630.85 149.043ZM637.853 144.972L637.853 190.092L645.996 190.092L645.996 144.972L637.853 144.972ZM637.853 190.092C637.853 192.954 638.393 195.696 639.498 198.275L646.983 195.067C646.333 193.552 645.996 191.908 645.996 190.092L637.853 190.092ZM639.523 198.33C640.636 200.825 642.15 203.029 644.07 204.902L649.758 199.075C648.607 197.952 647.672 196.61 646.958 195.011L639.523 198.33ZM644.035 204.868C645.946 206.778 648.172 208.273 650.683 209.349L653.89 201.865C652.307 201.186 650.952 200.269 649.792 199.11L644.035 204.868ZM650.706 209.359C653.307 210.454 656.058 210.994 658.92 210.994L658.92 202.851C657.104 202.851 655.432 202.514 653.866 201.855L650.706 209.359ZM658.92 210.994C661.782 210.994 664.524 210.455 667.103 209.349L663.895 201.865C662.381 202.514 660.736 202.851 658.92 202.851L658.92 210.994ZM667.103 209.349C669.622 208.27 671.844 206.765 673.73 204.833L667.903 199.145C666.793 200.283 665.47 201.19 663.895 201.865L667.103 209.349ZM673.661 204.902C675.593 203.016 677.098 200.793 678.177 198.275L670.693 195.067C670.018 196.642 669.111 197.964 667.973 199.075L673.661 204.902ZM678.177 198.275C679.283 195.696 679.822 192.954 679.822 190.092L671.68 190.092C671.68 191.908 671.342 193.552 670.693 195.067L678.177 198.275ZM679.822 190.092L679.822 138.667L671.68 138.667L671.68 190.092L679.822 190.092ZM675.751 134.595L608.372 134.595L608.372 142.738L675.751 142.738L675.751 134.595ZM612.444 138.667L612.444 127.428L604.301 127.428L604.301 138.667L612.444 138.667ZM608.372 131.499L686.99 131.499L686.99 123.357L608.372 123.357L608.372 131.499ZM682.919 127.428L682.919 190.092L691.061 190.092L691.061 127.428L682.919 127.428ZM682.919 190.092C682.919 193.425 682.277 196.5 681.017 199.359L688.468 202.644C690.204 198.705 691.061 194.507 691.061 190.092L682.919 190.092ZM681.002 199.393C679.742 202.324 678.026 204.842 675.853 206.984L681.57 212.783C684.514 209.881 686.819 206.478 688.482 202.61L681.002 199.393ZM675.812 207.025C673.67 209.198 671.152 210.913 668.221 212.174L671.439 219.654C675.306 217.991 678.709 215.686 681.611 212.741L675.812 207.025ZM668.188 212.189C665.328 213.449 662.254 214.09 658.92 214.09L658.92 222.233C663.335 222.233 667.534 221.376 671.472 219.639L668.188 212.189ZM658.92 214.09C655.889 214.09 653.059 213.571 650.401 212.551L647.483 220.154C651.112 221.546 654.934 222.233 658.92 222.233L658.92 214.09ZM650.416 212.557C647.726 211.513 645.327 210.083 643.196 208.266L637.912 214.461C640.752 216.884 643.945 218.78 647.469 220.148L650.416 212.557ZM643.219 208.285C641.128 206.476 639.374 204.334 637.951 201.838L630.876 205.868C632.743 209.146 635.082 212.012 637.889 214.442L643.219 208.285ZM637.96 201.852C636.593 199.429 635.669 196.795 635.196 193.925L627.162 195.25C627.785 199.032 629.018 202.575 630.868 205.853L637.96 201.852ZM628.253 191.757L605.446 215.331L611.298 220.993L634.105 197.418L628.253 191.757ZM619.83 328.305L622.549 325.275L622.54 325.267L622.531 325.259L619.83 328.305ZM619.83 249.743L617.13 246.696L617.121 246.704L617.112 246.712L619.83 249.743ZM662.922 242.451L661.538 246.28L661.547 246.283L662.922 242.451ZM675.422 249.743L678.125 246.698L678.123 246.696L675.422 249.743ZM683.865 261.201L680.165 262.899L680.171 262.912L680.176 262.924L683.865 261.201ZM683.865 316.957L680.182 315.222L680.176 315.234L680.17 315.247L683.865 316.957ZM675.422 328.305L672.737 325.245L672.72 325.26L672.704 325.275L675.422 328.305ZM662.922 335.652L661.547 331.82L661.538 331.823L662.922 335.652ZM667.473 320.356L664.875 317.221L664.851 317.241L664.827 317.262L667.473 320.356ZM673.503 312.571L669.853 310.768L669.84 310.794L669.827 310.821L673.503 312.571ZM673.503 265.587L669.827 267.337L669.832 267.346L669.836 267.356L673.503 265.587ZM667.473 257.747L670.096 254.634L670.092 254.63L667.473 257.747ZM658.591 252.813L659.916 248.963L659.897 248.957L659.879 248.95L658.591 252.813ZM636.716 252.813L635.441 248.946L635.416 248.954L635.392 248.963L636.716 252.813ZM627.78 257.747L625.182 254.612L625.158 254.632L625.134 254.653L627.78 257.747ZM621.804 265.587L618.128 263.836L618.124 263.845L618.12 263.853L621.804 265.587ZM621.804 312.571L625.48 310.821L625.476 310.812L625.472 310.803L621.804 312.571ZM627.78 320.356L630.404 317.243L630.4 317.239L627.78 320.356ZM636.716 325.29L635.429 329.153L635.441 329.157L636.716 325.29ZM647.681 334.157C642.671 334.157 638.022 333.368 633.705 331.82L630.955 339.484C636.215 341.371 641.8 342.3 647.681 342.3L647.681 334.157ZM633.705 331.82C629.379 330.267 625.676 328.08 622.549 325.275L617.112 331.336C621.075 334.891 625.706 337.601 630.955 339.484L633.705 331.82ZM622.531 325.259C619.418 322.499 616.955 319.175 615.137 315.247L607.748 318.667C610.023 323.584 613.152 327.826 617.13 331.352L622.531 325.259ZM615.137 315.247C613.365 311.417 612.444 307.093 612.444 302.209L604.301 302.209C604.301 308.144 605.427 313.652 607.748 318.667L615.137 315.247ZM612.444 302.209L612.444 276.058L604.301 276.058L604.301 302.209L612.444 302.209ZM612.444 276.058C612.444 271.134 613.366 266.769 615.143 262.899L607.742 259.502C605.425 264.55 604.301 270.091 604.301 276.058L612.444 276.058ZM615.143 262.899C616.964 258.931 619.431 255.57 622.549 252.773L617.112 246.712C613.139 250.275 610.014 254.552 607.742 259.502L615.143 262.899ZM622.531 252.789C625.661 250.014 629.369 247.839 633.705 246.283L630.955 238.619C625.716 240.499 621.091 243.184 617.13 246.696L622.531 252.789ZM633.705 246.283C638.022 244.734 642.671 243.946 647.681 243.946L647.681 235.803C641.8 235.803 636.215 236.732 630.955 238.619L633.705 246.283ZM647.681 243.946C652.652 243.946 657.261 244.734 661.538 246.28L664.306 238.622C659.081 236.733 653.529 235.803 647.681 235.803L647.681 243.946ZM661.547 246.283C665.883 247.839 669.592 250.014 672.721 252.789L678.123 246.696C674.162 243.184 669.537 240.499 664.297 238.619L661.547 246.283ZM672.719 252.787C675.868 255.583 678.348 258.94 680.165 262.899L687.565 259.502C685.289 254.543 682.139 250.262 678.125 246.698L672.719 252.787ZM680.176 262.924C681.982 266.789 682.919 271.144 682.919 276.058L691.061 276.058C691.061 270.081 689.915 264.531 687.554 259.477L680.176 262.924ZM682.919 276.058L682.919 302.209L691.061 302.209L691.061 276.058L682.919 276.058ZM682.919 302.209C682.919 307.083 681.983 311.398 680.182 315.222L687.548 318.692C689.913 313.671 691.061 308.154 691.061 302.209L682.919 302.209ZM680.17 315.247C678.356 319.166 675.882 322.485 672.737 325.245L678.108 331.366C682.126 327.839 685.28 323.593 687.56 318.667L680.17 315.247ZM672.704 325.275C669.576 328.08 665.874 330.267 661.547 331.82L664.297 339.484C669.546 337.601 674.177 334.891 678.14 331.336L672.704 325.275ZM661.538 331.823C657.261 333.369 652.652 334.157 647.681 334.157L647.681 342.3C653.529 342.3 659.081 341.37 664.306 339.481L661.538 331.823ZM647.681 331.061C651.957 331.061 656.032 330.435 659.879 329.153L657.304 321.428C654.352 322.412 651.153 322.918 647.681 322.918L647.681 331.061ZM659.879 329.153C663.736 327.867 667.167 325.974 670.119 323.45L664.827 317.262C662.735 319.05 660.245 320.447 657.304 321.428L659.879 329.153ZM670.07 323.491C673.095 320.984 675.469 317.913 677.179 314.321L669.827 310.821C668.614 313.369 666.967 315.488 664.875 317.221L670.07 323.491ZM677.154 314.374C678.967 310.704 679.822 306.618 679.822 302.209L671.68 302.209C671.68 305.549 671.037 308.371 669.853 310.768L677.154 314.374ZM679.822 302.209L679.822 276.058L671.68 276.058L671.68 302.209L679.822 302.209ZM679.822 276.058C679.822 271.647 678.966 267.541 677.17 263.818L669.836 267.356C671.037 269.846 671.68 272.72 671.68 276.058L679.822 276.058ZM677.179 263.836C675.472 260.251 673.106 257.171 670.096 254.634L664.849 260.86C666.956 262.636 668.611 264.782 669.827 267.337L677.179 263.836ZM670.092 254.63C667.154 252.16 663.745 250.28 659.916 248.963L657.266 256.663C660.236 257.684 662.747 259.094 664.853 260.864L670.092 254.63ZM659.879 248.95C656.032 247.668 651.957 247.042 647.681 247.042L647.681 255.185C651.153 255.185 654.352 255.691 657.304 256.675L659.879 248.95ZM647.681 247.042C643.404 247.042 639.316 247.668 635.441 248.946L637.991 256.679C640.987 255.691 644.209 255.185 647.681 255.185L647.681 247.042ZM635.392 248.963C631.567 250.279 628.148 252.154 625.182 254.612L630.378 260.882C632.528 259.1 635.068 257.686 638.041 256.663L635.392 248.963ZM625.134 254.653C622.168 257.189 619.829 260.264 618.128 263.836L625.48 267.337C626.703 264.769 628.349 262.618 630.426 260.841L625.134 254.653ZM618.12 263.853C616.372 267.568 615.54 271.662 615.54 276.058L623.683 276.058C623.683 272.706 624.312 269.819 625.488 267.32L618.12 263.853ZM615.54 276.058L615.54 302.209L623.683 302.209L623.683 276.058L615.54 276.058ZM615.54 302.209C615.54 306.603 616.372 310.676 618.136 314.339L625.472 310.803C624.313 308.399 623.683 305.564 623.683 302.209L615.54 302.209ZM618.128 314.321C619.832 317.9 622.178 320.966 625.16 323.473L630.4 317.239C628.338 315.506 626.7 313.382 625.48 310.821L618.128 314.321ZM625.156 323.469C628.136 325.981 631.576 327.868 635.429 329.153L638.004 321.428C635.059 320.446 632.541 319.044 630.404 317.243L625.156 323.469ZM635.441 329.157C639.316 330.435 643.404 331.061 647.681 331.061L647.681 322.918C644.209 322.918 640.987 322.412 637.991 321.424L635.441 329.157ZM608.372 375.621L604.301 375.621L604.301 379.692L608.372 379.692L608.372 375.621ZM608.372 364.382L608.372 360.311L604.301 360.311L604.301 364.382L608.372 364.382ZM686.99 364.382L691.061 364.382L691.061 360.311L686.99 360.311L686.99 364.382ZM686.99 375.621L686.99 379.692L691.061 379.692L691.061 375.621L686.99 375.621ZM612.444 375.621L612.444 364.382L604.301 364.382L604.301 375.621L612.444 375.621ZM608.372 368.453L686.99 368.453L686.99 360.311L608.372 360.311L608.372 368.453ZM682.919 364.382L682.919 375.621L691.061 375.621L691.061 364.382L682.919 364.382ZM686.99 371.549L608.372 371.549L608.372 379.692L686.99 379.692L686.99 371.549ZM622.023 497.058L623.663 493.332L623.651 493.327L623.639 493.321L622.023 497.058ZM608.372 423.155L608.372 419.084L604.301 419.084L604.301 423.155L608.372 423.155ZM619.611 423.155L623.683 423.155L623.683 419.084L619.611 419.084L619.611 423.155ZM620.488 480.721L624.241 479.141L624.233 479.123L624.225 479.105L620.488 480.721ZM622.901 484.339L620.022 487.218L622.901 484.339ZM626.464 486.751L624.848 490.488L624.866 490.496L624.884 490.504L626.464 486.751ZM635.181 486.751L636.797 490.488L635.181 486.751ZM641.157 480.721L637.42 479.105L637.412 479.123L637.405 479.141L641.157 480.721ZM642.034 423.155L642.034 419.084L637.963 419.084L637.963 423.155L642.034 423.155ZM653.273 423.155L657.345 423.155L657.345 419.084L653.273 419.084L653.273 423.155ZM654.15 469.482L657.903 467.902L657.895 467.884L657.887 467.866L654.15 469.482ZM660.126 475.512L658.51 479.249L658.528 479.257L658.546 479.265L660.126 475.512ZM668.843 475.512L667.263 471.76L667.245 471.768L667.227 471.776L668.843 475.512ZM672.462 473.1L675.34 475.979L672.462 473.1ZM674.874 469.482L671.137 467.866L671.129 467.884L671.122 467.902L674.874 469.482ZM675.751 417.563L679.822 417.563L679.822 413.492L675.751 413.492L675.751 417.563ZM608.372 417.563L604.301 417.563L604.301 421.635L608.372 421.635L608.372 417.563ZM608.372 406.325L608.372 402.253L604.301 402.253L604.301 406.325L608.372 406.325ZM686.99 406.325L691.061 406.325L691.061 402.253L686.99 402.253L686.99 406.325ZM685.181 473.868L681.454 472.228L681.445 472.249L681.436 472.27L685.181 473.868ZM680.356 480.995L677.503 478.09L677.477 478.116L677.452 478.142L680.356 480.995ZM673.229 485.819L671.631 482.075L671.61 482.084L671.589 482.093L673.229 485.819ZM657.769 486.587L656.481 490.449L656.491 490.453L656.501 490.456L657.769 486.587ZM651.957 483.791L654.184 480.382L649.832 477.54L648.115 482.446L651.957 483.791ZM648.723 489.822L645.481 487.358L645.47 487.373L645.458 487.389L648.723 489.822ZM643.898 494.591L641.519 491.287L641.498 491.303L641.476 491.319L643.898 494.591ZM637.813 497.716L636.544 493.847L636.506 493.86L636.468 493.873L637.813 497.716ZM630.85 494.796C628.243 494.796 625.862 494.299 623.663 493.332L620.384 500.785C623.667 502.23 627.171 502.939 630.85 502.939L630.85 494.796ZM623.639 493.321C621.397 492.352 619.452 491.032 617.775 489.355L612.017 495.113C614.434 497.529 617.24 499.426 620.407 500.795L623.639 493.321ZM617.775 489.355C616.15 487.73 614.847 485.795 613.871 483.509L606.382 486.704C607.746 489.901 609.622 492.717 612.017 495.113L617.775 489.355ZM613.871 483.509C612.924 481.288 612.444 478.928 612.444 476.39L604.301 476.39C604.301 479.992 604.99 483.443 606.382 486.704L613.871 483.509ZM612.444 476.39L612.444 423.155L604.301 423.155L604.301 476.39L612.444 476.39ZM608.372 427.227L619.611 427.227L619.611 419.084L608.372 419.084L608.372 427.227ZM615.54 423.155L615.54 476.39L623.683 476.39L623.683 423.155L615.54 423.155ZM615.54 476.39C615.54 478.457 615.937 480.453 616.751 482.337L624.225 479.105C623.87 478.284 623.683 477.393 623.683 476.39L615.54 476.39ZM616.736 482.301C617.517 484.155 618.611 485.807 620.022 487.218L625.78 481.46C625.144 480.825 624.63 480.065 624.241 479.141L616.736 482.301ZM620.022 487.218C621.415 488.611 623.033 489.703 624.848 490.488L628.08 483.014C627.19 482.63 626.433 482.114 625.78 481.46L620.022 487.218ZM624.884 490.504C626.783 491.303 628.783 491.7 630.85 491.7L630.85 483.557C629.847 483.557 628.923 483.369 628.044 482.999L624.884 490.504ZM630.85 491.7C632.917 491.7 634.913 491.303 636.797 490.488L633.565 483.014C632.744 483.369 631.853 483.557 630.85 483.557L630.85 491.7ZM636.797 490.488C638.612 489.703 640.231 488.611 641.624 487.218L635.866 481.46C635.212 482.114 634.455 482.63 633.565 483.014L636.797 490.488ZM641.624 487.218C643.035 485.807 644.129 484.155 644.909 482.301L637.405 479.141C637.016 480.065 636.502 480.825 635.866 481.46L641.624 487.218ZM644.894 482.337C645.709 480.453 646.106 478.457 646.106 476.39L637.963 476.39C637.963 477.393 637.775 478.284 637.42 479.105L644.894 482.337ZM646.106 476.39L646.106 423.155L637.963 423.155L637.963 476.39L646.106 476.39ZM642.034 427.227L653.273 427.227L653.273 419.084L642.034 419.084L642.034 427.227ZM649.202 423.155L649.202 465.151L657.345 465.151L657.345 423.155L649.202 423.155ZM649.202 465.151C649.202 467.218 649.599 469.214 650.413 471.098L657.887 467.866C657.532 467.045 657.345 466.154 657.345 465.151L649.202 465.151ZM650.398 471.062C651.179 472.916 652.273 474.568 653.684 475.979L659.441 470.221C658.806 469.586 658.292 468.826 657.903 467.902L650.398 471.062ZM653.684 475.979C655.077 477.372 656.695 478.465 658.51 479.249L661.742 471.776C660.852 471.391 660.095 470.875 659.441 470.221L653.684 475.979ZM658.546 479.265C660.445 480.064 662.445 480.461 664.512 480.461L664.512 472.318C663.509 472.318 662.585 472.13 661.706 471.76L658.546 479.265ZM664.512 480.461C666.579 480.461 668.575 480.064 670.459 479.249L667.227 471.776C666.406 472.13 665.515 472.318 664.512 472.318L664.512 480.461ZM670.423 479.265C672.277 478.484 673.929 477.39 675.34 475.979L669.583 470.221C668.947 470.857 668.187 471.371 667.263 471.76L670.423 479.265ZM675.34 475.979C676.752 474.568 677.846 472.916 678.626 471.062L671.122 467.902C670.733 468.826 670.218 469.586 669.583 470.221L675.34 475.979ZM678.611 471.098C679.425 469.214 679.822 467.218 679.822 465.151L671.68 465.151C671.68 466.154 671.492 467.045 671.137 467.866L678.611 471.098ZM679.822 465.151L679.822 417.563L671.68 417.563L671.68 465.151L679.822 465.151ZM675.751 413.492L608.372 413.492L608.372 421.635L675.751 421.635L675.751 413.492ZM612.444 417.563L612.444 406.325L604.301 406.325L604.301 417.563L612.444 417.563ZM608.372 410.396L686.99 410.396L686.99 402.253L608.372 402.253L608.372 410.396ZM682.919 406.325L682.919 465.151L691.061 465.151L691.061 406.325L682.919 406.325ZM682.919 465.151C682.919 467.671 682.427 470.017 681.454 472.228L688.907 475.507C690.347 472.236 691.061 468.771 691.061 465.151L682.919 465.151ZM681.436 472.27C680.467 474.541 679.155 476.468 677.503 478.09L683.209 483.9C685.651 481.502 687.555 478.677 688.926 475.466L681.436 472.27ZM677.452 478.142C675.829 479.794 673.902 481.106 671.631 482.075L674.827 489.564C678.038 488.194 680.863 486.289 683.261 483.848L677.452 478.142ZM671.589 482.093C669.378 483.066 667.032 483.557 664.512 483.557L664.512 491.7C668.132 491.7 671.598 490.985 674.869 489.546L671.589 482.093ZM664.512 483.557C662.539 483.557 660.721 483.27 659.036 482.718L656.501 490.456C659.056 491.293 661.734 491.7 664.512 491.7L664.512 483.557ZM659.056 482.724C657.295 482.137 655.675 481.356 654.184 480.382L649.731 487.2C651.822 488.565 654.076 489.648 656.481 490.449L659.056 482.724ZM648.115 482.446C647.486 484.242 646.609 485.874 645.481 487.358L651.964 492.285C653.614 490.114 654.894 487.726 655.8 485.136L648.115 482.446ZM645.458 487.389C644.31 488.93 642.998 490.223 641.519 491.287L646.277 497.895C648.454 496.328 650.358 494.441 651.988 492.254L645.458 487.389ZM641.476 491.319C640.01 492.403 638.373 493.248 636.544 493.847L639.081 501.585C641.711 500.723 644.131 499.484 646.32 497.864L641.476 491.319ZM636.468 493.873C634.73 494.482 632.866 494.796 630.85 494.796L630.85 502.939C633.732 502.939 636.51 502.486 639.158 501.559L636.468 493.873ZM608.372 605.119L604.301 605.119L604.301 609.19L608.372 609.19L608.372 605.119ZM608.372 523.815L608.372 519.743L604.301 519.743L604.301 523.815L608.372 523.815ZM686.99 523.815L691.061 523.815L691.061 519.743L686.99 519.743L686.99 523.815ZM686.99 605.119L686.99 609.19L691.061 609.19L691.061 605.119L686.99 605.119ZM675.751 605.119L671.68 605.119L671.68 609.19L675.751 609.19L675.751 605.119ZM675.751 535.054L679.822 535.054L679.822 530.982L675.751 530.982L675.751 535.054ZM619.611 535.054L619.611 530.982L615.54 530.982L615.54 535.054L619.611 535.054ZM619.611 605.119L619.611 609.19L623.683 609.19L623.683 605.119L619.611 605.119ZM642.034 595.579L637.963 595.579L637.963 599.651L642.034 599.651L642.034 595.579ZM642.034 540.646L642.034 536.574L637.963 536.574L637.963 540.646L642.034 540.646ZM653.273 540.646L657.345 540.646L657.345 536.574L653.273 536.574L653.273 540.646ZM653.273 595.579L653.273 599.651L657.345 599.651L657.345 595.579L653.273 595.579ZM612.444 605.119L612.444 523.815L604.301 523.815L604.301 605.119L612.444 605.119ZM608.372 527.886L686.99 527.886L686.99 519.743L608.372 519.743L608.372 527.886ZM682.919 523.815L682.919 605.119L691.061 605.119L691.061 523.815L682.919 523.815ZM686.99 601.047L675.751 601.047L675.751 609.19L686.99 609.19L686.99 601.047ZM679.822 605.119L679.822 535.054L671.68 535.054L671.68 605.119L679.822 605.119ZM675.751 530.982L619.611 530.982L619.611 539.125L675.751 539.125L675.751 530.982ZM615.54 535.054L615.54 605.119L623.683 605.119L623.683 535.054L615.54 535.054ZM619.611 601.047L608.372 601.047L608.372 609.19L619.611 609.19L619.611 601.047ZM646.106 595.579L646.106 540.646L637.963 540.646L637.963 595.579L646.106 595.579ZM642.034 544.717L653.273 544.717L653.273 536.574L642.034 536.574L642.034 544.717ZM649.202 540.646L649.202 595.579L657.345 595.579L657.345 540.646L649.202 540.646ZM653.273 591.508L642.034 591.508L642.034 599.651L653.273 599.651L653.273 591.508ZM608.372 712.192L604.301 712.192L604.301 716.264L608.372 716.264L608.372 712.192ZM608.372 630.888L608.372 626.817L604.301 626.817L604.301 630.888L608.372 630.888ZM686.99 630.888L691.061 630.888L691.061 626.817L686.99 626.817L686.99 630.888ZM686.99 712.192L686.99 716.264L691.061 716.264L691.061 712.192L686.99 712.192ZM675.751 712.192L671.68 712.192L671.68 716.264L675.751 716.264L675.751 712.192ZM675.751 642.127L679.822 642.127L679.822 638.056L675.751 638.056L675.751 642.127ZM619.611 642.127L619.611 638.056L615.54 638.056L615.54 642.127L619.611 642.127ZM619.611 712.192L619.611 716.264L623.683 716.264L623.683 712.192L619.611 712.192ZM642.034 702.653L637.963 702.653L637.963 706.724L642.034 706.724L642.034 702.653ZM642.034 647.719L642.034 643.648L637.963 643.648L637.963 647.719L642.034 647.719ZM653.273 647.719L657.345 647.719L657.345 643.648L653.273 643.648L653.273 647.719ZM653.273 702.653L653.273 706.724L657.345 706.724L657.345 702.653L653.273 702.653ZM612.444 712.192L612.444 630.888L604.301 630.888L604.301 712.192L612.444 712.192ZM608.372 634.96L686.99 634.96L686.99 626.817L608.372 626.817L608.372 634.96ZM682.919 630.888L682.919 712.192L691.061 712.192L691.061 630.888L682.919 630.888ZM686.99 708.121L675.751 708.121L675.751 716.264L686.99 716.264L686.99 708.121ZM679.822 712.192L679.822 642.127L671.68 642.127L671.68 712.192L679.822 712.192ZM675.751 638.056L619.611 638.056L619.611 646.199L675.751 646.199L675.751 638.056ZM615.54 642.127L615.54 712.192L623.683 712.192L623.683 642.127L615.54 642.127ZM619.611 708.121L608.372 708.121L608.372 716.264L619.611 716.264L619.611 708.121ZM646.106 702.653L646.106 647.719L637.963 647.719L637.963 702.653L646.106 702.653ZM642.034 651.791L653.273 651.791L653.273 643.648L642.034 643.648L642.034 651.791ZM649.202 647.719L649.202 702.653L657.345 702.653L657.345 647.719L649.202 647.719ZM653.273 698.582L642.034 698.582L642.034 706.724L653.273 706.724L653.273 698.582Z" fill="black"/>
<path d="M593.46 117.998L597.531 117.998L597.531 113.927L593.46 113.927L593.46 117.998ZM593.46 716.688L593.46 720.759L597.531 720.759L597.531 716.688L593.46 716.688ZM591.212 716.688L587.141 716.688L587.141 720.759L591.212 720.759L591.212 716.688ZM591.212 117.998L591.212 113.927L587.141 113.927L587.141 117.998L591.212 117.998ZM589.389 117.998L589.389 716.688L597.531 716.688L597.531 117.998L589.389 117.998ZM593.46 712.617L591.212 712.617L591.212 720.759L593.46 720.759L593.46 712.617ZM595.284 716.688L595.284 117.998L587.141 117.998L587.141 716.688L595.284 716.688ZM591.212 122.07L593.46 122.07L593.46 113.927L591.212 113.927L591.212 122.07Z" fill="black"/>
</svg>
