<svg width="716" height="739" viewBox="0 0 716 739" fill="none" xmlns="http://www.w3.org/2000/svg">
<path d="M243.77 147.631C243.77 147.631 237.83 120.531 258.77 107.881C260.623 106.77 262.539 105.768 264.51 104.881L259.83 65.5214C199.7 102.381 204.14 159.521 218.73 201.431C221.54 165.521 243.77 147.631 243.77 147.631Z" fill="#DADCE0"/>
<path d="M464.25 271.731C461.67 267.861 452.38 267.861 452.38 267.861L451.61 245.921C454.519 244.315 456.794 241.764 458.06 238.691C450.45 236.591 420.29 203.251 422.39 155.131C422.39 155.131 436.58 134.681 419.55 128.491C402.52 122.301 395.77 148.881 395.77 155.331C395.637 150.546 395.85 145.756 396.41 141.001C396.523 139.884 396.707 138.775 396.96 137.681C395.35 136.121 386.84 128.681 364.96 122.491C362.45 124.921 361.12 126.371 361.12 126.371C361.12 126.371 361.95 124.801 363.63 122.121C354.541 119.683 345.301 117.849 335.97 116.631C334.61 118.931 333.92 120.241 333.92 120.241C333.92 120.241 334.23 118.891 334.92 116.491C328.39 115.641 321.24 114.931 313.4 114.491C315.165 116.04 316.819 117.711 318.35 119.491C318.35 119.491 281.18 96.2714 261.83 114.331C242.48 132.391 250.66 161.561 250.66 161.561L246.34 153.301C246.34 153.301 225.77 169.261 225.21 211.631C225.138 216.729 225.764 221.813 227.07 226.741C229.08 228.91 230.893 231.253 232.49 233.741C235.344 238.277 237.255 243.341 238.11 248.631C251.42 265.861 270.25 274.231 270.25 274.231C273.52 238.611 291.54 253.321 291.54 253.321C278.76 252.161 277.98 257.321 276.83 260.321C276.25 261.811 270.25 309.101 283.41 318.391C296.57 327.681 319.8 321.101 349.61 313.751C379.42 306.401 389.68 316.841 393.94 320.331C398.2 323.821 403.03 326.911 407.1 317.621C409.51 312.121 405.74 307.111 402.26 303.921C398.56 302.291 393.26 299.791 386.98 296.831C377.63 296.611 353.18 297.611 310.89 309.751L295.89 313.361C295.89 313.361 294.34 257.101 316.02 261.741C337.7 266.381 408.77 300.631 408.77 300.631C408.77 300.631 427.1 307.861 433.29 304.761C439.48 301.661 466.83 275.631 464.25 271.731ZM385.25 243.461C374.41 257.401 352.04 255.381 328.46 239.981L327.39 239.261L327.03 239.011L326.24 238.451L325.8 238.131L325.03 237.561L324.56 237.201L323.73 236.561L323.28 236.211L322.28 235.441L321.92 235.151C321 234.405 320.05 233.615 319.07 232.781L318.76 232.511L317.59 231.511L317.18 231.151L316.05 230.151L315.63 229.781L314.43 228.631L314.09 228.321C313.6 227.861 313.09 227.401 312.61 226.921L312.52 226.841C310.86 225.268 309.173 223.601 307.46 221.841L307.29 221.671C306.78 221.151 306.29 220.671 305.75 220.081L305.57 219.901L303.95 218.191L303.89 218.131C294.57 208.181 285.21 196.281 279.11 184.581C278.69 183.771 278.28 182.961 277.89 182.161C276.762 179.844 275.76 177.467 274.89 175.041L274.83 174.851C274.041 172.628 273.406 170.352 272.93 168.041C272.935 167.951 272.935 167.861 272.93 167.771C272.8 167.091 272.69 166.431 272.6 165.771V165.591C272.411 164.176 272.314 162.75 272.31 161.321V161.051C272.31 160.451 272.31 159.861 272.38 159.271V158.951C272.484 157.622 272.702 156.304 273.03 155.011C273.051 154.953 273.068 154.893 273.08 154.831C273.23 154.271 273.4 153.711 273.59 153.171C273.64 153.051 273.68 152.941 273.72 152.821C273.92 152.281 274.14 151.741 274.39 151.211C274.39 151.211 274.44 151.101 274.47 151.041C274.76 150.431 275.09 149.831 275.47 149.241C275.69 148.891 275.91 148.541 276.15 148.241C276.28 148.051 276.42 147.861 276.56 147.681C276.709 147.463 276.869 147.253 277.04 147.051C277.18 146.871 277.32 146.691 277.47 146.521C277.62 146.351 277.91 146.011 278.14 145.761L278.47 145.411C278.81 145.061 279.17 144.711 279.54 144.411L279.93 144.061L280.83 143.311L281.23 143.001C281.67 142.661 282.12 142.321 282.59 142.001C316.66 118.771 356.83 165.001 372.41 184.321C387.99 203.641 396.07 229.531 385.23 243.461H385.25ZM398.67 258.051C413.67 227.591 394.02 187.851 394.02 187.851C419.29 225.011 398.65 258.051 398.65 258.051H398.67Z" fill="#F0EA4E"/>
<path d="M301.6 305.541C301.6 309.691 351.95 289.721 381.8 294.301C358.14 283.131 325.56 267.861 316.57 267.861C303.15 267.861 301.6 300.891 301.6 305.541Z" fill="white"/>
<path d="M141.51 226.301L144.15 224.871C143.28 225.331 142.41 225.801 141.52 226.301L74.62 173.411L145.71 224.051C154.17 219.533 163.136 216.035 172.42 213.631L15.77 77.6314C-13.23 177.351 56.89 231.261 112.59 257.461C117 246.301 125.65 235.141 141.51 226.301Z" fill="#DADCE0"/>
<path d="M59.59 335.761C66.82 326.521 77.47 319.911 87.43 315.341L58.43 311.961L70.29 312.861L66.29 312.461L75.17 313.221L89.73 314.321C97.4608 310.932 105.515 308.336 113.77 306.571C112.414 303.241 111.34 299.802 110.56 296.291L19.99 285.021C28.24 311.021 42.74 326.691 59.6 335.761H59.59Z" fill="#DADCE0"/>
<path d="M449.54 10.8014C387.34 28.3514 350.18 88.7414 350.18 88.7414C383.99 37.9014 449.54 10.8014 449.54 10.8014Z" fill="#F0EA4E"/>
<path d="M384.97 100.091C430.66 59.5814 500.97 50.1514 500.97 50.1514C436.35 51.2114 384.97 100.091 384.97 100.091Z" fill="#F0EA4E"/>
<path d="M163.77 449.311C162.84 455.501 161.55 461.521 170.77 467.751C181.1 474.751 181.1 478.591 193.77 478.331L196.35 477.331C196.35 477.331 170.54 467.261 170.54 460.811C170.56 456.851 171.26 452.924 172.61 449.201C172.61 449.201 170.54 458.491 175.96 462.871C181.38 467.251 206.16 478.101 206.16 478.101C206.16 478.101 213.9 482.491 221.39 481.461C228.88 480.431 233.52 477.591 236.39 471.651C238.12 468.021 239.09 464.021 240.99 461.511C231.24 453.391 209.68 440.031 209.68 440.031C209.68 440.031 210.45 438.101 218.97 440.421C227.49 442.741 246.2 459.001 246.2 459.001C252.39 459.261 261.2 447.901 261.2 447.901C266.37 435.261 262.5 425.451 262.5 425.451C262.5 425.451 246.69 406.551 240.69 402.451C235.31 398.811 231.4 398.971 231.4 398.971C231.4 398.971 245.22 389.581 266.11 422.511C269.24 419.671 273.48 414.941 274.88 409.161C277.21 399.611 267.66 398.321 260.17 382.581C254.09 369.781 245.64 363.331 239.91 361.351C239.91 361.351 232.62 358.701 222.3 361.801C211.98 364.901 178.03 386.801 178.03 386.801C141.39 350.151 99.38 363.121 99.38 363.121C122.01 345.661 152.23 360.121 168.78 370.801C175.26 365.801 181.08 358.371 185.71 344.931C188.63 336.461 187.29 323.841 186.82 320.241C178.38 326.361 163.6 332.391 140.82 326.731C140.82 326.731 176.69 322.341 195.82 311.251C193.459 314.673 190.514 317.652 187.12 320.051C189.155 324.373 190.456 329.003 190.97 333.751C202.37 330.231 211.69 322.341 211.69 322.341C208.747 326.981 204.896 330.977 200.37 334.091C199.64 348.491 203.26 358.301 205.46 362.831C207.027 361.978 208.673 361.128 210.4 360.281C229.76 350.731 243.91 355.361 243.91 355.361C260.19 361.081 270.11 386.751 273.37 390.741C276.86 395.001 283.44 401.191 281.37 410.221C280.42 414.381 277.88 418.221 275.42 421.221C290.1 424.271 303.42 424.651 311.05 422.781C334.27 417.101 342.53 363.941 342.53 363.941C346.66 396.461 324.47 423.301 324.47 423.301C428.64 448.521 415.77 324.121 415.77 324.121C423.51 353.031 414.22 390.711 414.22 390.711C443.13 378.321 440.03 339.611 440.03 339.611L431.77 347.861C445.77 331.231 446.14 310.381 445.83 303.631C442.73 307.161 440.23 309.951 439.04 311.141C434.59 315.591 419.84 310.321 409.43 306.611C416.96 318.161 403.23 338.861 393.28 327.721C382.44 315.631 367.77 315.861 349.92 320.511C332.07 325.161 295.33 333.401 279.46 326.441C266.94 320.961 269.52 279.441 269.52 279.441C258.115 274.085 247.748 266.752 238.9 257.781C238.914 264.677 237.927 271.539 235.97 278.151C236.15 269.418 235.437 260.689 233.84 252.101C233.41 240.481 221.28 229.271 221.28 229.271C208.99 218.801 184.21 209.461 145.28 233.761C97.28 263.701 121.54 322.541 121.54 322.541L115.86 312.731C115.86 312.731 84.37 316.861 65.27 342.161C46.17 367.461 55.47 394.811 55.47 394.811C55.47 394.811 48.24 404.611 50.82 409.811C53.4 415.011 73.82 420.261 73.82 420.261C73.82 420.261 80.99 454.071 139.82 449.421L163.77 449.311ZM215.43 391.221C219.95 388.001 218.14 382.711 218.14 382.711C223.56 397.421 206.14 395.871 205.37 405.161C204.751 411.262 203.319 417.251 201.11 422.971C201.11 422.971 200.72 418.711 200.72 406.711C200.72 394.711 210.03 395.101 215.45 391.221H215.43Z" fill="#F0EA4E"/>
<path d="M444.38 433.811C447.01 435.481 451.13 438.011 451.74 438.381C459.13 421.381 468.64 420.381 468.64 420.381C468.64 420.381 468.64 409.021 472.77 402.571C476.9 396.121 505.29 382.701 505.29 382.701C504 374.951 491.61 372.111 486.45 372.111C481.29 372.111 452.9 388.891 452.9 388.891C459.35 390.701 464.51 396.121 464.51 396.121C464.51 396.121 451.35 388.371 448.77 391.731C446.19 395.091 443.61 413.931 443.61 413.931C443.61 413.931 441.54 432.001 444.38 433.811Z" fill="#F0EA4E"/>
<path d="M431.57 146.051C429.9 150.831 427.57 155.141 427.04 157.651C425.52 164.451 428.45 209.831 459.54 230.971C461.63 222.521 470.47 177.511 431.57 146.051Z" fill="#070E0F"/>
<path d="M321.22 229.631C321.22 229.631 357.4 261.991 381.1 245.111C398.1 232.981 377.71 199.521 368.96 187.821C354.77 168.801 311.03 128.211 286.77 149.631C259.03 174.131 321.22 229.631 321.22 229.631Z" fill="#070E0F"/>
<path d="M318.69 426.321C312.49 431.491 292.36 429.421 292.36 429.421C284.904 429.029 277.495 428.009 270.21 426.371C269.87 426.671 269.65 426.841 269.65 426.841C270.327 430.44 270.505 434.114 270.18 437.761C280.36 436.821 291.18 435.031 303.46 437.681C303.46 437.681 322.04 448.001 335.46 445.681C346.52 443.771 349.34 436.771 349.99 434.371C326.93 435.371 318.69 426.321 318.69 426.321Z" fill="#F0EA4E"/>
<path d="M417.77 455.681L439.52 456.781L425.9 446.971L446.23 452.131L448.35 448.801C448.52 447.951 448.74 447.021 449.02 446.021C446.02 444.391 435.39 438.271 435.39 432.521V425.811C435.39 425.811 427.64 423.741 424.03 419.101L435.39 421.681L435.9 419.101C435.9 419.101 421.51 407.491 420.03 394.841C417.225 396.544 414.24 397.929 411.13 398.971C406.763 407.13 400.709 414.265 393.37 419.901C401.05 427.151 417.97 436.521 417.97 436.521C408.18 433.521 395.97 426.521 389.48 422.631C380.349 428.438 370.046 432.151 359.31 433.501C355.62 441.361 347.7 449.291 347.7 449.291C347.7 449.291 354.86 483.101 413.7 478.461L395.63 470.721L428.63 477.941L438.95 460.941L417.77 455.681Z" fill="#F0EA4E"/>
<path d="M209 485.561C202.543 483.92 195.818 483.621 189.24 484.681C196.148 488.468 203.392 491.605 210.88 494.051C238.73 503.331 266.43 493.991 284.88 484.411C272.67 487.281 261.11 482.201 261.11 482.201C251.54 484.201 241.51 483.481 235.44 482.721C229.38 486.151 220.44 488.181 209 485.561Z" fill="#F0EA4E"/>
<path d="M274.04 442.331C272.53 442.698 271.001 442.978 269.46 443.171C269.017 445.644 268.392 448.081 267.59 450.461C267.59 450.461 262.43 463.881 247.2 466.201C247.2 466.201 246.2 466.201 244.62 472.651C243.804 475.222 242.283 477.512 240.23 479.261C249.13 480.051 261.52 477.941 261.52 477.941C277.39 486.071 287.07 479.101 288.23 478.331C289.39 477.561 299.07 467.491 306.82 465.171C312.9 463.341 320.41 456.031 323.35 452.971C315.402 450.988 307.994 447.265 301.66 442.071C301.66 442.071 291.85 437.941 274.04 442.331Z" fill="#F0EA4E"/>
<path d="M510.19 389.681C505.03 389.681 480.77 399.741 476.9 412.131C473.03 424.521 483.35 421.941 489.55 426.321C495.75 430.701 509.93 442.071 509.93 442.071C509.93 442.071 500.13 438.971 497.8 437.941C495.47 436.911 482.32 427.611 470.45 428.391C460.39 429.041 456.09 447.391 455 453.051C455.285 454.132 455.8 455.138 456.51 456.001C461.41 461.941 487.22 467.101 492.38 470.461C497.54 473.821 499.87 475.101 499.87 475.101C499.87 475.101 456.25 461.681 449.77 462.461C443.29 463.241 438.67 469.171 437.9 476.141C437.13 483.111 434.28 489.811 444.61 496.781C454.94 503.751 454.93 507.621 467.61 507.371L470.19 506.371C470.19 506.371 444.38 496.311 444.38 489.851C444.399 485.892 445.096 481.966 446.44 478.241C446.44 478.241 444.38 487.531 449.8 491.921C455.22 496.311 480 507.151 480 507.151C480 507.151 487.74 511.531 495.22 510.501C502.7 509.471 507.35 506.631 510.22 500.691C513.09 494.751 513.84 487.791 520.03 488.051C526.22 488.311 535.03 476.951 535.03 476.951C540.19 464.301 536.32 454.501 536.32 454.501C536.32 454.501 546.39 447.791 548.71 438.241C551.03 428.691 541.48 427.401 534 411.651C526.52 395.901 515.35 389.681 510.19 389.681ZM465.35 457.231C465.35 448.521 475.61 433.421 475.61 433.421C474.486 442.162 470.931 450.412 465.35 457.231V457.231ZM492.26 417.741C492.26 417.741 496.32 400.521 511.26 395.291C511.23 395.291 496.51 416.391 492.26 417.741Z" fill="#F0EA4E"/>
<path d="M297.99 664.391C219.89 732.031 149.69 688.931 113.24 651.561C144.17 715.991 249.04 757.311 316.74 684.491C366.35 631.121 351.09 574.691 338.65 547.251C347.39 578.631 346.14 622.691 297.99 664.391Z" fill="#F0EA4E"/>
<path d="M300.77 719.261C310.47 721.111 330.09 724.171 349.71 723.141C341.907 714.797 334.737 705.882 328.26 696.471C320.121 705.225 310.88 712.886 300.77 719.261V719.261Z" fill="#DADCE0"/>
<path d="M178.77 616.121C121.32 593.911 106.95 549.121 103.45 524.761C97.59 545.701 88.65 606.011 162.99 646.851C254.21 696.971 312.29 599.851 318.14 582.381C323.6 566.051 329.9 547.291 317.96 517.891C317.349 526.496 316.082 535.04 314.17 543.451C309.66 562.341 260.1 647.561 178.77 616.121Z" fill="#F0EA4E"/>
<path d="M200.59 527.631C154.22 507.721 146.64 479.201 147.81 459.881C101.28 519.291 174.57 561.881 174.57 561.881C276.85 593.431 302.74 516.881 308.24 492.881C307.762 490.987 307.576 489.031 307.69 487.081C298.13 504.631 264.15 554.951 200.59 527.631Z" fill="#F0EA4E"/>
<path d="M330.912 173.258C333.567 160.368 325.27 147.765 312.38 145.11C299.489 142.455 286.887 150.752 284.232 163.642C281.576 176.532 289.873 189.134 302.764 191.79C315.654 194.445 328.256 186.148 330.912 173.258Z" fill="#DADCE0"/>
<path d="M331.809 189.331C332.938 185.248 330.545 181.022 326.462 179.893C322.38 178.763 318.154 181.156 317.024 185.239C315.894 189.321 318.288 193.547 322.371 194.677C326.453 195.807 330.679 193.413 331.809 189.331Z" fill="#DADCE0"/>
<path d="M433.44 165.131C433.434 168.048 434.271 170.905 435.85 173.357C437.429 175.81 439.683 177.754 442.341 178.956C444.998 180.158 447.947 180.567 450.831 180.133C453.716 179.7 456.413 178.442 458.6 176.511C453.2 166.211 444.8 156.391 440.9 152.081C438.629 153.42 436.746 155.327 435.437 157.616C434.129 159.905 433.441 162.495 433.44 165.131V165.131Z" fill="#DADCE0"/>
<path d="M452.44 179.961C452.433 181.041 452.756 182.097 453.364 182.989C453.973 183.881 454.84 184.566 455.848 184.953C456.856 185.34 457.958 185.41 459.007 185.154C460.057 184.898 461.003 184.329 461.72 183.521C460.594 180.454 459.213 177.487 457.59 174.651C456.21 174.693 454.9 175.271 453.938 176.262C452.977 177.253 452.439 178.58 452.44 179.961V179.961Z" fill="#DADCE0"/>
<g style="mix-blend-mode:multiply">
<path d="M65.77 334.631C67.1 334.631 92.1 321.301 121.77 321.961C121.77 321.961 139.1 329.301 158.44 327.961C177.78 326.621 187.1 317.631 187.1 317.631L189.1 336.301L196.1 335.301L203.44 365.961L220.77 359.961L244.1 360.301L252.44 366.301C252.44 366.301 221.44 351.631 221.77 325.301C222.1 298.971 233.77 287.631 241.77 285.301C249.77 282.971 260.77 294.301 260.77 294.301C260.77 294.301 251.1 347.631 296.77 341.961C342.44 336.291 352.77 317.961 394.77 325.301C394.77 325.301 377.44 311.301 365.44 314.301C353.44 317.301 306.1 326.301 293.1 325.631C280.1 324.961 276.1 315.301 276.1 314.301C276.1 313.301 271.1 278.301 271.1 278.301C271.1 278.301 270.77 251.301 285.44 250.961C285.44 250.961 223.44 231.961 231.1 171.301C231.1 171.301 219.1 201.631 223.1 225.631C223.1 225.631 235.44 237.631 235.1 253.961C234.76 270.291 215.1 291.961 188.1 300.961C188.1 300.961 203.1 285.631 206.44 278.631C206.44 278.631 164.44 308.961 128.44 308.961C128.44 308.961 126.1 293.301 128.44 282.961C128.44 282.961 122.1 298.301 121.44 307.631C121.44 307.631 112.1 293.631 112.77 281.961L116.1 311.631L87.77 318.961L65.77 334.631Z" fill="#EFBA50"/>
</g>
<g style="mix-blend-mode:multiply">
<path d="M50.1 396.631C50.1 396.631 71.77 404.301 74.1 404.961C74.1 404.961 74.77 390.631 76.77 383.631C76.77 383.631 111.44 431.301 143.77 428.301C176.1 425.301 183.44 419.961 183.44 419.961C183.44 419.961 168.77 446.631 172.1 454.301C175.43 461.971 215.1 474.301 221.1 473.631C227.1 472.961 233.77 454.301 233.77 454.301L219.1 443.301C219.1 443.301 234.77 448.961 242.1 447.631C249.43 446.301 260.1 425.631 259.1 419.961C258.1 414.291 244.1 400.301 244.1 400.301C244.1 400.301 255.77 406.961 262.1 406.961C268.43 406.961 270.44 398.301 270.44 398.301C270.44 398.301 276.44 402.631 276.44 406.961C276.44 411.291 265.77 427.301 265.77 427.301C265.77 427.301 265.77 444.631 264.77 447.301C263.77 449.971 251.44 458.631 251.44 459.631C251.44 460.631 242.44 464.301 242.44 464.301L232.77 481.301L217.1 485.631L196.77 482.961L180.77 481.631L154.1 454.961L160.44 451.631L164.44 444.631C164.44 444.631 87.77 452.301 76.1 417.961C76.1 417.961 46.44 410.631 46.1 407.631C45.76 404.631 50.1 396.631 50.1 396.631Z" fill="#EFBA50"/>
</g>
<g style="mix-blend-mode:multiply">
<g style="mix-blend-mode:multiply">
<path d="M266.61 444.041C262.36 445.401 261.23 446.041 266.61 444.041V444.041Z" fill="#EFBA50"/>
</g>
<g style="mix-blend-mode:multiply">
<path d="M266.61 444.041C271.307 442.533 276.093 441.317 280.94 440.401C276.846 440.664 272.821 441.586 269.02 443.131L266.61 444.041Z" fill="#EFBA50"/>
</g>
<g style="mix-blend-mode:multiply">
<path d="M318.52 446.381C315.062 445.057 311.45 444.18 307.77 443.771C315.77 447.251 318.77 449.631 318.77 449.631C318.77 449.631 315.52 463.881 306.27 464.881C297.02 465.881 288.02 458.631 293.52 449.131C293.52 449.131 285.52 462.881 276.52 458.381C267.52 453.881 267.52 446.881 267.52 446.881C267.52 446.881 260.52 458.381 259.77 458.381C259.02 458.381 249.27 461.881 251.27 462.381C251.58 462.461 252.46 462.631 253.74 462.841L246.02 465.131C246.02 465.131 237.52 478.881 237.02 479.881C236.52 480.881 241.77 482.381 241.77 482.381L260.27 481.131C260.27 481.131 278.02 483.881 279.02 483.881C280.02 483.881 291.52 480.131 291.52 480.131L298.63 470.131C299.785 470.591 301.032 470.772 302.27 470.661C308.52 469.911 327.77 452.661 327.77 452.661L318.52 446.381ZM277.02 475.881C268.02 475.131 270.77 468.131 270.77 468.131L261.52 477.881C261.52 477.881 257.77 478.631 255.02 472.381C253.68 469.381 256.3 466.131 259.35 463.631C267.96 464.631 281.17 465.391 288.02 461.881C288.02 461.881 292.53 467.241 297.43 469.591C292.96 471.981 283.64 476.431 277.02 475.881Z" fill="#EFBA50"/>
</g>
<g style="mix-blend-mode:multiply">
<path d="M280.94 440.401C291.63 439.931 295.02 446.401 295.02 446.401C298.57 443.711 303.43 443.341 307.8 443.791C305.41 442.741 302.6 441.611 299.27 440.401C294.55 438.631 287.54 439.191 280.94 440.401Z" fill="#EFBA50"/>
</g>
</g>
<g style="mix-blend-mode:multiply">
<path d="M160.44 451.631C160.44 451.631 98.77 510.631 122.77 641.631C146.77 772.631 303.77 712.631 303.77 712.631L329.77 691.631C329.77 691.631 210.77 675.631 201.77 591.631C192.77 507.631 255.77 480.631 255.77 480.631L230.27 482.631L219.52 483.881L202.27 481.631L184.02 483.631C184.02 483.631 153.85 468.631 160.44 451.631Z" fill="#EFBA50"/>
</g>
<g style="mix-blend-mode:multiply">
<path d="M439.77 466.961C439.77 466.961 404.1 472.631 385.44 456.961C385.44 456.961 387.1 465.631 389.77 468.301C389.77 468.301 373.77 459.631 378.77 439.301L392.77 432.301L417.44 437.301L402.77 426.301C402.77 426.301 423.1 415.301 424.1 402.301C425.1 389.301 422.44 390.631 422.44 390.631C422.44 390.631 430.77 350.961 416.44 325.961C416.44 325.961 445.44 325.961 447.44 309.631C449.44 293.301 446.44 297.631 446.44 297.631L430.1 309.961L401.77 300.301L388.44 294.301L340.77 299.631C340.77 299.631 392.77 294.631 402.1 308.301C411.43 321.971 401.1 327.961 401.1 327.961L415.85 326.211C415.85 326.211 420.02 363.881 409.77 393.881L390.52 418.631L370.02 426.881C370.02 426.881 353.77 428.381 354.52 428.381C355.27 428.381 343.02 453.881 343.02 453.881L363.27 474.381L399.77 481.381L423.27 482.881L433.27 478.631L439.77 466.961Z" fill="#EFBA50"/>
</g>
<g style="mix-blend-mode:multiply">
<path d="M443.77 388.381L440.77 434.881L452.02 443.881L468.77 423.631L472.02 409.631L507.27 383.131C507.27 383.131 486.77 384.631 466.27 400.131C466.27 400.131 466.27 392.631 449.02 389.631L443.77 388.381Z" fill="#EFBA50"/>
</g>
<g style="mix-blend-mode:multiply">
<path d="M435.77 472.631C435.77 472.631 435.52 485.881 443.52 489.131L445.77 478.131C448.667 483.6 452.715 488.376 457.635 492.131C462.555 495.886 468.23 498.53 474.27 499.881C495.27 504.881 510.27 503.131 512.77 497.131C515.27 491.131 510.02 484.131 502.52 480.881C495.02 477.631 526.27 485.881 533.27 478.881C540.27 471.881 532.02 490.631 530.27 491.381C528.52 492.131 520.52 493.381 519.27 494.631C516.571 498.071 514.067 501.66 511.77 505.381C510.77 507.131 494.02 514.881 494.02 514.881L474.77 509.881C474.77 509.881 461.27 513.631 458.77 513.131C456.27 512.631 438.27 495.381 437.77 493.881C437.27 492.381 428.77 482.631 435.77 472.631Z" fill="#EFBA50"/>
</g>
<g style="mix-blend-mode:multiply">
<path d="M473.1 420.461C473.05 419.621 492.94 415.131 494.44 416.131C495.94 417.131 508.1 440.461 508.1 440.461C508.1 440.461 473.44 426.131 473.1 420.461Z" fill="#EFBA50"/>
</g>
<g style="mix-blend-mode:multiply">
<path d="M277.52 408.131C277.52 408.131 308.02 416.381 320.02 403.881C332.02 391.381 342.52 364.631 342.52 364.631C342.52 364.631 336.52 403.381 330.02 410.381C323.52 417.381 389.02 411.631 397.27 399.881C402.476 392.382 407.154 384.53 411.27 376.381C411.27 376.381 409.27 399.381 398.02 411.631C386.77 423.881 355.77 430.381 355.77 430.381L351.52 438.381C351.52 438.381 325.27 437.381 320.27 431.631C315.27 425.881 309.77 434.381 298.77 436.131C287.77 437.881 268.77 439.131 268.77 439.131L269.02 423.881L277.52 408.131Z" fill="#EFBA50"/>
</g>
<g style="mix-blend-mode:multiply">
<path d="M169.77 207.301L132.44 216.631L77.1 174.631L117.1 219.301C117.1 219.301 46.44 218.631 7.10001 143.961C7.10001 143.961 18.44 227.301 117.77 262.631C117.77 262.631 119.1 228.631 178.44 217.301L169.77 207.301Z" fill="#DADCE0"/>
</g>
<g style="mix-blend-mode:multiply">
<path d="M101.1 292.961C101.1 292.961 99.77 307.631 97.1 311.631C94.43 315.631 60.77 312.301 60.77 312.301L72.44 317.301C72.44 317.301 24.77 314.301 14.44 282.961C14.44 282.961 35.1 333.961 62.77 337.301C62.77 337.301 86.44 317.631 101.77 312.631C117.1 307.631 116.1 308.961 116.1 308.961L112.77 292.631L101.1 292.961Z" fill="#DADCE0"/>
</g>
<g style="mix-blend-mode:multiply">
<path d="M263.02 75.8814C263.02 75.8814 244.02 96.3814 234.02 128.381C224.02 160.381 225.77 178.881 225.77 178.881L247.52 147.631C247.52 147.631 253.02 118.881 253.52 117.631C254.02 116.381 269.77 104.381 269.77 104.381L263.02 75.8814Z" fill="#DADCE0"/>
</g>
<path d="M272.54 165.761C272.63 166.431 272.74 167.091 272.87 167.761C272.875 167.851 272.875 167.941 272.87 168.031C273.346 170.342 273.981 172.618 274.77 174.841L274.83 175.031C275.7 177.457 276.702 179.834 277.83 182.151V182.151C278.22 182.951 278.63 183.761 279.05 184.571C285.15 196.271 294.51 208.171 303.83 218.121L303.89 218.181L305.51 219.891L305.69 220.071C306.2 220.611 306.69 221.141 307.23 221.661L307.4 221.831C309.107 223.571 310.793 225.238 312.46 226.831L312.55 226.911C313.04 227.391 313.55 227.851 314.03 228.311L314.37 228.621L315.58 229.731L316 230.101L317.13 231.101L317.54 231.461L318.71 232.461L319.02 232.731C320 233.558 320.95 234.348 321.87 235.101L322.23 235.391L323.23 236.161L323.68 236.511L324.51 237.151L324.98 237.511L325.75 238.081L326.19 238.401L326.98 238.961L327.34 239.211L328.41 239.931C351.99 255.331 374.36 257.351 385.2 243.411C396.04 229.471 387.77 203.411 372.29 184.181C356.81 164.951 316.54 118.631 282.47 141.861C282 142.181 281.55 142.521 281.11 142.861L280.71 143.171L279.81 143.921L279.42 144.271C279.05 144.611 278.69 144.961 278.35 145.271L278.02 145.621C277.79 145.871 277.57 146.121 277.35 146.381C277.13 146.641 277.06 146.731 276.92 146.911C276.749 147.113 276.589 147.323 276.44 147.541C276.3 147.721 276.16 147.911 276.03 148.101C275.79 148.441 275.57 148.791 275.35 149.101C275 149.691 274.67 150.291 274.35 150.901C274.35 150.961 274.3 151.021 274.27 151.071C274.02 151.601 273.8 152.141 273.6 152.681C273.6 152.801 273.52 152.911 273.47 153.031C273.28 153.571 273.11 154.131 272.96 154.691C272.948 154.753 272.931 154.813 272.91 154.871C272.582 156.164 272.364 157.482 272.26 158.811V159.131C272.26 159.721 272.2 160.311 272.19 160.911V161.181C272.194 162.61 272.291 164.036 272.48 165.451L272.54 165.761ZM286.77 149.631C311.03 128.211 354.77 168.801 368.96 187.851C377.71 199.551 398.13 233.011 381.1 245.141C357.4 262.021 321.22 229.631 321.22 229.631C321.22 229.631 259.03 174.131 286.77 149.631Z" fill="#070E0F"/>
<path d="M514.19 383.481C514.19 383.481 508.9 365.671 485.55 365.801C485.55 365.801 447.09 382.321 444.64 385.031C442.36 387.551 437.08 400.221 437.07 411.421L436.9 411.361C430.46 407.921 427.59 394.501 426.81 390.071C437.33 381.451 448.81 365.391 446.19 337.021C446.19 337.021 453.69 317.711 450.19 298.681C459.48 287.961 470.82 274.571 470.82 274.571C477.27 264.631 458.63 263.151 458.63 263.151L458.82 247.081C467.48 239.841 464.11 234.741 462.55 233.081C479.06 180.831 438.92 146.411 432.88 141.601C434.44 134.301 433.01 126.861 420.88 123.601C408.75 120.341 402.76 125.351 399.66 130.821C391.31 124.451 381.43 119.931 371.27 116.741C385.46 103.951 413.63 81.8514 447.77 71.6314C512.44 52.1914 523.43 45.9914 523.43 45.9914C434.54 35.7014 384.95 91.6314 367.96 115.741C358.737 113.167 349.308 111.394 339.78 110.441C349.69 94.9714 371.83 64.6314 403.6 45.1214C461.14 9.79139 470.19 0.991394 470.19 0.991394C379.48 14.1314 346.4 83.8614 337.03 110.171C327.104 109.251 317.126 109.037 307.17 109.531C298.61 103.691 285.7 98.2514 270.46 102.641L265.33 53.9814C265.33 53.9814 161.73 101.301 219.01 218.981C219.01 219.261 219.07 219.551 219.11 219.841C209.76 213.421 196.92 209.601 180.11 212.111L10.88 61.2414C10.88 61.2414 -48.46 199.701 110.09 265.631C108.241 274.215 108.085 283.078 109.63 291.721L7.27001 274.631C7.27001 274.631 19.52 319.631 56.16 340.791L55.95 341.151C40.95 367.481 47.18 392.261 47.18 392.261C47.18 392.261 41.5 408.261 41.5 411.361C41.5 414.461 45.36 423.621 68.02 426.561C72.8745 435.003 79.6087 442.213 87.7 447.631C96.4 453.471 116.05 455.851 131.9 456.811C77.09 514.631 72.41 621.191 120.77 681.301C159.01 728.861 224.62 752.171 281.56 729.101C350.23 742.881 378.11 728.961 378.11 728.961C360.35 718.881 346.75 701.401 337.4 685.891C338.32 684.711 339.24 683.521 340.15 682.291C341.43 680.631 342.63 678.931 343.79 677.221C344.12 676.741 344.46 676.311 344.79 675.821C406.48 584.331 321.26 507.481 314.95 497.201C314.08 495.781 312.63 492.631 312.63 492.631L309.77 478.971L307.26 470.971C307.752 470.811 308.257 470.697 308.77 470.631C313.49 469.901 324.01 464.401 329.45 454.141H329.87L340.13 452.141C340.13 452.141 345.77 466.071 361.53 476.631C377.29 487.191 428.89 486.441 428.89 486.441C429.15 490.831 435.09 499.601 447.74 509.441C460.39 519.281 461.41 509.701 482.84 514.601C504.27 519.501 516.9 508.151 518.45 501.701C520 495.251 521.03 495.241 521.03 495.241C536.26 492.921 541.42 479.501 541.42 479.501C541.42 479.501 545.81 467.501 543.49 455.891C543.49 455.891 553.04 448.271 555.1 439.241C557.16 430.211 550.58 424.011 547.1 419.751C543.62 415.491 532.52 386.451 514.19 383.481ZM500.97 50.1514C500.97 50.1514 430.66 59.5814 384.97 100.091C384.97 100.091 436.35 51.2114 500.97 50.1514ZM449.54 10.8014C449.54 10.8014 383.99 37.9014 350.18 88.7414C350.18 88.7414 387.34 28.3514 449.54 10.8014ZM443.61 413.941C443.61 413.941 446.19 395.101 448.77 391.741C451.35 388.381 464.51 396.131 464.51 396.131C464.51 396.131 459.35 390.711 452.9 388.901C452.9 388.901 481.29 372.121 486.45 372.121C491.61 372.121 504 374.961 505.29 382.711C505.29 382.711 476.9 396.131 472.77 402.581C468.64 409.031 468.64 420.391 468.64 420.391C468.64 420.391 459.13 421.391 451.74 438.391C451.13 438.021 447.01 435.491 444.38 433.821C441.54 432.001 443.61 413.941 443.61 413.941ZM431.61 146.051C470.51 177.511 461.67 222.521 459.61 230.971C428.52 209.831 425.61 164.451 427.11 157.651C427.59 155.141 429.9 150.831 431.57 146.051H431.61ZM318.42 119.451C316.889 117.671 315.235 116 313.47 114.451C321.31 114.941 328.47 115.651 334.99 116.451C334.27 118.851 333.99 120.201 333.99 120.201C333.99 120.201 334.68 118.891 336.04 116.591C345.398 117.809 354.665 119.647 363.78 122.091C362.1 124.771 361.27 126.341 361.27 126.341C361.27 126.341 362.6 124.891 365.11 122.461C386.95 128.651 395.46 136.091 397.11 137.651C396.857 138.745 396.673 139.854 396.56 140.971C395.949 145.733 395.685 150.532 395.77 155.331C395.77 148.881 402.48 122.331 419.51 128.491C436.54 134.651 422.35 155.131 422.35 155.131C420.25 203.251 450.41 236.591 458.02 238.691C456.754 241.764 454.479 244.315 451.57 245.921L452.34 267.861C452.34 267.861 461.63 267.861 464.21 271.731C466.79 275.601 439.44 301.671 433.21 304.731C426.98 307.791 408.77 300.631 408.77 300.631C408.77 300.631 337.77 266.311 316.07 261.631C294.37 256.951 295.94 313.251 295.94 313.251L310.94 309.641C353.23 297.501 377.68 296.501 387.03 296.721C393.28 299.721 398.61 302.181 402.31 303.811C405.79 307.001 409.56 312.011 407.15 317.511C403.08 326.801 398.24 323.701 393.99 320.221C389.74 316.741 379.47 306.281 349.66 313.641C319.85 321.001 296.66 327.571 283.46 318.281C270.26 308.991 276.3 261.701 276.88 260.211C278.03 257.211 278.81 252.081 291.59 253.211C291.59 253.211 273.59 238.501 270.3 274.121C270.3 274.121 251.47 265.751 238.16 248.521C237.29 243.227 235.361 238.163 232.49 233.631C230.893 231.143 229.08 228.8 227.07 226.631C225.774 221.739 225.148 216.693 225.21 211.631C225.72 169.301 246.37 153.301 246.37 153.301L250.69 161.561C250.69 161.561 242.5 132.401 261.86 114.331C281.22 96.2614 318.38 119.451 318.38 119.451H318.42ZM381.77 294.301C351.92 289.721 301.57 309.691 301.57 305.541C301.57 300.891 303.12 267.861 316.57 267.861C325.56 267.861 358.14 283.131 381.77 294.301ZM218.77 201.371C204.18 159.501 199.77 102.321 259.87 65.4614L264.55 104.821C262.579 105.708 260.663 106.71 258.81 107.821C237.85 120.491 243.77 147.631 243.77 147.631C243.77 147.631 221.54 165.521 218.77 201.371ZM15.77 77.6314L172.42 213.631C163.135 216.042 154.169 219.546 145.71 224.071L74.62 173.431L141.52 226.321C142.41 225.821 143.28 225.321 144.15 224.891L141.51 226.321C125.65 235.161 117 246.321 112.59 257.481C56.89 231.261 -13.23 177.351 15.77 77.6314ZM19.98 285.021L110.55 296.291C111.334 299.802 112.411 303.241 113.77 306.571C105.512 308.335 97.454 310.932 89.72 314.321L75.16 313.221L66.28 312.461L70.28 312.861L58.42 311.961L87.42 315.341C77.42 319.911 66.81 326.521 59.58 335.761C42.77 326.691 28.23 310.981 19.98 285.021ZM73.82 420.261C73.82 420.261 53.37 414.971 50.82 409.811C48.27 404.651 55.47 394.811 55.47 394.811C55.47 394.811 46.17 367.451 65.27 342.161C84.37 316.871 115.86 312.731 115.86 312.731L121.54 322.541C121.54 322.541 97.28 263.701 145.28 233.761C184.28 209.461 209.02 218.761 221.28 229.271C221.28 229.271 233.41 240.481 233.84 252.101C235.437 260.689 236.15 269.418 235.97 278.151C237.927 271.539 238.914 264.677 238.9 257.781C247.748 266.752 258.115 274.085 269.52 279.441C269.52 279.441 266.94 320.931 279.46 326.441C295.33 333.441 332.11 325.151 349.92 320.511C367.73 315.871 382.44 315.601 393.28 327.731C403.28 338.871 416.96 318.171 409.43 306.621C419.84 310.331 434.59 315.621 439.04 311.151C440.23 309.961 442.73 307.151 445.83 303.641C446.14 310.381 445.83 331.231 431.73 347.861L439.99 339.611C439.99 339.611 443.09 378.321 414.18 390.711C414.18 390.711 423.47 353.031 415.73 324.121C415.73 324.121 428.64 448.521 324.37 423.231C324.37 423.231 346.56 396.391 342.43 363.871C342.43 363.871 334.17 417.031 310.95 422.711C303.3 424.581 290 424.201 275.32 421.151C277.78 418.151 280.32 414.351 281.27 410.151C283.33 401.151 276.75 394.931 273.27 390.671C270.01 386.671 260.09 361.011 243.81 355.291C243.81 355.291 229.66 350.661 210.3 360.211C208.58 361.065 206.933 361.915 205.36 362.761C203.16 358.231 199.54 348.421 200.27 334.021C204.797 330.908 208.647 326.911 211.59 322.271C211.59 322.271 202.27 330.161 190.87 333.681C190.356 328.933 189.055 324.303 187.02 319.981C190.414 317.582 193.359 314.603 195.72 311.181C176.62 322.271 140.72 326.661 140.72 326.661C163.51 332.321 178.29 326.291 186.72 320.171C187.19 323.771 188.53 336.391 185.61 344.861C180.98 358.301 175.16 365.711 168.68 370.731C152.13 360.081 121.91 345.591 99.28 363.051C99.28 363.051 141.28 350.051 177.93 386.731C177.93 386.731 211.87 364.861 222.2 361.731C232.53 358.601 239.81 361.281 239.81 361.281C245.54 363.281 253.99 369.711 260.07 382.511C267.56 398.251 277.07 399.511 274.78 409.091C273.38 414.871 269.14 419.601 266.01 422.441C245.12 389.511 231.3 398.901 231.3 398.901C231.3 398.901 235.21 398.741 240.59 402.381C246.59 406.451 262.4 425.381 262.4 425.381C262.4 425.381 266.27 435.191 261.1 447.831C261.1 447.831 252.33 459.191 246.1 458.931C246.1 458.931 227.38 442.671 218.87 440.351C210.36 438.031 209.58 439.961 209.58 439.961C209.58 439.961 231.14 453.321 240.89 461.441C238.99 463.951 238.02 467.951 236.29 471.581C233.45 477.521 228.8 480.351 221.29 481.391C213.78 482.431 206.06 478.031 206.06 478.031C206.06 478.031 181.28 467.191 175.86 462.801C170.44 458.411 172.51 449.131 172.51 449.131C171.16 452.854 170.46 456.781 170.44 460.741C170.44 467.191 196.25 477.261 196.25 477.261L193.67 478.261C181.03 478.521 181.03 474.651 170.67 467.681C161.44 461.451 162.73 455.431 163.67 449.241L139.67 449.351C80.99 454.071 73.82 420.261 73.82 420.261ZM261.13 482.201C261.13 482.201 272.69 487.281 284.9 484.411C266.43 493.991 238.73 503.331 210.9 494.051C203.412 491.605 196.168 488.468 189.26 484.681C195.838 483.621 202.563 483.92 209.02 485.561C220.46 488.181 229.4 486.151 235.48 482.721C241.53 483.481 251.56 484.161 261.13 482.201ZM349.77 723.141C330.15 724.141 310.53 721.141 300.83 719.261C310.94 712.886 320.181 705.225 328.32 696.471C334.797 705.882 341.967 714.797 349.77 723.141V723.141ZM316.77 684.491C249.07 757.311 144.2 715.991 113.27 651.561C149.72 688.931 219.92 732.031 298.02 664.391C346.17 622.691 347.42 578.641 338.68 547.251C351.09 574.691 366.35 631.121 316.77 684.491ZM314.17 543.491C316.082 535.08 317.349 526.535 317.96 517.931C329.9 547.331 323.6 566.091 318.14 582.421C312.29 599.901 254.21 697.011 162.99 646.891C88.65 606.051 97.59 545.741 103.45 524.801C106.95 549.201 121.32 593.951 178.77 616.161C260.1 647.561 309.66 562.341 314.14 543.451L314.17 543.491ZM307.72 487.151C307.606 489.101 307.792 491.057 308.27 492.951C302.77 516.951 276.88 593.501 174.6 561.951C174.6 561.951 101.31 519.351 147.84 459.951C146.67 479.271 154.25 507.791 200.62 527.701C264.15 554.951 298.13 504.631 307.69 487.111L307.72 487.151ZM306.85 465.211C299.1 467.531 289.43 477.601 288.26 478.371C287.09 479.141 277.42 486.111 261.55 477.981C261.55 477.981 249.16 480.091 240.26 479.301C242.313 477.552 243.834 475.262 244.65 472.691C246.2 466.241 247.23 466.241 247.23 466.241C262.46 463.921 267.62 450.501 267.62 450.501C268.422 448.121 269.047 445.684 269.49 443.211C271.031 443.018 272.56 442.738 274.07 442.371C291.88 437.981 301.69 442.111 301.69 442.111C308.024 447.305 315.433 451.028 323.38 453.011C320.41 456.031 312.9 463.341 306.82 465.171L306.85 465.211ZM335.5 445.721C322.07 448.041 303.5 437.721 303.5 437.721C291.18 435.071 280.4 436.861 270.22 437.801C270.545 434.154 270.367 430.48 269.69 426.881C269.69 426.881 269.91 426.711 270.25 426.411C277.535 428.049 284.944 429.069 292.4 429.461C292.4 429.461 312.53 431.531 318.73 426.361C318.73 426.361 326.97 435.411 350.04 434.411C349.35 436.771 346.53 443.771 335.47 445.681L335.5 445.721ZM428.67 477.981L395.67 470.761L413.74 478.501C354.89 483.141 347.74 449.331 347.74 449.331C347.74 449.331 355.66 441.401 359.35 433.541C370.062 432.167 380.337 428.441 389.44 422.631C395.88 426.541 408.14 433.531 417.93 436.521C417.93 436.521 401.01 427.151 393.33 419.901C400.669 414.265 406.723 407.13 411.09 398.971C414.201 397.929 417.186 396.544 419.99 394.841C421.47 407.491 435.86 419.101 435.86 419.101L435.35 421.681L423.99 419.101C427.6 423.741 435.35 425.811 435.35 425.811V432.521C435.35 438.271 445.95 444.391 448.98 446.021C448.7 447.021 448.48 447.951 448.31 448.801L446.19 452.131L425.86 446.971L439.48 456.781L417.77 455.681L439 460.911L428.67 477.981ZM548.67 438.241C546.35 447.791 536.28 454.501 536.28 454.501C536.28 454.501 540.15 464.301 534.99 476.951C534.99 476.951 526.21 488.311 519.99 488.051C513.77 487.791 512.99 494.761 510.18 500.691C507.37 506.621 502.7 509.471 495.18 510.501C487.66 511.531 479.96 507.151 479.96 507.151C479.96 507.151 455.18 496.311 449.76 491.921C444.34 487.531 446.4 478.241 446.4 478.241C445.056 481.966 444.36 485.892 444.34 489.851C444.34 496.311 470.15 506.371 470.15 506.371L467.57 507.371C454.92 507.621 454.92 503.751 444.57 496.781C434.22 489.811 437.08 483.101 437.86 476.141C438.64 469.181 443.28 463.231 449.73 462.461C456.18 461.691 499.8 475.101 499.8 475.101C499.8 475.101 497.48 473.811 492.31 470.461C487.14 467.111 461.31 461.941 456.44 456.001C455.73 455.138 455.215 454.132 454.93 453.051C456.02 447.421 460.32 429.051 470.38 428.391C482.25 427.611 495.38 436.911 497.73 437.941C500.08 438.971 509.86 442.071 509.86 442.071C509.86 442.071 495.77 430.711 489.55 426.321C483.33 421.931 473.03 424.521 476.9 412.131C480.77 399.741 505.03 389.681 510.19 389.681C515.35 389.681 526.45 395.871 533.94 411.611C541.43 427.351 550.97 428.631 548.65 438.201L548.67 438.241Z" fill="#070E0F"/>
<path d="M398.65 258.051C398.65 258.051 419.29 225.051 394 187.851C394 187.851 413.61 227.631 398.65 258.051Z" fill="#070E0F"/>
<path d="M475.61 433.421C475.61 433.421 465.35 448.521 465.35 457.231C470.931 450.412 474.486 442.162 475.61 433.421V433.421Z" fill="#070E0F"/>
<path d="M492.26 417.741C496.51 416.391 511.26 395.291 511.26 395.291C496.32 400.521 492.26 417.741 492.26 417.741Z" fill="#070E0F"/>
<path d="M205.39 405.161C206.16 395.871 223.58 397.421 218.16 382.711C218.16 382.711 219.97 388.001 215.45 391.221C210.03 395.101 200.74 394.711 200.74 406.711C200.74 418.711 201.13 422.971 201.13 422.971C203.338 417.251 204.771 411.262 205.39 405.161Z" fill="#070E0F"/>
<path d="M608.943 219.162L608.943 203.975L631.421 180.401L631.421 145.972L642.496 145.972L642.496 191.092C642.496 193.431 642.934 195.624 643.811 197.671C644.725 199.717 645.95 201.49 647.485 202.989C649.02 204.524 650.811 205.73 652.857 206.607C654.941 207.484 657.152 207.923 659.491 207.923C661.83 207.923 664.023 207.484 666.07 206.607C668.117 205.73 669.889 204.524 671.388 202.989C672.923 201.49 674.129 199.717 675.006 197.671C675.884 195.624 676.322 193.431 676.322 191.092L676.322 139.667L608.943 139.667L608.943 128.428L687.561 128.428L687.561 191.092C687.561 194.966 686.812 198.603 685.313 202.002C683.851 205.401 681.841 208.361 679.283 210.883C676.761 213.442 673.8 215.452 670.401 216.914C667.002 218.412 663.365 219.162 659.491 219.162C655.982 219.162 652.656 218.559 649.513 217.353C646.406 216.146 643.61 214.483 641.125 212.364C638.676 210.244 636.63 207.74 634.985 204.853C633.377 202.002 632.298 198.913 631.75 195.587L608.943 219.162ZM648.252 339.229C642.806 339.229 637.689 338.37 632.901 336.652C628.113 334.934 623.947 332.485 620.402 329.305C616.856 326.162 614.06 322.379 612.013 317.957C609.967 313.534 608.943 308.619 608.943 303.209L608.943 277.058C608.943 271.612 609.967 266.66 612.014 262.201C614.06 257.742 616.856 253.922 620.402 250.743C623.947 247.599 628.114 245.169 632.901 243.451C637.689 241.733 642.806 240.874 648.252 240.874C653.662 240.874 658.742 241.733 663.493 243.451C668.281 245.169 672.448 247.599 675.993 250.743C679.575 253.922 682.389 257.742 684.436 262.201C686.519 266.66 687.561 271.612 687.561 277.058L687.561 303.209C687.561 308.619 686.519 313.534 684.436 317.957C682.389 322.379 679.575 326.162 675.993 329.305C672.448 332.485 668.281 334.934 663.493 336.652C658.742 338.37 653.662 339.229 648.252 339.229ZM648.252 327.99C652.126 327.99 655.763 327.423 659.162 326.29C662.561 325.157 665.522 323.512 668.044 321.356C670.602 319.236 672.612 316.641 674.074 313.571C675.573 310.537 676.322 307.083 676.322 303.209L676.322 277.058C676.322 273.184 675.573 269.693 674.074 266.587C672.612 263.517 670.602 260.903 668.044 258.747C665.522 256.627 662.561 254.982 659.162 253.813C655.763 252.68 652.126 252.113 648.252 252.113C644.378 252.113 640.723 252.68 637.287 253.813C633.888 254.982 630.91 256.627 628.351 258.747C625.829 260.903 623.837 263.517 622.375 266.587C620.913 269.693 620.182 273.184 620.182 277.058L620.182 303.209C620.182 307.083 620.913 310.537 622.375 313.571C623.837 316.641 625.829 319.236 628.351 321.356C630.91 323.512 633.888 325.157 637.287 326.29C640.723 327.423 644.378 327.99 648.252 327.99ZM608.943 376.621L608.943 365.382L687.561 365.382L687.561 376.621L608.943 376.621ZM631.421 499.868C628.278 499.868 625.336 499.264 622.595 498.058C619.89 496.889 617.514 495.281 615.467 493.234C613.457 491.224 611.867 488.848 610.698 486.107C609.528 483.365 608.943 480.46 608.943 477.39L608.943 424.155L620.182 424.155L620.182 477.39C620.182 478.925 620.475 480.368 621.059 481.721C621.644 483.11 622.448 484.316 623.472 485.339C624.495 486.363 625.683 487.167 627.035 487.751C628.424 488.336 629.886 488.629 631.421 488.629C632.956 488.629 634.4 488.336 635.752 487.751C637.105 487.167 638.292 486.363 639.316 485.339C640.339 484.316 641.143 483.11 641.728 481.721C642.313 480.368 642.605 478.925 642.605 477.39L642.605 424.155L653.844 424.155L653.844 466.151C653.844 467.686 654.137 469.13 654.721 470.482C655.306 471.871 656.11 473.077 657.134 474.1C658.157 475.124 659.345 475.928 660.697 476.512C662.086 477.097 663.548 477.39 665.083 477.39C666.618 477.39 668.062 477.097 669.414 476.512C670.803 475.928 672.009 475.124 673.033 474.1C674.056 473.077 674.86 471.871 675.445 470.482C676.03 469.13 676.322 467.686 676.322 466.151L676.322 418.563L608.943 418.563L608.943 407.325L687.561 407.325L687.561 466.151C687.561 469.221 686.958 472.127 685.752 474.868C684.582 477.609 682.974 479.985 680.927 481.995C678.917 484.042 676.541 485.65 673.8 486.819C671.059 488.026 668.153 488.629 665.083 488.629C662.707 488.629 660.46 488.281 658.34 487.587C656.257 486.892 654.319 485.96 652.528 484.791C651.761 486.984 650.683 488.994 649.294 490.822C647.905 492.686 646.297 494.275 644.469 495.591C642.642 496.944 640.613 497.985 638.384 498.716C636.191 499.484 633.87 499.868 631.421 499.868ZM608.943 606.119L608.943 524.815L687.561 524.815L687.561 606.119L676.322 606.119L676.322 536.054L620.182 536.054L620.182 606.119L608.943 606.119ZM642.605 596.579L642.605 541.646L653.844 541.646L653.844 596.579L642.605 596.579ZM608.943 713.192L608.943 631.888L687.561 631.888L687.561 713.192L676.322 713.192L676.322 643.127L620.182 643.127L620.182 713.192L608.943 713.192ZM642.605 703.653L642.605 648.719L653.844 648.719L653.844 703.653L642.605 703.653Z" fill="#F0EA4E"/>
<path d="M594.031 118.998L594.031 717.688L591.783 717.688L591.783 118.998L594.031 118.998Z" fill="#F0EA4E"/>
<path d="M608.943 219.162L604.872 219.162L604.872 229.226L611.869 221.993L608.943 219.162ZM608.943 203.975L605.997 201.166L604.872 202.346L604.872 203.975L608.943 203.975ZM631.421 180.401L634.368 183.211L635.493 182.031L635.493 180.401L631.421 180.401ZM631.421 145.972L631.421 141.9L627.35 141.9L627.35 145.972L631.421 145.972ZM642.496 145.972L646.567 145.972L646.567 141.9L642.496 141.9L642.496 145.972ZM643.811 197.671L640.069 199.275L640.081 199.303L640.094 199.33L643.811 197.671ZM647.485 202.989L650.364 200.11L650.346 200.092L650.329 200.075L647.485 202.989ZM652.857 206.607L651.254 210.349L651.266 210.354L651.278 210.359L652.857 206.607ZM666.07 206.607L667.674 210.349L666.07 206.607ZM671.388 202.989L668.544 200.075L668.509 200.11L668.475 200.145L671.388 202.989ZM676.322 139.667L680.394 139.667L680.394 135.595L676.322 135.595L676.322 139.667ZM608.943 139.667L604.872 139.667L604.872 143.738L608.943 143.738L608.943 139.667ZM608.943 128.428L608.943 124.357L604.872 124.357L604.872 128.428L608.943 128.428ZM687.561 128.428L691.632 128.428L691.632 124.357L687.561 124.357L687.561 128.428ZM685.313 202.002L681.588 200.359L681.58 200.376L681.573 200.393L685.313 202.002ZM679.283 210.883L676.425 207.984L676.404 208.004L676.383 208.025L679.283 210.883ZM670.401 216.914L668.792 213.174L668.776 213.181L668.759 213.189L670.401 216.914ZM649.513 217.353L648.04 221.148L648.047 221.151L648.055 221.154L649.513 217.353ZM641.125 212.364L638.46 215.442L638.472 215.452L638.483 215.461L641.125 212.364ZM634.985 204.853L631.439 206.853L631.443 206.86L631.447 206.868L634.985 204.853ZM631.75 195.587L635.767 194.925L634.451 186.94L628.824 192.757L631.75 195.587ZM613.015 219.162L613.015 203.975L604.872 203.975L604.872 219.162L613.015 219.162ZM611.89 206.785L634.368 183.211L628.475 177.592L605.997 201.166L611.89 206.785ZM635.493 180.401L635.493 145.972L627.35 145.972L627.35 180.401L635.493 180.401ZM631.421 150.043L642.496 150.043L642.496 141.9L631.421 141.9L631.421 150.043ZM638.424 145.972L638.424 191.092L646.567 191.092L646.567 145.972L638.424 145.972ZM638.424 191.092C638.424 193.954 638.964 196.696 640.069 199.275L647.554 196.067C646.905 194.552 646.567 192.908 646.567 191.092L638.424 191.092ZM640.094 199.33C641.207 201.825 642.721 204.029 644.641 205.902L650.329 200.075C649.178 198.952 648.243 197.61 647.529 196.011L640.094 199.33ZM644.606 205.868C646.517 207.778 648.743 209.273 651.254 210.349L654.461 202.865C652.878 202.186 651.523 201.269 650.364 200.11L644.606 205.868ZM651.278 210.359C653.878 211.454 656.629 211.994 659.491 211.994L659.491 203.851C657.675 203.851 656.003 203.514 654.437 202.855L651.278 210.359ZM659.491 211.994C662.353 211.994 665.095 211.455 667.674 210.349L664.466 202.865C662.952 203.514 661.307 203.851 659.491 203.851L659.491 211.994ZM667.674 210.349C670.193 209.27 672.415 207.765 674.301 205.833L668.475 200.145C667.364 201.283 666.041 202.19 664.466 202.865L667.674 210.349ZM674.232 205.902C676.164 204.016 677.669 201.793 678.749 199.275L671.264 196.067C670.589 197.642 669.682 198.964 668.544 200.075L674.232 205.902ZM678.749 199.275C679.854 196.696 680.394 193.954 680.394 191.092L672.251 191.092C672.251 192.908 671.913 194.552 671.264 196.067L678.749 199.275ZM680.394 191.092L680.394 139.667L672.251 139.667L672.251 191.092L680.394 191.092ZM676.322 135.595L608.943 135.595L608.943 143.738L676.322 143.738L676.322 135.595ZM613.015 139.667L613.015 128.428L604.872 128.428L604.872 139.667L613.015 139.667ZM608.943 132.499L687.561 132.499L687.561 124.357L608.943 124.357L608.943 132.499ZM683.49 128.428L683.49 191.092L691.632 191.092L691.632 128.428L683.49 128.428ZM683.49 191.092C683.49 194.425 682.848 197.5 681.588 200.359L689.039 203.644C690.775 199.705 691.632 195.507 691.632 191.092L683.49 191.092ZM681.573 200.393C680.313 203.324 678.597 205.842 676.425 207.984L682.141 213.783C685.085 210.881 687.39 207.478 689.053 203.61L681.573 200.393ZM676.383 208.025C674.242 210.198 671.723 211.913 668.792 213.174L672.01 220.654C675.877 218.991 679.28 216.686 682.182 213.741L676.383 208.025ZM668.759 213.189C665.899 214.449 662.825 215.09 659.491 215.09L659.491 223.233C663.906 223.233 668.105 222.376 672.044 220.639L668.759 213.189ZM659.491 215.09C656.46 215.09 653.63 214.571 650.972 213.551L648.055 221.154C651.683 222.546 655.505 223.233 659.491 223.233L659.491 215.09ZM650.987 213.557C648.297 212.513 645.898 211.083 643.767 209.266L638.483 215.461C641.323 217.884 644.516 219.78 648.04 221.148L650.987 213.557ZM643.79 209.285C641.699 207.476 639.945 205.334 638.522 202.838L631.447 206.868C633.314 210.146 635.653 213.012 638.46 215.442L643.79 209.285ZM638.531 202.852C637.164 200.429 636.24 197.795 635.767 194.925L627.733 196.25C628.356 200.032 629.589 203.575 631.439 206.853L638.531 202.852ZM628.824 192.757L606.017 216.331L611.869 221.993L634.676 198.418L628.824 192.757ZM620.402 329.305L623.12 326.275L623.111 326.267L623.103 326.259L620.402 329.305ZM620.402 250.743L617.701 247.696L617.692 247.704L617.683 247.712L620.402 250.743ZM663.493 243.451L662.109 247.28L662.118 247.283L663.493 243.451ZM675.993 250.743L678.696 247.698L678.694 247.696L675.993 250.743ZM684.436 262.201L680.736 263.899L680.742 263.912L680.747 263.924L684.436 262.201ZM684.436 317.957L680.753 316.222L680.747 316.234L680.741 316.247L684.436 317.957ZM675.993 329.305L673.308 326.245L673.291 326.26L673.275 326.275L675.993 329.305ZM663.493 336.652L662.118 332.82L662.109 332.823L663.493 336.652ZM668.044 321.356L665.446 318.221L665.422 318.241L665.398 318.262L668.044 321.356ZM674.074 313.571L670.424 311.768L670.411 311.794L670.398 311.821L674.074 313.571ZM674.074 266.587L670.398 268.337L670.403 268.346L670.407 268.356L674.074 266.587ZM668.044 258.747L670.668 255.634L670.663 255.63L668.044 258.747ZM659.162 253.813L660.487 249.963L660.468 249.957L660.45 249.95L659.162 253.813ZM637.287 253.813L636.012 249.946L635.987 249.954L635.963 249.963L637.287 253.813ZM628.351 258.747L625.753 255.612L625.729 255.632L625.705 255.653L628.351 258.747ZM622.375 266.587L618.699 264.836L618.695 264.845L618.691 264.853L622.375 266.587ZM622.375 313.571L626.051 311.821L626.047 311.812L626.043 311.803L622.375 313.571ZM628.351 321.356L630.975 318.243L630.971 318.239L628.351 321.356ZM637.287 326.29L636 330.153L636.012 330.157L637.287 326.29ZM648.252 335.157C643.242 335.157 638.593 334.368 634.276 332.82L631.527 340.484C636.786 342.371 642.371 343.3 648.252 343.3L648.252 335.157ZM634.276 332.82C629.95 331.267 626.247 329.08 623.12 326.275L617.683 332.336C621.646 335.891 626.277 338.601 631.527 340.484L634.276 332.82ZM623.103 326.259C619.989 323.499 617.526 320.175 615.708 316.247L608.319 319.667C610.594 324.584 613.723 328.826 617.701 332.352L623.103 326.259ZM615.708 316.247C613.936 312.417 613.015 308.093 613.015 303.209L604.872 303.209C604.872 309.144 605.998 314.652 608.319 319.667L615.708 316.247ZM613.015 303.209L613.015 277.058L604.872 277.058L604.872 303.209L613.015 303.209ZM613.015 277.058C613.015 272.134 613.937 267.769 615.714 263.899L608.313 260.502C605.996 265.55 604.872 271.091 604.872 277.058L613.015 277.058ZM615.714 263.899C617.535 259.931 620.002 256.57 623.12 253.773L617.683 247.712C613.71 251.275 610.585 255.552 608.313 260.502L615.714 263.899ZM623.103 253.789C626.232 251.014 629.94 248.839 634.276 247.283L631.527 239.619C626.287 241.499 621.662 244.184 617.701 247.696L623.103 253.789ZM634.276 247.283C638.593 245.734 643.242 244.946 648.252 244.946L648.252 236.803C642.371 236.803 636.786 237.732 631.527 239.619L634.276 247.283ZM648.252 244.946C653.223 244.946 657.832 245.734 662.109 247.28L664.878 239.622C659.652 237.733 654.1 236.803 648.252 236.803L648.252 244.946ZM662.118 247.283C666.455 248.839 670.163 251.014 673.292 253.789L678.694 247.696C674.733 244.184 670.108 241.499 664.868 239.619L662.118 247.283ZM673.29 253.787C676.439 256.583 678.919 259.94 680.736 263.899L688.136 260.502C685.86 255.543 682.711 251.262 678.696 247.698L673.29 253.787ZM680.747 263.924C682.553 267.789 683.49 272.144 683.49 277.058L691.632 277.058C691.632 271.081 690.486 265.531 688.125 260.477L680.747 263.924ZM683.49 277.058L683.49 303.209L691.632 303.209L691.632 277.058L683.49 277.058ZM683.49 303.209C683.49 308.083 682.554 312.398 680.753 316.222L688.119 319.692C690.484 314.671 691.632 309.154 691.632 303.209L683.49 303.209ZM680.741 316.247C678.928 320.166 676.453 323.485 673.308 326.245L678.679 332.366C682.697 328.839 685.851 324.593 688.131 319.667L680.741 316.247ZM673.275 326.275C670.147 329.08 666.445 331.267 662.118 332.82L664.868 340.484C670.117 338.601 674.748 335.891 678.712 332.336L673.275 326.275ZM662.109 332.823C657.832 334.369 653.223 335.157 648.252 335.157L648.252 343.3C654.1 343.3 659.652 342.37 664.878 340.481L662.109 332.823ZM648.252 332.061C652.528 332.061 656.603 331.435 660.45 330.153L657.875 322.428C654.923 323.412 651.724 323.918 648.252 323.918L648.252 332.061ZM660.45 330.153C664.307 328.867 667.738 326.974 670.69 324.45L665.398 318.262C663.306 320.05 660.816 321.447 657.875 322.428L660.45 330.153ZM670.641 324.491C673.666 321.984 676.04 318.913 677.75 315.321L670.398 311.821C669.185 314.369 667.538 316.488 665.446 318.221L670.641 324.491ZM677.725 315.374C679.538 311.704 680.393 307.618 680.393 303.209L672.251 303.209C672.251 306.549 671.608 309.371 670.424 311.768L677.725 315.374ZM680.393 303.209L680.393 277.058L672.251 277.058L672.251 303.209L680.393 303.209ZM680.393 277.058C680.393 272.647 679.537 268.541 677.741 264.818L670.407 268.356C671.609 270.846 672.251 273.72 672.251 277.058L680.393 277.058ZM677.75 264.836C676.043 261.251 673.677 258.171 670.668 255.634L665.42 261.86C667.527 263.636 669.182 265.782 670.398 268.337L677.75 264.836ZM670.663 255.63C667.725 253.16 664.316 251.28 660.487 249.963L657.838 257.663C660.807 258.684 663.319 260.094 665.424 261.864L670.663 255.63ZM660.45 249.95C656.603 248.668 652.529 248.042 648.252 248.042L648.252 256.185C651.724 256.185 654.923 256.691 657.875 257.675L660.45 249.95ZM648.252 248.042C643.976 248.042 639.888 248.668 636.012 249.946L638.563 257.679C641.558 256.691 644.78 256.185 648.252 256.185L648.252 248.042ZM635.963 249.963C632.138 251.279 628.72 253.154 625.753 255.612L630.949 261.882C633.099 260.1 635.639 258.686 638.612 257.663L635.963 249.963ZM625.705 255.653C622.739 258.189 620.4 261.264 618.699 264.836L626.051 268.337C627.274 265.769 628.92 263.618 630.997 261.841L625.705 255.653ZM618.691 264.853C616.943 268.568 616.111 272.662 616.111 277.058L624.254 277.058C624.254 273.706 624.883 270.819 626.059 268.32L618.691 264.853ZM616.111 277.058L616.111 303.209L624.254 303.209L624.254 277.058L616.111 277.058ZM616.111 303.209C616.111 307.603 616.943 311.676 618.708 315.339L626.043 311.803C624.884 309.399 624.254 306.564 624.254 303.209L616.111 303.209ZM618.699 315.321C620.403 318.9 622.749 321.966 625.731 324.473L630.971 318.239C628.909 316.506 627.271 314.382 626.051 311.821L618.699 315.321ZM625.727 324.469C628.707 326.981 632.147 328.868 636 330.153L638.575 322.428C635.63 321.446 633.112 320.044 630.975 318.243L625.727 324.469ZM636.012 330.157C639.888 331.435 643.975 332.061 648.252 332.061L648.252 323.918C644.78 323.918 641.558 323.412 638.563 322.424L636.012 330.157ZM608.943 376.621L604.872 376.621L604.872 380.692L608.943 380.692L608.943 376.621ZM608.943 365.382L608.943 361.311L604.872 361.311L604.872 365.382L608.943 365.382ZM687.561 365.382L691.632 365.382L691.632 361.311L687.561 361.311L687.561 365.382ZM687.561 376.621L687.561 380.692L691.632 380.692L691.632 376.621L687.561 376.621ZM613.015 376.621L613.015 365.382L604.872 365.382L604.872 376.621L613.015 376.621ZM608.943 369.453L687.561 369.453L687.561 361.311L608.943 361.311L608.943 369.453ZM683.49 365.382L683.49 376.621L691.632 376.621L691.632 365.382L683.49 365.382ZM687.561 372.549L608.943 372.549L608.943 380.692L687.561 380.692L687.561 372.549ZM622.595 498.058L624.234 494.332L624.222 494.327L624.211 494.321L622.595 498.058ZM608.943 424.155L608.943 420.084L604.872 420.084L604.872 424.155L608.943 424.155ZM620.182 424.155L624.254 424.155L624.254 420.084L620.182 420.084L620.182 424.155ZM621.059 481.721L624.812 480.141L624.804 480.123L624.796 480.105L621.059 481.721ZM623.472 485.339L620.593 488.218L623.472 485.339ZM627.035 487.751L625.419 491.488L625.437 491.496L625.455 491.504L627.035 487.751ZM635.752 487.751L637.368 491.488L635.752 487.751ZM641.728 481.721L637.991 480.105L637.983 480.123L637.976 480.141L641.728 481.721ZM642.605 424.155L642.605 420.084L638.534 420.084L638.534 424.155L642.605 424.155ZM653.844 424.155L657.916 424.155L657.916 420.084L653.844 420.084L653.844 424.155ZM654.721 470.482L658.474 468.902L658.466 468.884L658.458 468.866L654.721 470.482ZM660.697 476.512L659.081 480.249L659.099 480.257L659.117 480.265L660.697 476.512ZM669.414 476.512L667.834 472.76L667.816 472.768L667.798 472.776L669.414 476.512ZM673.033 474.1L675.912 476.979L673.033 474.1ZM675.445 470.482L671.708 468.866L671.7 468.884L671.693 468.902L675.445 470.482ZM676.322 418.563L680.393 418.563L680.393 414.492L676.322 414.492L676.322 418.563ZM608.943 418.563L604.872 418.563L604.872 422.635L608.943 422.635L608.943 418.563ZM608.943 407.325L608.943 403.253L604.872 403.253L604.872 407.325L608.943 407.325ZM687.561 407.325L691.632 407.325L691.632 403.253L687.561 403.253L687.561 407.325ZM685.752 474.868L682.025 473.228L682.016 473.249L682.007 473.27L685.752 474.868ZM680.927 481.995L678.074 479.09L678.048 479.116L678.023 479.142L680.927 481.995ZM673.8 486.819L672.202 483.075L672.181 483.084L672.161 483.093L673.8 486.819ZM658.34 487.587L657.052 491.449L657.062 491.453L657.072 491.456L658.34 487.587ZM652.528 484.791L654.755 481.382L650.403 478.54L648.686 483.446L652.528 484.791ZM649.294 490.822L646.052 488.358L646.041 488.373L646.029 488.389L649.294 490.822ZM644.469 495.591L642.09 492.287L642.069 492.303L642.048 492.319L644.469 495.591ZM638.384 498.716L637.115 494.847L637.077 494.86L637.039 494.873L638.384 498.716ZM631.421 495.796C628.814 495.796 626.433 495.299 624.234 494.332L620.955 501.785C624.238 503.23 627.742 503.939 631.421 503.939L631.421 495.796ZM624.211 494.321C621.968 493.352 620.023 492.032 618.346 490.355L612.589 496.113C615.005 498.529 617.811 500.426 620.979 501.795L624.211 494.321ZM618.346 490.355C616.722 488.73 615.418 486.795 614.442 484.509L606.953 487.704C608.317 490.901 610.193 493.717 612.589 496.113L618.346 490.355ZM614.442 484.509C613.495 482.288 613.015 479.928 613.015 477.39L604.872 477.39C604.872 480.992 605.561 484.443 606.953 487.704L614.442 484.509ZM613.015 477.39L613.015 424.155L604.872 424.155L604.872 477.39L613.015 477.39ZM608.943 428.227L620.182 428.227L620.182 420.084L608.943 420.084L608.943 428.227ZM616.111 424.155L616.111 477.39L624.254 477.39L624.254 424.155L616.111 424.155ZM616.111 477.39C616.111 479.457 616.508 481.453 617.323 483.337L624.796 480.105C624.441 479.284 624.254 478.393 624.254 477.39L616.111 477.39ZM617.307 483.301C618.088 485.155 619.182 486.807 620.593 488.218L626.351 482.46C625.715 481.825 625.201 481.065 624.812 480.141L617.307 483.301ZM620.593 488.218C621.986 489.611 623.604 490.703 625.419 491.488L628.651 484.014C627.762 483.63 627.004 483.114 626.351 482.46L620.593 488.218ZM625.455 491.504C627.354 492.303 629.354 492.7 631.421 492.7L631.421 484.557C630.418 484.557 629.494 484.369 628.615 483.999L625.455 491.504ZM631.421 492.7C633.488 492.7 635.484 492.303 637.368 491.488L634.136 484.014C633.316 484.369 632.424 484.557 631.421 484.557L631.421 492.7ZM637.368 491.488C639.183 490.703 640.802 489.611 642.195 488.218L636.437 482.46C635.783 483.114 635.026 483.63 634.136 484.014L637.368 491.488ZM642.195 488.218C643.606 486.807 644.7 485.155 645.48 483.301L637.976 480.141C637.587 481.065 637.073 481.825 636.437 482.46L642.195 488.218ZM645.465 483.337C646.28 481.453 646.677 479.457 646.677 477.39L638.534 477.39C638.534 478.393 638.346 479.284 637.991 480.105L645.465 483.337ZM646.677 477.39L646.677 424.155L638.534 424.155L638.534 477.39L646.677 477.39ZM642.605 428.227L653.844 428.227L653.844 420.084L642.605 420.084L642.605 428.227ZM649.773 424.155L649.773 466.151L657.916 466.151L657.916 424.155L649.773 424.155ZM649.773 466.151C649.773 468.218 650.17 470.214 650.984 472.098L658.458 468.866C658.103 468.045 657.916 467.154 657.916 466.151L649.773 466.151ZM650.969 472.062C651.75 473.916 652.844 475.568 654.255 476.979L660.013 471.221C659.377 470.586 658.863 469.826 658.474 468.902L650.969 472.062ZM654.255 476.979C655.648 478.372 657.266 479.465 659.081 480.249L662.313 472.776C661.424 472.391 660.666 471.875 660.013 471.221L654.255 476.979ZM659.117 480.265C661.016 481.064 663.016 481.461 665.083 481.461L665.083 473.318C664.08 473.318 663.156 473.13 662.277 472.76L659.117 480.265ZM665.083 481.461C667.15 481.461 669.146 481.064 671.03 480.249L667.798 472.776C666.978 473.13 666.086 473.318 665.083 473.318L665.083 481.461ZM670.994 480.265C672.848 479.484 674.5 478.39 675.912 476.979L670.154 471.221C669.518 471.857 668.758 472.371 667.834 472.76L670.994 480.265ZM675.912 476.979C677.323 475.568 678.417 473.916 679.197 472.062L671.693 468.902C671.304 469.826 670.789 470.586 670.154 471.221L675.912 476.979ZM679.182 472.098C679.997 470.214 680.393 468.218 680.393 466.151L672.251 466.151C672.251 467.154 672.063 468.045 671.708 468.866L679.182 472.098ZM680.393 466.151L680.393 418.563L672.251 418.563L672.251 466.151L680.393 466.151ZM676.322 414.492L608.943 414.492L608.943 422.635L676.322 422.635L676.322 414.492ZM613.015 418.563L613.015 407.325L604.872 407.325L604.872 418.563L613.015 418.563ZM608.943 411.396L687.561 411.396L687.561 403.253L608.943 403.253L608.943 411.396ZM683.49 407.325L683.49 466.151L691.632 466.151L691.632 407.325L683.49 407.325ZM683.49 466.151C683.49 468.671 682.998 471.017 682.025 473.228L689.478 476.507C690.918 473.236 691.632 469.771 691.632 466.151L683.49 466.151ZM682.007 473.27C681.038 475.541 679.727 477.468 678.074 479.09L683.78 484.9C686.222 482.502 688.126 479.677 689.497 476.466L682.007 473.27ZM678.023 479.142C676.4 480.794 674.473 482.106 672.202 483.075L675.398 490.564C678.61 489.194 681.434 487.289 683.832 484.848L678.023 479.142ZM672.161 483.093C669.949 484.066 667.603 484.557 665.083 484.557L665.083 492.7C668.703 492.7 672.169 491.985 675.44 490.546L672.161 483.093ZM665.083 484.557C663.11 484.557 661.292 484.27 659.607 483.718L657.072 491.456C659.627 492.293 662.305 492.7 665.083 492.7L665.083 484.557ZM659.627 483.724C657.866 483.137 656.246 482.356 654.755 481.382L650.302 488.2C652.393 489.565 654.647 490.648 657.052 491.449L659.627 483.724ZM648.686 483.446C648.057 485.242 647.18 486.874 646.052 488.358L652.535 493.285C654.185 491.114 655.465 488.726 656.371 486.136L648.686 483.446ZM646.029 488.389C644.881 489.93 643.569 491.223 642.09 492.287L646.848 498.895C649.025 497.328 650.929 495.441 652.559 493.254L646.029 488.389ZM642.048 492.319C640.581 493.403 638.944 494.248 637.115 494.847L639.652 502.585C642.282 501.723 644.702 500.484 646.891 498.864L642.048 492.319ZM637.039 494.873C635.301 495.482 633.437 495.796 631.421 495.796L631.421 503.939C634.303 503.939 637.081 503.486 639.729 502.559L637.039 494.873ZM608.943 606.119L604.872 606.119L604.872 610.19L608.943 610.19L608.943 606.119ZM608.943 524.815L608.943 520.743L604.872 520.743L604.872 524.815L608.943 524.815ZM687.561 524.815L691.632 524.815L691.632 520.743L687.561 520.743L687.561 524.815ZM687.561 606.119L687.561 610.19L691.632 610.19L691.632 606.119L687.561 606.119ZM676.322 606.119L672.251 606.119L672.251 610.19L676.322 610.19L676.322 606.119ZM676.322 536.054L680.393 536.054L680.393 531.982L676.322 531.982L676.322 536.054ZM620.182 536.054L620.182 531.982L616.111 531.982L616.111 536.054L620.182 536.054ZM620.182 606.119L620.182 610.19L624.254 610.19L624.254 606.119L620.182 606.119ZM642.605 596.579L638.534 596.579L638.534 600.651L642.605 600.651L642.605 596.579ZM642.605 541.646L642.605 537.574L638.534 537.574L638.534 541.646L642.605 541.646ZM653.844 541.646L657.916 541.646L657.916 537.574L653.844 537.574L653.844 541.646ZM653.844 596.579L653.844 600.651L657.916 600.651L657.916 596.579L653.844 596.579ZM613.015 606.119L613.015 524.815L604.872 524.815L604.872 606.119L613.015 606.119ZM608.943 528.886L687.561 528.886L687.561 520.743L608.943 520.743L608.943 528.886ZM683.49 524.815L683.49 606.119L691.632 606.119L691.632 524.815L683.49 524.815ZM687.561 602.047L676.322 602.047L676.322 610.19L687.561 610.19L687.561 602.047ZM680.393 606.119L680.393 536.054L672.251 536.054L672.251 606.119L680.393 606.119ZM676.322 531.982L620.182 531.982L620.182 540.125L676.322 540.125L676.322 531.982ZM616.111 536.054L616.111 606.119L624.254 606.119L624.254 536.054L616.111 536.054ZM620.182 602.047L608.943 602.047L608.943 610.19L620.182 610.19L620.182 602.047ZM646.677 596.579L646.677 541.646L638.534 541.646L638.534 596.579L646.677 596.579ZM642.605 545.717L653.844 545.717L653.844 537.574L642.605 537.574L642.605 545.717ZM649.773 541.646L649.773 596.579L657.916 596.579L657.916 541.646L649.773 541.646ZM653.844 592.508L642.605 592.508L642.605 600.651L653.844 600.651L653.844 592.508ZM608.943 713.192L604.872 713.192L604.872 717.264L608.943 717.264L608.943 713.192ZM608.943 631.888L608.943 627.817L604.872 627.817L604.872 631.888L608.943 631.888ZM687.561 631.888L691.632 631.888L691.632 627.817L687.561 627.817L687.561 631.888ZM687.561 713.192L687.561 717.264L691.632 717.264L691.632 713.192L687.561 713.192ZM676.322 713.192L672.251 713.192L672.251 717.264L676.322 717.264L676.322 713.192ZM676.322 643.127L680.393 643.127L680.393 639.056L676.322 639.056L676.322 643.127ZM620.182 643.127L620.182 639.056L616.111 639.056L616.111 643.127L620.182 643.127ZM620.182 713.192L620.182 717.264L624.254 717.264L624.254 713.192L620.182 713.192ZM642.605 703.653L638.534 703.653L638.534 707.724L642.605 707.724L642.605 703.653ZM642.605 648.719L642.605 644.648L638.534 644.648L638.534 648.719L642.605 648.719ZM653.844 648.719L657.916 648.719L657.916 644.648L653.844 644.648L653.844 648.719ZM653.844 703.653L653.844 707.724L657.916 707.724L657.916 703.653L653.844 703.653ZM613.015 713.192L613.015 631.888L604.872 631.888L604.872 713.192L613.015 713.192ZM608.943 635.96L687.561 635.96L687.561 627.817L608.943 627.817L608.943 635.96ZM683.49 631.888L683.49 713.192L691.632 713.192L691.632 631.888L683.49 631.888ZM687.561 709.121L676.322 709.121L676.322 717.264L687.561 717.264L687.561 709.121ZM680.393 713.192L680.393 643.127L672.251 643.127L672.251 713.192L680.393 713.192ZM676.322 639.056L620.182 639.056L620.182 647.199L676.322 647.199L676.322 639.056ZM616.111 643.127L616.111 713.192L624.254 713.192L624.254 643.127L616.111 643.127ZM620.182 709.121L608.943 709.121L608.943 717.264L620.182 717.264L620.182 709.121ZM646.677 703.653L646.677 648.719L638.534 648.719L638.534 703.653L646.677 703.653ZM642.605 652.791L653.844 652.791L653.844 644.648L642.605 644.648L642.605 652.791ZM649.773 648.719L649.773 703.653L657.916 703.653L657.916 648.719L649.773 648.719ZM653.844 699.582L642.605 699.582L642.605 707.724L653.844 707.724L653.844 699.582Z" fill="black"/>
<path d="M594.031 118.998L598.103 118.998L598.103 114.927L594.031 114.927L594.031 118.998ZM594.031 717.688L594.031 721.759L598.103 721.759L598.103 717.688L594.031 717.688ZM591.783 717.688L587.712 717.688L587.712 721.759L591.783 721.759L591.783 717.688ZM591.783 118.998L591.783 114.927L587.712 114.927L587.712 118.998L591.783 118.998ZM589.96 118.998L589.96 717.688L598.103 717.688L598.103 118.998L589.96 118.998ZM594.031 713.617L591.783 713.617L591.783 721.759L594.031 721.759L594.031 713.617ZM595.855 717.688L595.855 118.998L587.712 118.998L587.712 717.688L595.855 717.688ZM591.783 123.07L594.031 123.07L594.031 114.927L591.783 114.927L591.783 123.07Z" fill="black"/>
</svg>
