<svg width="717" height="739" viewBox="0 0 717 739" fill="none" xmlns="http://www.w3.org/2000/svg">
<path d="M244.341 147.631C244.341 147.631 238.401 120.531 259.341 107.881C261.194 106.77 263.111 105.768 265.081 104.881L260.401 65.5214C200.271 102.381 204.711 159.521 219.301 201.431C222.111 165.521 244.341 147.631 244.341 147.631Z" fill="#DADCE0"/>
<path d="M464.821 271.731C462.241 267.861 452.951 267.861 452.951 267.861L452.181 245.921C455.091 244.315 457.366 241.764 458.631 238.691C451.021 236.591 420.861 203.251 422.961 155.131C422.961 155.131 437.151 134.681 420.121 128.491C403.091 122.301 396.341 148.881 396.341 155.331C396.208 150.546 396.422 145.756 396.981 141.001C397.094 139.884 397.278 138.775 397.531 137.681C395.921 136.121 387.411 128.681 365.531 122.491C363.021 124.921 361.691 126.371 361.691 126.371C361.691 126.371 362.521 124.801 364.201 122.121C355.112 119.683 345.872 117.849 336.541 116.631C335.181 118.931 334.491 120.241 334.491 120.241C334.491 120.241 334.801 118.891 335.491 116.491C328.961 115.641 321.811 114.931 313.971 114.491C315.736 116.04 317.391 117.711 318.921 119.491C318.921 119.491 281.751 96.2714 262.401 114.331C243.051 132.391 251.231 161.561 251.231 161.561L246.911 153.301C246.911 153.301 226.341 169.261 225.781 211.631C225.71 216.729 226.335 221.813 227.641 226.741C229.651 228.91 231.465 231.253 233.061 233.741C235.915 238.277 237.826 243.341 238.681 248.631C251.991 265.861 270.821 274.231 270.821 274.231C274.091 238.611 292.111 253.321 292.111 253.321C279.331 252.161 278.551 257.321 277.401 260.321C276.821 261.811 270.821 309.101 283.981 318.391C297.141 327.681 320.371 321.101 350.181 313.751C379.991 306.401 390.251 316.841 394.511 320.331C398.771 323.821 403.601 326.911 407.671 317.621C410.081 312.121 406.311 307.111 402.831 303.921C399.131 302.291 393.831 299.791 387.551 296.831C378.201 296.611 353.751 297.611 311.461 309.751L296.461 313.361C296.461 313.361 294.911 257.101 316.591 261.741C338.271 266.381 409.341 300.631 409.341 300.631C409.341 300.631 427.671 307.861 433.861 304.761C440.051 301.661 467.401 275.631 464.821 271.731ZM385.821 243.461C374.981 257.401 352.611 255.381 329.031 239.981L327.961 239.261L327.601 239.011L326.811 238.451L326.371 238.131L325.601 237.561L325.131 237.201L324.301 236.561L323.851 236.211L322.851 235.441L322.491 235.151C321.571 234.405 320.621 233.615 319.641 232.781L319.331 232.511L318.161 231.511L317.751 231.151L316.621 230.151L316.201 229.781L315.001 228.631L314.661 228.321C314.171 227.861 313.661 227.401 313.181 226.921L313.091 226.841C311.431 225.268 309.745 223.601 308.031 221.841L307.861 221.671C307.351 221.151 306.861 220.671 306.321 220.081L306.141 219.901L304.521 218.191L304.461 218.131C295.141 208.181 285.781 196.281 279.681 184.581C279.261 183.771 278.851 182.961 278.461 182.161C277.333 179.844 276.332 177.467 275.461 175.041L275.401 174.851C274.612 172.628 273.977 170.352 273.501 168.041C273.506 167.951 273.506 167.861 273.501 167.771C273.371 167.091 273.261 166.431 273.171 165.771V165.591C272.982 164.176 272.885 162.75 272.881 161.321V161.051C272.881 160.451 272.881 159.861 272.951 159.271V158.951C273.056 157.622 273.273 156.304 273.601 155.011C273.623 154.953 273.639 154.893 273.651 154.831C273.801 154.271 273.971 153.711 274.161 153.171C274.211 153.051 274.251 152.941 274.291 152.821C274.491 152.281 274.711 151.741 274.961 151.211C274.961 151.211 275.011 151.101 275.041 151.041C275.331 150.431 275.661 149.831 276.041 149.241C276.261 148.891 276.481 148.541 276.721 148.241C276.851 148.051 276.991 147.861 277.131 147.681C277.28 147.463 277.44 147.253 277.611 147.051C277.751 146.871 277.891 146.691 278.041 146.521C278.191 146.351 278.481 146.011 278.711 145.761L279.041 145.411C279.381 145.061 279.741 144.711 280.111 144.411L280.501 144.061L281.401 143.311L281.801 143.001C282.241 142.661 282.691 142.321 283.161 142.001C317.231 118.771 357.401 165.001 372.981 184.321C388.561 203.641 396.641 229.531 385.801 243.461H385.821ZM399.241 258.051C414.241 227.591 394.591 187.851 394.591 187.851C419.861 225.011 399.221 258.051 399.221 258.051H399.241Z" fill="#9F44FB"/>
<path d="M302.171 305.541C302.171 309.691 352.521 289.721 382.371 294.301C358.711 283.131 326.131 267.861 317.141 267.861C303.721 267.861 302.171 300.891 302.171 305.541Z" fill="white"/>
<path d="M142.081 226.301L144.721 224.871C143.851 225.331 142.981 225.801 142.091 226.301L75.1912 173.411L146.281 224.051C154.741 219.533 163.707 216.035 172.991 213.631L16.3412 77.6314C-12.6588 177.351 57.4612 231.261 113.161 257.461C117.571 246.301 126.221 235.141 142.081 226.301Z" fill="#DADCE0"/>
<path d="M60.1613 335.761C67.3913 326.521 78.0413 319.911 88.0013 315.341L59.0013 311.961L70.8613 312.861L66.8613 312.461L75.7413 313.221L90.3013 314.321C98.0321 310.932 106.087 308.336 114.341 306.571C112.985 303.241 111.912 299.802 111.131 296.291L20.5613 285.021C28.8113 311.021 43.3113 326.691 60.1713 335.761H60.1613Z" fill="#DADCE0"/>
<path d="M450.111 10.8014C387.911 28.3514 350.751 88.7414 350.751 88.7414C384.561 37.9014 450.111 10.8014 450.111 10.8014Z" fill="#9F44FB"/>
<path d="M385.541 100.091C431.231 59.5814 501.541 50.1514 501.541 50.1514C436.921 51.2114 385.541 100.091 385.541 100.091Z" fill="#9F44FB"/>
<path d="M164.341 449.311C163.411 455.501 162.121 461.521 171.341 467.751C181.671 474.751 181.671 478.591 194.341 478.331L196.921 477.331C196.921 477.331 171.111 467.261 171.111 460.811C171.131 456.851 171.831 452.924 173.181 449.201C173.181 449.201 171.111 458.491 176.531 462.871C181.951 467.251 206.731 478.101 206.731 478.101C206.731 478.101 214.471 482.491 221.961 481.461C229.451 480.431 234.091 477.591 236.961 471.651C238.691 468.021 239.661 464.021 241.561 461.511C231.811 453.391 210.251 440.031 210.251 440.031C210.251 440.031 211.021 438.101 219.541 440.421C228.061 442.741 246.771 459.001 246.771 459.001C252.961 459.261 261.771 447.901 261.771 447.901C266.941 435.261 263.071 425.451 263.071 425.451C263.071 425.451 247.261 406.551 241.261 402.451C235.881 398.811 231.971 398.971 231.971 398.971C231.971 398.971 245.791 389.581 266.681 422.511C269.811 419.671 274.051 414.941 275.451 409.161C277.781 399.611 268.231 398.321 260.741 382.581C254.661 369.781 246.211 363.331 240.481 361.351C240.481 361.351 233.191 358.701 222.871 361.801C212.551 364.901 178.601 386.801 178.601 386.801C141.961 350.151 99.9512 363.121 99.9512 363.121C122.581 345.661 152.801 360.121 169.351 370.801C175.831 365.801 181.651 358.371 186.281 344.931C189.201 336.461 187.861 323.841 187.391 320.241C178.951 326.361 164.171 332.391 141.391 326.731C141.391 326.731 177.261 322.341 196.391 311.251C194.031 314.673 191.086 317.652 187.691 320.051C189.727 324.373 191.028 329.003 191.541 333.751C202.941 330.231 212.261 322.341 212.261 322.341C209.318 326.981 205.468 330.977 200.941 334.091C200.211 348.491 203.831 358.301 206.031 362.831C207.598 361.978 209.245 361.128 210.971 360.281C230.331 350.731 244.481 355.361 244.481 355.361C260.761 361.081 270.681 386.751 273.941 390.741C277.431 395.001 284.011 401.191 281.941 410.221C280.991 414.381 278.451 418.221 275.991 421.221C290.671 424.271 303.991 424.651 311.621 422.781C334.841 417.101 343.101 363.941 343.101 363.941C347.231 396.461 325.041 423.301 325.041 423.301C429.211 448.521 416.341 324.121 416.341 324.121C424.081 353.031 414.791 390.711 414.791 390.711C443.701 378.321 440.601 339.611 440.601 339.611L432.341 347.861C446.341 331.231 446.711 310.381 446.401 303.631C443.301 307.161 440.801 309.951 439.611 311.141C435.161 315.591 420.411 310.321 410.001 306.611C417.531 318.161 403.801 338.861 393.851 327.721C383.011 315.631 368.341 315.861 350.491 320.511C332.641 325.161 295.901 333.401 280.031 326.441C267.511 320.961 270.091 279.441 270.091 279.441C258.686 274.085 248.319 266.752 239.471 257.781C239.485 264.677 238.498 271.539 236.541 278.151C236.722 269.418 236.008 260.689 234.411 252.101C233.981 240.481 221.851 229.271 221.851 229.271C209.561 218.801 184.781 209.461 145.851 233.761C97.8512 263.701 122.111 322.541 122.111 322.541L116.431 312.731C116.431 312.731 84.9412 316.861 65.8412 342.161C46.7412 367.461 56.0412 394.811 56.0412 394.811C56.0412 394.811 48.8112 404.611 51.3912 409.811C53.9712 415.011 74.3912 420.261 74.3912 420.261C74.3912 420.261 81.5612 454.071 140.391 449.421L164.341 449.311ZM216.001 391.221C220.521 388.001 218.711 382.711 218.711 382.711C224.131 397.421 206.711 395.871 205.941 405.161C205.322 411.262 203.89 417.251 201.681 422.971C201.681 422.971 201.291 418.711 201.291 406.711C201.291 394.711 210.601 395.101 216.021 391.221H216.001Z" fill="#9F44FB"/>
<path d="M444.951 433.811C447.581 435.481 451.701 438.011 452.311 438.381C459.701 421.381 469.211 420.381 469.211 420.381C469.211 420.381 469.211 409.021 473.341 402.571C477.471 396.121 505.861 382.701 505.861 382.701C504.571 374.951 492.181 372.111 487.021 372.111C481.861 372.111 453.471 388.891 453.471 388.891C459.921 390.701 465.081 396.121 465.081 396.121C465.081 396.121 451.921 388.371 449.341 391.731C446.761 395.091 444.181 413.931 444.181 413.931C444.181 413.931 442.111 432.001 444.951 433.811Z" fill="#9F44FB"/>
<path d="M432.141 146.051C430.471 150.831 428.141 155.141 427.611 157.651C426.091 164.451 429.021 209.831 460.111 230.971C462.201 222.521 471.041 177.511 432.141 146.051Z" fill="#070E0F"/>
<path d="M321.791 229.631C321.791 229.631 357.971 261.991 381.671 245.111C398.671 232.981 378.281 199.521 369.531 187.821C355.341 168.801 311.601 128.211 287.341 149.631C259.601 174.131 321.791 229.631 321.791 229.631Z" fill="#070E0F"/>
<path d="M319.261 426.321C313.061 431.491 292.931 429.421 292.931 429.421C285.475 429.029 278.066 428.009 270.781 426.371C270.441 426.671 270.221 426.841 270.221 426.841C270.898 430.44 271.076 434.114 270.751 437.761C280.931 436.821 291.751 435.031 304.031 437.681C304.031 437.681 322.611 448.001 336.031 445.681C347.091 443.771 349.911 436.771 350.561 434.371C327.501 435.371 319.261 426.321 319.261 426.321Z" fill="#9F44FB"/>
<path d="M418.341 455.681L440.091 456.781L426.471 446.971L446.801 452.131L448.921 448.801C449.091 447.951 449.311 447.021 449.591 446.021C446.591 444.391 435.961 438.271 435.961 432.521V425.811C435.961 425.811 428.211 423.741 424.601 419.101L435.961 421.681L436.471 419.101C436.471 419.101 422.081 407.491 420.601 394.841C417.797 396.544 414.812 397.929 411.701 398.971C407.334 407.13 401.28 414.265 393.941 419.901C401.621 427.151 418.541 436.521 418.541 436.521C408.751 433.521 396.541 426.521 390.051 422.631C380.921 428.438 370.617 432.151 359.881 433.501C356.191 441.361 348.271 449.291 348.271 449.291C348.271 449.291 355.431 483.101 414.271 478.461L396.201 470.721L429.201 477.941L439.521 460.941L418.341 455.681Z" fill="#9F44FB"/>
<path d="M209.571 485.561C203.114 483.92 196.389 483.621 189.811 484.681C196.719 488.468 203.963 491.605 211.451 494.051C239.301 503.331 267.001 493.991 285.451 484.411C273.241 487.281 261.681 482.201 261.681 482.201C252.111 484.201 242.081 483.481 236.011 482.721C229.951 486.151 221.011 488.181 209.571 485.561Z" fill="#9F44FB"/>
<path d="M274.611 442.331C273.102 442.698 271.573 442.978 270.031 443.171C269.588 445.644 268.963 448.081 268.161 450.461C268.161 450.461 263.001 463.881 247.771 466.201C247.771 466.201 246.771 466.201 245.191 472.651C244.375 475.222 242.854 477.512 240.801 479.261C249.701 480.051 262.091 477.941 262.091 477.941C277.961 486.071 287.641 479.101 288.801 478.331C289.961 477.561 299.641 467.491 307.391 465.171C313.471 463.341 320.981 456.031 323.921 452.971C315.974 450.988 308.566 447.265 302.231 442.071C302.231 442.071 292.421 437.941 274.611 442.331Z" fill="#9F44FB"/>
<path d="M510.761 389.681C505.601 389.681 481.341 399.741 477.471 412.131C473.601 424.521 483.921 421.941 490.121 426.321C496.321 430.701 510.501 442.071 510.501 442.071C510.501 442.071 500.701 438.971 498.371 437.941C496.041 436.911 482.891 427.611 471.021 428.391C460.961 429.041 456.661 447.391 455.571 453.051C455.856 454.132 456.371 455.138 457.081 456.001C461.981 461.941 487.791 467.101 492.951 470.461C498.111 473.821 500.441 475.101 500.441 475.101C500.441 475.101 456.821 461.681 450.341 462.461C443.861 463.241 439.241 469.171 438.471 476.141C437.701 483.111 434.851 489.811 445.181 496.781C455.511 503.751 455.501 507.621 468.181 507.371L470.761 506.371C470.761 506.371 444.951 496.311 444.951 489.851C444.971 485.892 445.667 481.966 447.011 478.241C447.011 478.241 444.951 487.531 450.371 491.921C455.791 496.311 480.571 507.151 480.571 507.151C480.571 507.151 488.311 511.531 495.791 510.501C503.271 509.471 507.921 506.631 510.791 500.691C513.661 494.751 514.411 487.791 520.601 488.051C526.791 488.311 535.601 476.951 535.601 476.951C540.761 464.301 536.891 454.501 536.891 454.501C536.891 454.501 546.961 447.791 549.281 438.241C551.601 428.691 542.051 427.401 534.571 411.651C527.091 395.901 515.921 389.681 510.761 389.681ZM465.921 457.231C465.921 448.521 476.181 433.421 476.181 433.421C475.058 442.162 471.503 450.412 465.921 457.231V457.231ZM492.831 417.741C492.831 417.741 496.891 400.521 511.831 395.291C511.801 395.291 497.081 416.391 492.831 417.741Z" fill="#9F44FB"/>
<path d="M298.561 664.391C220.461 732.031 150.261 688.931 113.811 651.561C144.741 715.991 249.611 757.311 317.311 684.491C366.921 631.121 351.661 574.691 339.221 547.251C347.961 578.631 346.711 622.691 298.561 664.391Z" fill="#9F44FB"/>
<path d="M301.341 719.261C311.041 721.111 330.661 724.171 350.281 723.141C342.478 714.797 335.308 705.882 328.831 696.471C320.692 705.225 311.452 712.886 301.341 719.261V719.261Z" fill="#DADCE0"/>
<path d="M179.341 616.121C121.891 593.911 107.521 549.121 104.021 524.761C98.1612 545.701 89.2212 606.011 163.561 646.851C254.781 696.971 312.861 599.851 318.711 582.381C324.171 566.051 330.471 547.291 318.531 517.891C317.921 526.496 316.654 535.04 314.741 543.451C310.231 562.341 260.671 647.561 179.341 616.121Z" fill="#9F44FB"/>
<path d="M201.161 527.631C154.791 507.721 147.211 479.201 148.381 459.881C101.851 519.291 175.141 561.881 175.141 561.881C277.421 593.431 303.311 516.881 308.811 492.881C308.333 490.987 308.148 489.031 308.261 487.081C298.701 504.631 264.721 554.951 201.161 527.631Z" fill="#9F44FB"/>
<path d="M331.483 173.258C334.138 160.368 325.841 147.765 312.951 145.11C300.061 142.455 287.458 150.752 284.803 163.642C282.148 176.532 290.445 189.134 303.335 191.79C316.225 194.445 328.827 186.148 331.483 173.258Z" fill="#DADCE0"/>
<path d="M332.38 189.331C333.51 185.248 331.116 181.022 327.034 179.893C322.951 178.763 318.726 181.156 317.596 185.239C316.466 189.321 318.859 193.547 322.942 194.677C327.024 195.807 331.25 193.413 332.38 189.331Z" fill="#DADCE0"/>
<path d="M434.011 165.131C434.005 168.048 434.842 170.905 436.421 173.357C438 175.81 440.254 177.754 442.912 178.956C445.57 180.158 448.518 180.567 451.402 180.133C454.287 179.7 456.985 178.442 459.171 176.511C453.771 166.211 445.371 156.391 441.471 152.081C439.2 153.42 437.317 155.327 436.009 157.616C434.7 159.905 434.012 162.495 434.011 165.131V165.131Z" fill="#DADCE0"/>
<path d="M453.011 179.961C453.004 181.041 453.327 182.097 453.936 182.989C454.545 183.881 455.411 184.566 456.419 184.953C457.427 185.34 458.53 185.41 459.579 185.154C460.628 184.898 461.574 184.329 462.291 183.521C461.166 180.454 459.784 177.487 458.161 174.651C456.781 174.693 455.471 175.271 454.51 176.262C453.548 177.253 453.011 178.58 453.011 179.961V179.961Z" fill="#DADCE0"/>
<g style="mix-blend-mode:multiply">
<path d="M66.3412 334.631C67.6712 334.631 92.6712 321.301 122.341 321.961C122.341 321.961 139.671 329.301 159.011 327.961C178.351 326.621 187.671 317.631 187.671 317.631L189.671 336.301L196.671 335.301L204.011 365.961L221.341 359.961L244.671 360.301L253.011 366.301C253.011 366.301 222.011 351.631 222.341 325.301C222.671 298.971 234.341 287.631 242.341 285.301C250.341 282.971 261.341 294.301 261.341 294.301C261.341 294.301 251.671 347.631 297.341 341.961C343.011 336.291 353.341 317.961 395.341 325.301C395.341 325.301 378.011 311.301 366.011 314.301C354.011 317.301 306.671 326.301 293.671 325.631C280.671 324.961 276.671 315.301 276.671 314.301C276.671 313.301 271.671 278.301 271.671 278.301C271.671 278.301 271.341 251.301 286.011 250.961C286.011 250.961 224.011 231.961 231.671 171.301C231.671 171.301 219.671 201.631 223.671 225.631C223.671 225.631 236.011 237.631 235.671 253.961C235.331 270.291 215.671 291.961 188.671 300.961C188.671 300.961 203.671 285.631 207.011 278.631C207.011 278.631 165.011 308.961 129.011 308.961C129.011 308.961 126.671 293.301 129.011 282.961C129.011 282.961 122.671 298.301 122.011 307.631C122.011 307.631 112.671 293.631 113.341 281.961L116.671 311.631L88.3412 318.961L66.3412 334.631Z" fill="#3D1565"/>
</g>
<g style="mix-blend-mode:multiply">
<path d="M50.6712 396.631C50.6712 396.631 72.3412 404.301 74.6712 404.961C74.6712 404.961 75.3412 390.631 77.3412 383.631C77.3412 383.631 112.011 431.301 144.341 428.301C176.671 425.301 184.011 419.961 184.011 419.961C184.011 419.961 169.341 446.631 172.671 454.301C176.001 461.971 215.671 474.301 221.671 473.631C227.671 472.961 234.341 454.301 234.341 454.301L219.671 443.301C219.671 443.301 235.341 448.961 242.671 447.631C250.001 446.301 260.671 425.631 259.671 419.961C258.671 414.291 244.671 400.301 244.671 400.301C244.671 400.301 256.341 406.961 262.671 406.961C269.001 406.961 271.011 398.301 271.011 398.301C271.011 398.301 277.011 402.631 277.011 406.961C277.011 411.291 266.341 427.301 266.341 427.301C266.341 427.301 266.341 444.631 265.341 447.301C264.341 449.971 252.011 458.631 252.011 459.631C252.011 460.631 243.011 464.301 243.011 464.301L233.341 481.301L217.671 485.631L197.341 482.961L181.341 481.631L154.671 454.961L161.011 451.631L165.011 444.631C165.011 444.631 88.3412 452.301 76.6712 417.961C76.6712 417.961 47.0112 410.631 46.6712 407.631C46.3312 404.631 50.6712 396.631 50.6712 396.631Z" fill="#3D1565"/>
</g>
<g style="mix-blend-mode:multiply">
<g style="mix-blend-mode:multiply">
<path d="M267.181 444.041C262.931 445.401 261.801 446.041 267.181 444.041V444.041Z" fill="#3D1565"/>
</g>
<g style="mix-blend-mode:multiply">
<path d="M267.181 444.041C271.878 442.533 276.664 441.317 281.511 440.401C277.417 440.664 273.392 441.586 269.591 443.131L267.181 444.041Z" fill="#3D1565"/>
</g>
<g style="mix-blend-mode:multiply">
<path d="M319.091 446.381C315.634 445.057 312.021 444.18 308.341 443.771C316.341 447.251 319.341 449.631 319.341 449.631C319.341 449.631 316.091 463.881 306.841 464.881C297.591 465.881 288.591 458.631 294.091 449.131C294.091 449.131 286.091 462.881 277.091 458.381C268.091 453.881 268.091 446.881 268.091 446.881C268.091 446.881 261.091 458.381 260.341 458.381C259.591 458.381 249.841 461.881 251.841 462.381C252.151 462.461 253.031 462.631 254.311 462.841L246.591 465.131C246.591 465.131 238.091 478.881 237.591 479.881C237.091 480.881 242.341 482.381 242.341 482.381L260.841 481.131C260.841 481.131 278.591 483.881 279.591 483.881C280.591 483.881 292.091 480.131 292.091 480.131L299.201 470.131C300.356 470.591 301.603 470.772 302.841 470.661C309.091 469.911 328.341 452.661 328.341 452.661L319.091 446.381ZM277.591 475.881C268.591 475.131 271.341 468.131 271.341 468.131L262.091 477.881C262.091 477.881 258.341 478.631 255.591 472.381C254.251 469.381 256.871 466.131 259.921 463.631C268.531 464.631 281.741 465.391 288.591 461.881C288.591 461.881 293.101 467.241 298.001 469.591C293.531 471.981 284.211 476.431 277.591 475.881Z" fill="#3D1565"/>
</g>
<g style="mix-blend-mode:multiply">
<path d="M281.511 440.401C292.201 439.931 295.591 446.401 295.591 446.401C299.141 443.711 304.001 443.341 308.371 443.791C305.981 442.741 303.171 441.611 299.841 440.401C295.121 438.631 288.111 439.191 281.511 440.401Z" fill="#3D1565"/>
</g>
</g>
<g style="mix-blend-mode:multiply">
<path d="M161.011 451.631C161.011 451.631 99.3412 510.631 123.341 641.631C147.341 772.631 304.341 712.631 304.341 712.631L330.341 691.631C330.341 691.631 211.341 675.631 202.341 591.631C193.341 507.631 256.341 480.631 256.341 480.631L230.841 482.631L220.091 483.881L202.841 481.631L184.591 483.631C184.591 483.631 154.421 468.631 161.011 451.631Z" fill="#3D1565"/>
</g>
<g style="mix-blend-mode:multiply">
<path d="M440.341 466.961C440.341 466.961 404.671 472.631 386.011 456.961C386.011 456.961 387.671 465.631 390.341 468.301C390.341 468.301 374.341 459.631 379.341 439.301L393.341 432.301L418.011 437.301L403.341 426.301C403.341 426.301 423.671 415.301 424.671 402.301C425.671 389.301 423.011 390.631 423.011 390.631C423.011 390.631 431.341 350.961 417.011 325.961C417.011 325.961 446.011 325.961 448.011 309.631C450.011 293.301 447.011 297.631 447.011 297.631L430.671 309.961L402.341 300.301L389.011 294.301L341.341 299.631C341.341 299.631 393.341 294.631 402.671 308.301C412.001 321.971 401.671 327.961 401.671 327.961L416.421 326.211C416.421 326.211 420.591 363.881 410.341 393.881L391.091 418.631L370.591 426.881C370.591 426.881 354.341 428.381 355.091 428.381C355.841 428.381 343.591 453.881 343.591 453.881L363.841 474.381L400.341 481.381L423.841 482.881L433.841 478.631L440.341 466.961Z" fill="#3D1565"/>
</g>
<g style="mix-blend-mode:multiply">
<path d="M444.341 388.381L441.341 434.881L452.591 443.881L469.341 423.631L472.591 409.631L507.841 383.131C507.841 383.131 487.341 384.631 466.841 400.131C466.841 400.131 466.841 392.631 449.591 389.631L444.341 388.381Z" fill="#3D1565"/>
</g>
<g style="mix-blend-mode:multiply">
<path d="M436.341 472.631C436.341 472.631 436.091 485.881 444.091 489.131L446.341 478.131C449.239 483.6 453.287 488.376 458.207 492.131C463.127 495.886 468.802 498.53 474.841 499.881C495.841 504.881 510.841 503.131 513.341 497.131C515.841 491.131 510.591 484.131 503.091 480.881C495.591 477.631 526.841 485.881 533.841 478.881C540.841 471.881 532.591 490.631 530.841 491.381C529.091 492.131 521.091 493.381 519.841 494.631C517.142 498.071 514.638 501.66 512.341 505.381C511.341 507.131 494.591 514.881 494.591 514.881L475.341 509.881C475.341 509.881 461.841 513.631 459.341 513.131C456.841 512.631 438.841 495.381 438.341 493.881C437.841 492.381 429.341 482.631 436.341 472.631Z" fill="#3D1565"/>
</g>
<g style="mix-blend-mode:multiply">
<path d="M473.671 420.461C473.621 419.621 493.511 415.131 495.011 416.131C496.511 417.131 508.671 440.461 508.671 440.461C508.671 440.461 474.011 426.131 473.671 420.461Z" fill="#3D1565"/>
</g>
<g style="mix-blend-mode:multiply">
<path d="M278.091 408.131C278.091 408.131 308.591 416.381 320.591 403.881C332.591 391.381 343.091 364.631 343.091 364.631C343.091 364.631 337.091 403.381 330.591 410.381C324.091 417.381 389.591 411.631 397.841 399.881C403.047 392.382 407.725 384.53 411.841 376.381C411.841 376.381 409.841 399.381 398.591 411.631C387.341 423.881 356.341 430.381 356.341 430.381L352.091 438.381C352.091 438.381 325.841 437.381 320.841 431.631C315.841 425.881 310.341 434.381 299.341 436.131C288.341 437.881 269.341 439.131 269.341 439.131L269.591 423.881L278.091 408.131Z" fill="#3D1565"/>
</g>
<g style="mix-blend-mode:multiply">
<path d="M170.341 207.301L133.011 216.631L77.6713 174.631L117.671 219.301C117.671 219.301 47.0113 218.631 7.67126 143.961C7.67126 143.961 19.0113 227.301 118.341 262.631C118.341 262.631 119.671 228.631 179.011 217.301L170.341 207.301Z" fill="#DADCE0"/>
</g>
<g style="mix-blend-mode:multiply">
<path d="M101.671 292.961C101.671 292.961 100.341 307.631 97.6712 311.631C95.0012 315.631 61.3412 312.301 61.3412 312.301L73.0112 317.301C73.0112 317.301 25.3412 314.301 15.0112 282.961C15.0112 282.961 35.6712 333.961 63.3412 337.301C63.3412 337.301 87.0112 317.631 102.341 312.631C117.671 307.631 116.671 308.961 116.671 308.961L113.341 292.631L101.671 292.961Z" fill="#DADCE0"/>
</g>
<g style="mix-blend-mode:multiply">
<path d="M263.591 75.8814C263.591 75.8814 244.591 96.3814 234.591 128.381C224.591 160.381 226.341 178.881 226.341 178.881L248.091 147.631C248.091 147.631 253.591 118.881 254.091 117.631C254.591 116.381 270.341 104.381 270.341 104.381L263.591 75.8814Z" fill="#DADCE0"/>
</g>
<path d="M273.111 165.761C273.201 166.431 273.311 167.091 273.441 167.761C273.446 167.851 273.446 167.941 273.441 168.031C273.917 170.342 274.552 172.618 275.341 174.841L275.401 175.031C276.272 177.457 277.273 179.834 278.401 182.151V182.151C278.791 182.951 279.201 183.761 279.621 184.571C285.721 196.271 295.081 208.171 304.401 218.121L304.461 218.181L306.081 219.891L306.261 220.071C306.771 220.611 307.261 221.141 307.801 221.661L307.971 221.831C309.678 223.571 311.365 225.238 313.031 226.831L313.121 226.911C313.611 227.391 314.121 227.851 314.601 228.311L314.941 228.621L316.151 229.731L316.571 230.101L317.701 231.101L318.111 231.461L319.281 232.461L319.591 232.731C320.571 233.558 321.521 234.348 322.441 235.101L322.801 235.391L323.801 236.161L324.251 236.511L325.081 237.151L325.551 237.511L326.321 238.081L326.761 238.401L327.551 238.961L327.911 239.211L328.981 239.931C352.561 255.331 374.931 257.351 385.771 243.411C396.611 229.471 388.341 203.411 372.861 184.181C357.381 164.951 317.111 118.631 283.041 141.861C282.571 142.181 282.121 142.521 281.681 142.861L281.281 143.171L280.381 143.921L279.991 144.271C279.621 144.611 279.261 144.961 278.921 145.271L278.591 145.621C278.361 145.871 278.141 146.121 277.921 146.381C277.701 146.641 277.631 146.731 277.491 146.911C277.32 147.113 277.16 147.323 277.011 147.541C276.871 147.721 276.731 147.911 276.601 148.101C276.361 148.441 276.141 148.791 275.921 149.101C275.571 149.691 275.241 150.291 274.921 150.901C274.921 150.961 274.871 151.021 274.841 151.071C274.591 151.601 274.371 152.141 274.171 152.681C274.171 152.801 274.091 152.911 274.041 153.031C273.851 153.571 273.681 154.131 273.531 154.691C273.519 154.753 273.503 154.813 273.481 154.871C273.153 156.164 272.936 157.482 272.831 158.811V159.131C272.831 159.721 272.771 160.311 272.761 160.911V161.181C272.765 162.61 272.862 164.036 273.051 165.451L273.111 165.761ZM287.341 149.631C311.601 128.211 355.341 168.801 369.531 187.851C378.281 199.551 398.701 233.011 381.671 245.141C357.971 262.021 321.791 229.631 321.791 229.631C321.791 229.631 259.601 174.131 287.341 149.631Z" fill="#070E0F"/>
<path d="M514.761 383.481C514.761 383.481 509.471 365.671 486.121 365.801C486.121 365.801 447.661 382.321 445.211 385.031C442.931 387.551 437.651 400.221 437.641 411.421L437.471 411.361C431.031 407.921 428.161 394.501 427.381 390.071C437.901 381.451 449.381 365.391 446.761 337.021C446.761 337.021 454.261 317.711 450.761 298.681C460.051 287.961 471.391 274.571 471.391 274.571C477.841 264.631 459.201 263.151 459.201 263.151L459.391 247.081C468.051 239.841 464.681 234.741 463.121 233.081C479.631 180.831 439.491 146.411 433.451 141.601C435.011 134.301 433.581 126.861 421.451 123.601C409.321 120.341 403.331 125.351 400.231 130.821C391.881 124.451 382.001 119.931 371.841 116.741C386.031 103.951 414.201 81.8514 448.341 71.6314C513.011 52.1914 524.001 45.9914 524.001 45.9914C435.111 35.7014 385.521 91.6314 368.531 115.741C359.308 113.167 349.88 111.394 340.351 110.441C350.261 94.9714 372.401 64.6314 404.171 45.1214C461.711 9.79139 470.761 0.991394 470.761 0.991394C380.051 14.1314 346.971 83.8614 337.601 110.171C327.676 109.251 317.697 109.037 307.741 109.531C299.181 103.691 286.271 98.2514 271.031 102.641L265.901 53.9814C265.901 53.9814 162.301 101.301 219.581 218.981C219.581 219.261 219.641 219.551 219.681 219.841C210.331 213.421 197.491 209.601 180.681 212.111L11.4512 61.2414C11.4512 61.2414 -47.8888 199.701 110.661 265.631C108.813 274.215 108.656 283.078 110.201 291.721L7.84124 274.631C7.84124 274.631 20.0912 319.631 56.7312 340.791L56.5212 341.151C41.5212 367.481 47.7512 392.261 47.7512 392.261C47.7512 392.261 42.0712 408.261 42.0712 411.361C42.0712 414.461 45.9312 423.621 68.5912 426.561C73.4458 435.003 80.1799 442.213 88.2712 447.631C96.9712 453.471 116.621 455.851 132.471 456.811C77.6612 514.631 72.9812 621.191 121.341 681.301C159.581 728.861 225.191 752.171 282.131 729.101C350.801 742.881 378.681 728.961 378.681 728.961C360.921 718.881 347.321 701.401 337.971 685.891C338.891 684.711 339.811 683.521 340.721 682.291C342.001 680.631 343.201 678.931 344.361 677.221C344.691 676.741 345.031 676.311 345.361 675.821C407.051 584.331 321.831 507.481 315.521 497.201C314.651 495.781 313.201 492.631 313.201 492.631L310.341 478.971L307.831 470.971C308.323 470.811 308.828 470.697 309.341 470.631C314.061 469.901 324.581 464.401 330.021 454.141H330.441L340.701 452.141C340.701 452.141 346.341 466.071 362.101 476.631C377.861 487.191 429.461 486.441 429.461 486.441C429.721 490.831 435.661 499.601 448.311 509.441C460.961 519.281 461.981 509.701 483.411 514.601C504.841 519.501 517.471 508.151 519.021 501.701C520.571 495.251 521.601 495.241 521.601 495.241C536.831 492.921 541.991 479.501 541.991 479.501C541.991 479.501 546.381 467.501 544.061 455.891C544.061 455.891 553.611 448.271 555.671 439.241C557.731 430.211 551.151 424.011 547.671 419.751C544.191 415.491 533.091 386.451 514.761 383.481ZM501.541 50.1514C501.541 50.1514 431.231 59.5814 385.541 100.091C385.541 100.091 436.921 51.2114 501.541 50.1514ZM450.111 10.8014C450.111 10.8014 384.561 37.9014 350.751 88.7414C350.751 88.7414 387.911 28.3514 450.111 10.8014ZM444.181 413.941C444.181 413.941 446.761 395.101 449.341 391.741C451.921 388.381 465.081 396.131 465.081 396.131C465.081 396.131 459.921 390.711 453.471 388.901C453.471 388.901 481.861 372.121 487.021 372.121C492.181 372.121 504.571 374.961 505.861 382.711C505.861 382.711 477.471 396.131 473.341 402.581C469.211 409.031 469.211 420.391 469.211 420.391C469.211 420.391 459.701 421.391 452.311 438.391C451.701 438.021 447.581 435.491 444.951 433.821C442.111 432.001 444.181 413.941 444.181 413.941ZM432.181 146.051C471.081 177.511 462.241 222.521 460.181 230.971C429.091 209.831 426.181 164.451 427.681 157.651C428.161 155.141 430.471 150.831 432.141 146.051H432.181ZM318.991 119.451C317.461 117.671 315.806 116 314.041 114.451C321.881 114.941 329.041 115.651 335.561 116.451C334.841 118.851 334.561 120.201 334.561 120.201C334.561 120.201 335.251 118.891 336.611 116.591C345.969 117.809 355.236 119.647 364.351 122.091C362.671 124.771 361.841 126.341 361.841 126.341C361.841 126.341 363.171 124.891 365.681 122.461C387.521 128.651 396.031 136.091 397.681 137.651C397.428 138.745 397.244 139.854 397.131 140.971C396.52 145.733 396.256 150.532 396.341 155.331C396.341 148.881 403.051 122.331 420.081 128.491C437.111 134.651 422.921 155.131 422.921 155.131C420.821 203.251 450.981 236.591 458.591 238.691C457.326 241.764 455.051 244.315 452.141 245.921L452.911 267.861C452.911 267.861 462.201 267.861 464.781 271.731C467.361 275.601 440.011 301.671 433.781 304.731C427.551 307.791 409.341 300.631 409.341 300.631C409.341 300.631 338.341 266.311 316.641 261.631C294.941 256.951 296.511 313.251 296.511 313.251L311.511 309.641C353.801 297.501 378.251 296.501 387.601 296.721C393.851 299.721 399.181 302.181 402.881 303.811C406.361 307.001 410.131 312.011 407.721 317.511C403.651 326.801 398.811 323.701 394.561 320.221C390.311 316.741 380.041 306.281 350.231 313.641C320.421 321.001 297.231 327.571 284.031 318.281C270.831 308.991 276.871 261.701 277.451 260.211C278.601 257.211 279.381 252.081 292.161 253.211C292.161 253.211 274.161 238.501 270.871 274.121C270.871 274.121 252.041 265.751 238.731 248.521C237.861 243.227 235.933 238.163 233.061 233.631C231.464 231.143 229.651 228.8 227.641 226.631C226.345 221.739 225.72 216.693 225.781 211.631C226.291 169.301 246.941 153.301 246.941 153.301L251.261 161.561C251.261 161.561 243.071 132.401 262.431 114.331C281.791 96.2614 318.951 119.451 318.951 119.451H318.991ZM382.341 294.301C352.491 289.721 302.141 309.691 302.141 305.541C302.141 300.891 303.691 267.861 317.141 267.861C326.131 267.861 358.711 283.131 382.341 294.301ZM219.341 201.371C204.751 159.501 200.341 102.321 260.441 65.4614L265.121 104.821C263.151 105.708 261.234 106.71 259.381 107.821C238.421 120.491 244.341 147.631 244.341 147.631C244.341 147.631 222.111 165.521 219.341 201.371ZM16.3412 77.6314L172.991 213.631C163.706 216.042 154.74 219.546 146.281 224.071L75.1912 173.431L142.091 226.321C142.981 225.821 143.851 225.321 144.721 224.891L142.081 226.321C126.221 235.161 117.571 246.321 113.161 257.481C57.4612 231.261 -12.6588 177.351 16.3412 77.6314ZM20.5512 285.021L111.121 296.291C111.905 299.802 112.982 303.241 114.341 306.571C106.083 308.335 98.0253 310.932 90.2912 314.321L75.7312 313.221L66.8512 312.461L70.8512 312.861L58.9912 311.961L87.9912 315.341C77.9912 319.911 67.3812 326.521 60.1512 335.761C43.3412 326.691 28.8012 310.981 20.5512 285.021ZM74.3912 420.261C74.3912 420.261 53.9412 414.971 51.3912 409.811C48.8412 404.651 56.0412 394.811 56.0412 394.811C56.0412 394.811 46.7412 367.451 65.8412 342.161C84.9412 316.871 116.431 312.731 116.431 312.731L122.111 322.541C122.111 322.541 97.8512 263.701 145.851 233.761C184.851 209.461 209.591 218.761 221.851 229.271C221.851 229.271 233.981 240.481 234.411 252.101C236.008 260.689 236.722 269.418 236.541 278.151C238.498 271.539 239.485 264.677 239.471 257.781C248.319 266.752 258.686 274.085 270.091 279.441C270.091 279.441 267.511 320.931 280.031 326.441C295.901 333.441 332.681 325.151 350.491 320.511C368.301 315.871 383.011 315.601 393.851 327.731C403.851 338.871 417.531 318.171 410.001 306.621C420.411 310.331 435.161 315.621 439.611 311.151C440.801 309.961 443.301 307.151 446.401 303.641C446.711 310.381 446.401 331.231 432.301 347.861L440.561 339.611C440.561 339.611 443.661 378.321 414.751 390.711C414.751 390.711 424.041 353.031 416.301 324.121C416.301 324.121 429.211 448.521 324.941 423.231C324.941 423.231 347.131 396.391 343.001 363.871C343.001 363.871 334.741 417.031 311.521 422.711C303.871 424.581 290.571 424.201 275.891 421.151C278.351 418.151 280.891 414.351 281.841 410.151C283.901 401.151 277.321 394.931 273.841 390.671C270.581 386.671 260.661 361.011 244.381 355.291C244.381 355.291 230.231 350.661 210.871 360.211C209.151 361.065 207.505 361.915 205.931 362.761C203.731 358.231 200.111 348.421 200.841 334.021C205.368 330.908 209.218 326.911 212.161 322.271C212.161 322.271 202.841 330.161 191.441 333.681C190.928 328.933 189.627 324.303 187.591 319.981C190.986 317.582 193.931 314.603 196.291 311.181C177.191 322.271 141.291 326.661 141.291 326.661C164.081 332.321 178.861 326.291 187.291 320.171C187.761 323.771 189.101 336.391 186.181 344.861C181.551 358.301 175.731 365.711 169.251 370.731C152.701 360.081 122.481 345.591 99.8512 363.051C99.8512 363.051 141.851 350.051 178.501 386.731C178.501 386.731 212.441 364.861 222.771 361.731C233.101 358.601 240.381 361.281 240.381 361.281C246.111 363.281 254.561 369.711 260.641 382.511C268.131 398.251 277.641 399.511 275.351 409.091C273.951 414.871 269.711 419.601 266.581 422.441C245.691 389.511 231.871 398.901 231.871 398.901C231.871 398.901 235.781 398.741 241.161 402.381C247.161 406.451 262.971 425.381 262.971 425.381C262.971 425.381 266.841 435.191 261.671 447.831C261.671 447.831 252.901 459.191 246.671 458.931C246.671 458.931 227.951 442.671 219.441 440.351C210.931 438.031 210.151 439.961 210.151 439.961C210.151 439.961 231.711 453.321 241.461 461.441C239.561 463.951 238.591 467.951 236.861 471.581C234.021 477.521 229.371 480.351 221.861 481.391C214.351 482.431 206.631 478.031 206.631 478.031C206.631 478.031 181.851 467.191 176.431 462.801C171.011 458.411 173.081 449.131 173.081 449.131C171.731 452.854 171.031 456.781 171.011 460.741C171.011 467.191 196.821 477.261 196.821 477.261L194.241 478.261C181.601 478.521 181.601 474.651 171.241 467.681C162.011 461.451 163.301 455.431 164.241 449.241L140.241 449.351C81.5612 454.071 74.3912 420.261 74.3912 420.261ZM261.701 482.201C261.701 482.201 273.261 487.281 285.471 484.411C267.001 493.991 239.301 503.331 211.471 494.051C203.983 491.605 196.739 488.468 189.831 484.681C196.409 483.621 203.134 483.92 209.591 485.561C221.031 488.181 229.971 486.151 236.051 482.721C242.101 483.481 252.131 484.161 261.701 482.201ZM350.341 723.141C330.721 724.141 311.101 721.141 301.401 719.261C311.512 712.886 320.752 705.225 328.891 696.471C335.368 705.882 342.538 714.797 350.341 723.141V723.141ZM317.341 684.491C249.641 757.311 144.771 715.991 113.841 651.561C150.291 688.931 220.491 732.031 298.591 664.391C346.741 622.691 347.991 578.641 339.251 547.251C351.661 574.691 366.921 631.121 317.341 684.491ZM314.741 543.491C316.654 535.08 317.921 526.535 318.531 517.931C330.471 547.331 324.171 566.091 318.711 582.421C312.861 599.901 254.781 697.011 163.561 646.891C89.2212 606.051 98.1612 545.741 104.021 524.801C107.521 549.201 121.891 593.951 179.341 616.161C260.671 647.561 310.231 562.341 314.711 543.451L314.741 543.491ZM308.291 487.151C308.178 489.101 308.363 491.057 308.841 492.951C303.341 516.951 277.451 593.501 175.171 561.951C175.171 561.951 101.881 519.351 148.411 459.951C147.241 479.271 154.821 507.791 201.191 527.701C264.721 554.951 298.701 504.631 308.261 487.111L308.291 487.151ZM307.421 465.211C299.671 467.531 290.001 477.601 288.831 478.371C287.661 479.141 277.991 486.111 262.121 477.981C262.121 477.981 249.731 480.091 240.831 479.301C242.884 477.552 244.405 475.262 245.221 472.691C246.771 466.241 247.801 466.241 247.801 466.241C263.031 463.921 268.191 450.501 268.191 450.501C268.993 448.121 269.618 445.684 270.061 443.211C271.603 443.018 273.132 442.738 274.641 442.371C292.451 437.981 302.261 442.111 302.261 442.111C308.596 447.305 316.004 451.028 323.951 453.011C320.981 456.031 313.471 463.341 307.391 465.171L307.421 465.211ZM336.071 445.721C322.641 448.041 304.071 437.721 304.071 437.721C291.751 435.071 280.971 436.861 270.791 437.801C271.116 434.154 270.938 430.48 270.261 426.881C270.261 426.881 270.481 426.711 270.821 426.411C278.106 428.049 285.515 429.069 292.971 429.461C292.971 429.461 313.101 431.531 319.301 426.361C319.301 426.361 327.541 435.411 350.611 434.411C349.921 436.771 347.101 443.771 336.041 445.681L336.071 445.721ZM429.241 477.981L396.241 470.761L414.311 478.501C355.461 483.141 348.311 449.331 348.311 449.331C348.311 449.331 356.231 441.401 359.921 433.541C370.633 432.167 380.908 428.441 390.011 422.631C396.451 426.541 408.711 433.531 418.501 436.521C418.501 436.521 401.581 427.151 393.901 419.901C401.24 414.265 407.294 407.13 411.661 398.971C414.772 397.929 417.757 396.544 420.561 394.841C422.041 407.491 436.431 419.101 436.431 419.101L435.921 421.681L424.561 419.101C428.171 423.741 435.921 425.811 435.921 425.811V432.521C435.921 438.271 446.521 444.391 449.551 446.021C449.271 447.021 449.051 447.951 448.881 448.801L446.761 452.131L426.431 446.971L440.051 456.781L418.341 455.681L439.571 460.911L429.241 477.981ZM549.241 438.241C546.921 447.791 536.851 454.501 536.851 454.501C536.851 454.501 540.721 464.301 535.561 476.951C535.561 476.951 526.781 488.311 520.561 488.051C514.341 487.791 513.561 494.761 510.751 500.691C507.941 506.621 503.271 509.471 495.751 510.501C488.231 511.531 480.531 507.151 480.531 507.151C480.531 507.151 455.751 496.311 450.331 491.921C444.911 487.531 446.971 478.241 446.971 478.241C445.627 481.966 444.931 485.892 444.911 489.851C444.911 496.311 470.721 506.371 470.721 506.371L468.141 507.371C455.491 507.621 455.491 503.751 445.141 496.781C434.791 489.811 437.651 483.101 438.431 476.141C439.211 469.181 443.851 463.231 450.301 462.461C456.751 461.691 500.371 475.101 500.371 475.101C500.371 475.101 498.051 473.811 492.881 470.461C487.711 467.111 461.881 461.941 457.011 456.001C456.301 455.138 455.786 454.132 455.501 453.051C456.591 447.421 460.891 429.051 470.951 428.391C482.821 427.611 495.951 436.911 498.301 437.941C500.651 438.971 510.431 442.071 510.431 442.071C510.431 442.071 496.341 430.711 490.121 426.321C483.901 421.931 473.601 424.521 477.471 412.131C481.341 399.741 505.601 389.681 510.761 389.681C515.921 389.681 527.021 395.871 534.511 411.611C542.001 427.351 551.541 428.631 549.221 438.201L549.241 438.241Z" fill="#070E0F"/>
<path d="M399.221 258.051C399.221 258.051 419.861 225.051 394.571 187.851C394.571 187.851 414.181 227.631 399.221 258.051Z" fill="#070E0F"/>
<path d="M476.181 433.421C476.181 433.421 465.921 448.521 465.921 457.231C471.503 450.412 475.058 442.162 476.181 433.421V433.421Z" fill="#070E0F"/>
<path d="M492.831 417.741C497.081 416.391 511.831 395.291 511.831 395.291C496.891 400.521 492.831 417.741 492.831 417.741Z" fill="#070E0F"/>
<path d="M205.961 405.161C206.731 395.871 224.151 397.421 218.731 382.711C218.731 382.711 220.541 388.001 216.021 391.221C210.601 395.101 201.311 394.711 201.311 406.711C201.311 418.711 201.701 422.971 201.701 422.971C203.91 417.251 205.343 411.262 205.961 405.161Z" fill="#070E0F"/>
<path d="M609.515 219.162L609.515 203.975L631.993 180.401L631.993 145.972L643.067 145.972L643.067 191.092C643.067 193.431 643.506 195.624 644.383 197.671C645.296 199.717 646.521 201.49 648.056 202.989C649.591 204.524 651.382 205.73 653.429 206.607C655.512 207.484 657.723 207.923 660.062 207.923C662.402 207.923 664.595 207.484 666.641 206.607C668.688 205.73 670.461 204.524 671.959 202.989C673.494 201.49 674.7 199.717 675.578 197.671C676.455 195.624 676.893 193.431 676.893 191.092L676.893 139.667L609.515 139.667L609.515 128.428L688.132 128.428L688.132 191.092C688.132 194.966 687.383 198.603 685.885 202.002C684.423 205.401 682.412 208.361 679.854 210.883C677.332 213.442 674.372 215.452 670.972 216.914C667.573 218.412 663.937 219.162 660.062 219.162C656.554 219.162 653.228 218.559 650.084 217.353C646.978 216.146 644.182 214.483 641.696 212.364C639.248 210.244 637.201 207.74 635.556 204.853C633.948 202.002 632.87 198.913 632.321 195.587L609.515 219.162ZM648.823 339.229C643.378 339.229 638.261 338.37 633.473 336.652C628.685 334.934 624.518 332.485 620.973 329.305C617.428 326.162 614.632 322.379 612.585 317.957C610.538 313.534 609.515 308.619 609.515 303.209L609.515 277.058C609.515 271.612 610.538 266.66 612.585 262.201C614.632 257.742 617.428 253.922 620.973 250.743C624.518 247.599 628.685 245.169 633.473 243.451C638.261 241.733 643.378 240.874 648.823 240.874C654.233 240.874 659.313 241.733 664.065 243.451C668.853 245.169 673.019 247.599 676.564 250.743C680.146 253.922 682.961 257.742 685.007 262.201C687.091 266.66 688.132 271.612 688.132 277.058L688.132 303.209C688.132 308.619 687.091 313.534 685.007 317.957C682.961 322.379 680.146 326.162 676.564 329.305C673.019 332.485 668.853 334.934 664.065 336.652C659.313 338.37 654.233 339.229 648.823 339.229ZM648.823 327.99C652.698 327.99 656.334 327.423 659.733 326.29C663.133 325.157 666.093 323.512 668.615 321.356C671.173 319.236 673.184 316.641 674.646 313.571C676.144 310.537 676.893 307.083 676.893 303.209L676.893 277.058C676.893 273.184 676.144 269.693 674.646 266.587C673.184 263.517 671.173 260.903 668.615 258.747C666.093 256.627 663.133 254.982 659.733 253.813C656.334 252.68 652.698 252.113 648.823 252.113C644.949 252.113 641.294 252.68 637.859 253.813C634.46 254.982 631.481 256.627 628.922 258.747C626.4 260.903 624.409 263.517 622.947 266.587C621.485 269.693 620.754 273.184 620.754 277.058L620.754 303.209C620.754 307.083 621.485 310.537 622.947 313.571C624.409 316.641 626.4 319.236 628.922 321.356C631.481 323.512 634.46 325.157 637.859 326.29C641.294 327.423 644.949 327.99 648.823 327.99ZM609.515 376.621L609.515 365.382L688.132 365.382L688.132 376.621L609.515 376.621ZM631.992 499.868C628.849 499.868 625.907 499.264 623.166 498.058C620.461 496.889 618.085 495.281 616.039 493.234C614.028 491.224 612.439 488.848 611.269 486.107C610.099 483.365 609.515 480.46 609.515 477.39L609.515 424.155L620.754 424.155L620.754 477.39C620.754 478.925 621.046 480.368 621.631 481.721C622.216 483.11 623.02 484.316 624.043 485.339C625.066 486.363 626.254 487.167 627.607 487.751C628.995 488.336 630.457 488.629 631.992 488.629C633.528 488.629 634.971 488.336 636.324 487.751C637.676 487.167 638.864 486.363 639.887 485.339C640.911 484.316 641.715 483.11 642.299 481.721C642.884 480.368 643.177 478.925 643.177 477.39L643.177 424.155L654.416 424.155L654.416 466.151C654.416 467.686 654.708 469.13 655.293 470.482C655.878 471.871 656.682 473.077 657.705 474.1C658.728 475.124 659.916 475.928 661.269 476.512C662.657 477.097 664.119 477.39 665.654 477.39C667.19 477.39 668.633 477.097 669.986 476.512C671.374 475.928 672.581 475.124 673.604 474.1C674.627 473.077 675.431 471.871 676.016 470.482C676.601 469.13 676.893 467.686 676.893 466.151L676.893 418.563L609.515 418.563L609.515 407.325L688.132 407.325L688.132 466.151C688.132 469.221 687.529 472.127 686.323 474.868C685.154 477.609 683.545 479.985 681.499 481.995C679.488 484.042 677.113 485.65 674.371 486.819C671.63 488.026 668.725 488.629 665.654 488.629C663.279 488.629 661.031 488.281 658.911 487.587C656.828 486.892 654.891 485.96 653.1 484.791C652.332 486.984 651.254 488.994 649.865 490.822C648.476 492.686 646.868 494.275 645.041 495.591C643.213 496.944 641.185 497.985 638.955 498.716C636.762 499.484 634.441 499.868 631.992 499.868ZM609.515 606.119L609.515 524.815L688.132 524.815L688.132 606.119L676.893 606.119L676.893 536.054L620.754 536.054L620.754 606.119L609.515 606.119ZM643.177 596.579L643.177 541.646L654.416 541.646L654.416 596.579L643.177 596.579ZM609.515 713.192L609.515 631.888L688.132 631.888L688.132 713.192L676.893 713.192L676.893 643.127L620.754 643.127L620.754 713.192L609.515 713.192ZM643.177 703.653L643.177 648.719L654.416 648.719L654.416 703.653L643.177 703.653Z" fill="#9F44FB"/>
<path d="M594.603 118.998L594.602 717.688L592.355 717.688L592.355 118.998L594.603 118.998Z" fill="#9F44FB"/>
<path d="M609.515 219.162L605.443 219.162L605.443 229.226L612.441 221.993L609.515 219.162ZM609.515 203.975L606.568 201.166L605.443 202.346L605.443 203.975L609.515 203.975ZM631.993 180.401L634.939 183.211L636.064 182.031L636.064 180.401L631.993 180.401ZM631.993 145.972L631.993 141.9L627.921 141.9L627.921 145.972L631.993 145.972ZM643.067 145.972L647.138 145.972L647.138 141.9L643.067 141.9L643.067 145.972ZM644.383 197.671L640.641 199.275L640.653 199.303L640.665 199.33L644.383 197.671ZM648.056 202.989L650.935 200.11L650.918 200.092L650.9 200.075L648.056 202.989ZM653.429 206.607L651.825 210.349L651.837 210.354L651.849 210.359L653.429 206.607ZM666.641 206.607L668.245 210.349L666.641 206.607ZM671.959 202.989L669.115 200.075L669.08 200.11L669.046 200.145L671.959 202.989ZM676.893 139.667L680.965 139.667L680.965 135.595L676.893 135.595L676.893 139.667ZM609.515 139.667L605.443 139.667L605.443 143.738L609.515 143.738L609.515 139.667ZM609.515 128.428L609.515 124.357L605.443 124.357L605.443 128.428L609.515 128.428ZM688.132 128.428L692.204 128.428L692.204 124.357L688.132 124.357L688.132 128.428ZM685.885 202.002L682.159 200.359L682.152 200.376L682.144 200.393L685.885 202.002ZM679.854 210.883L676.996 207.984L676.975 208.004L676.954 208.025L679.854 210.883ZM670.972 216.914L669.364 213.174L669.347 213.181L669.33 213.189L670.972 216.914ZM650.084 217.353L648.611 221.148L648.618 221.151L648.626 221.154L650.084 217.353ZM641.696 212.364L639.032 215.442L639.043 215.452L639.054 215.461L641.696 212.364ZM635.556 204.853L632.01 206.853L632.014 206.86L632.018 206.868L635.556 204.853ZM632.321 195.587L636.339 194.925L635.022 186.94L629.395 192.757L632.321 195.587ZM613.586 219.162L613.586 203.975L605.443 203.975L605.443 219.162L613.586 219.162ZM612.461 206.785L634.939 183.211L629.046 177.592L606.568 201.166L612.461 206.785ZM636.064 180.401L636.064 145.972L627.921 145.972L627.921 180.401L636.064 180.401ZM631.993 150.043L643.067 150.043L643.067 141.9L631.993 141.9L631.993 150.043ZM638.996 145.972L638.996 191.092L647.138 191.092L647.138 145.972L638.996 145.972ZM638.996 191.092C638.996 193.954 639.535 196.696 640.641 199.275L648.125 196.067C647.476 194.552 647.138 192.908 647.138 191.092L638.996 191.092ZM640.665 199.33C641.779 201.825 643.293 204.029 645.212 205.902L650.9 200.075C649.749 198.952 648.814 197.61 648.1 196.011L640.665 199.33ZM645.177 205.868C647.088 207.778 649.315 209.273 651.825 210.349L655.033 202.865C653.449 202.186 652.094 201.269 650.935 200.11L645.177 205.868ZM651.849 210.359C654.45 211.454 657.2 211.994 660.062 211.994L660.062 203.851C658.247 203.851 656.574 203.514 655.009 202.855L651.849 210.359ZM660.062 211.994C662.925 211.994 665.666 211.455 668.245 210.349L665.038 202.865C663.523 203.514 661.879 203.851 660.062 203.851L660.062 211.994ZM668.245 210.349C670.764 209.27 672.987 207.765 674.873 205.833L669.046 200.145C667.935 201.283 666.612 202.19 665.038 202.865L668.245 210.349ZM674.803 205.902C676.735 204.016 678.24 201.793 679.32 199.275L671.835 196.067C671.161 197.642 670.253 198.964 669.115 200.075L674.803 205.902ZM679.32 199.275C680.425 196.696 680.965 193.954 680.965 191.092L672.822 191.092C672.822 192.908 672.485 194.552 671.835 196.067L679.32 199.275ZM680.965 191.092L680.965 139.667L672.822 139.667L672.822 191.092L680.965 191.092ZM676.893 135.595L609.515 135.595L609.515 143.738L676.893 143.738L676.893 135.595ZM613.586 139.667L613.586 128.428L605.443 128.428L605.443 139.667L613.586 139.667ZM609.515 132.499L688.132 132.499L688.132 124.357L609.515 124.357L609.515 132.499ZM684.061 128.428L684.061 191.092L692.204 191.092L692.204 128.428L684.061 128.428ZM684.061 191.092C684.061 194.425 683.42 197.5 682.159 200.359L689.61 203.644C691.346 199.705 692.204 195.507 692.204 191.092L684.061 191.092ZM682.144 200.393C680.884 203.324 679.168 205.842 676.996 207.984L682.712 213.783C685.656 210.881 687.961 207.478 689.625 203.61L682.144 200.393ZM676.954 208.025C674.813 210.198 672.294 211.913 669.364 213.174L672.581 220.654C676.449 218.991 679.851 216.686 682.753 213.741L676.954 208.025ZM669.33 213.189C666.471 214.449 663.396 215.09 660.062 215.09L660.062 223.233C664.477 223.233 668.676 222.376 672.615 220.639L669.33 213.189ZM660.062 215.09C657.031 215.09 654.201 214.571 651.543 213.551L648.626 221.154C652.254 222.546 656.076 223.233 660.062 223.233L660.062 215.09ZM651.558 213.557C648.868 212.513 646.469 211.083 644.338 209.266L639.054 215.461C641.894 217.884 645.087 219.78 648.611 221.148L651.558 213.557ZM644.361 209.285C642.271 207.476 640.516 205.334 639.094 202.838L632.018 206.868C633.886 210.146 636.225 213.012 639.032 215.442L644.361 209.285ZM639.102 202.852C637.735 200.429 636.812 197.795 636.339 194.925L628.304 196.25C628.928 200.032 630.161 203.575 632.01 206.853L639.102 202.852ZM629.395 192.757L606.589 216.331L612.441 221.993L635.248 198.418L629.395 192.757ZM620.973 329.305L623.691 326.275L623.683 326.267L623.674 326.259L620.973 329.305ZM620.973 250.743L618.272 247.696L618.263 247.704L618.254 247.712L620.973 250.743ZM664.065 243.451L662.68 247.28L662.69 247.283L664.065 243.451ZM676.564 250.743L679.267 247.698L679.265 247.696L676.564 250.743ZM685.007 262.201L681.307 263.899L681.313 263.912L681.319 263.924L685.007 262.201ZM685.007 317.957L681.324 316.222L681.318 316.234L681.313 316.247L685.007 317.957ZM676.564 329.305L673.879 326.245L673.862 326.26L673.846 326.275L676.564 329.305ZM664.065 336.652L662.69 332.82L662.68 332.823L664.065 336.652ZM668.615 321.356L666.017 318.221L665.993 318.241L665.969 318.262L668.615 321.356ZM674.646 313.571L670.995 311.768L670.982 311.794L670.97 311.821L674.646 313.571ZM674.646 266.587L670.97 268.337L670.974 268.346L670.979 268.356L674.646 266.587ZM668.615 258.747L671.239 255.634L671.235 255.63L668.615 258.747ZM659.733 253.813L661.058 249.963L661.04 249.957L661.021 249.95L659.733 253.813ZM637.859 253.813L636.584 249.946L636.559 249.954L636.534 249.963L637.859 253.813ZM628.922 258.747L626.325 255.612L626.3 255.632L626.276 255.653L628.922 258.747ZM622.947 266.587L619.271 264.836L619.267 264.845L619.263 264.853L622.947 266.587ZM622.947 313.571L626.622 311.821L626.618 311.812L626.614 311.803L622.947 313.571ZM628.922 321.356L631.546 318.243L631.542 318.239L628.922 321.356ZM637.859 326.29L636.571 330.153L636.584 330.157L637.859 326.29ZM648.823 335.157C643.813 335.157 639.164 334.368 634.848 332.82L632.098 340.484C637.357 342.371 642.942 343.3 648.823 343.3L648.823 335.157ZM634.848 332.82C630.521 331.267 626.819 329.08 623.691 326.275L618.254 332.336C622.218 335.891 626.849 338.601 632.098 340.484L634.848 332.82ZM623.674 326.259C620.56 323.499 618.098 320.175 616.28 316.247L608.89 319.667C611.165 324.584 614.295 328.826 618.272 332.352L623.674 326.259ZM616.28 316.247C614.507 312.417 613.586 308.093 613.586 303.209L605.443 303.209C605.443 309.144 606.569 314.652 608.89 319.667L616.28 316.247ZM613.586 303.209L613.586 277.058L605.443 277.058L605.443 303.209L613.586 303.209ZM613.586 277.058C613.586 272.134 614.508 267.769 616.285 263.899L608.885 260.502C606.568 265.55 605.443 271.091 605.443 277.058L613.586 277.058ZM616.285 263.899C618.106 259.931 620.574 256.57 623.691 253.773L618.254 247.712C614.281 251.275 611.157 255.552 608.885 260.502L616.285 263.899ZM623.674 253.789C626.803 251.014 630.511 248.839 634.848 247.283L632.098 239.619C626.858 241.499 622.233 244.184 618.272 247.696L623.674 253.789ZM634.848 247.283C639.164 245.734 643.813 244.946 648.823 244.946L648.823 236.803C642.942 236.803 637.357 237.732 632.098 239.619L634.848 247.283ZM648.823 244.946C653.794 244.946 658.403 245.734 662.68 247.28L665.449 239.622C660.223 237.733 654.671 236.803 648.823 236.803L648.823 244.946ZM662.69 247.283C667.026 248.839 670.734 251.014 673.863 253.789L679.265 247.696C675.304 244.184 670.679 241.499 665.439 239.619L662.69 247.283ZM673.862 253.787C677.011 256.583 679.49 259.94 681.307 263.899L688.708 260.502C686.431 255.543 683.282 251.262 679.267 247.698L673.862 253.787ZM681.319 263.924C683.124 267.789 684.061 272.144 684.061 277.058L692.204 277.058C692.204 271.081 691.057 265.531 688.696 260.477L681.319 263.924ZM684.061 277.058L684.061 303.209L692.204 303.209L692.204 277.058L684.061 277.058ZM684.061 303.209C684.061 308.083 683.126 312.398 681.324 316.222L688.691 319.692C691.056 314.671 692.204 309.154 692.204 303.209L684.061 303.209ZM681.313 316.247C679.499 320.166 677.024 323.485 673.879 326.245L679.25 332.366C683.269 328.839 686.422 324.593 688.702 319.667L681.313 316.247ZM673.846 326.275C670.719 329.08 667.016 331.267 662.69 332.82L665.439 340.484C670.689 338.601 675.32 335.891 679.283 332.336L673.846 326.275ZM662.68 332.823C658.403 334.369 653.794 335.157 648.823 335.157L648.823 343.3C654.671 343.3 660.223 342.37 665.449 340.481L662.68 332.823ZM648.823 332.061C653.1 332.061 657.174 331.435 661.021 330.153L658.446 322.428C655.494 323.412 652.296 323.918 648.823 323.918L648.823 332.061ZM661.021 330.153C664.878 328.867 668.309 326.974 671.261 324.45L665.969 318.262C663.877 320.05 661.387 321.447 658.446 322.428L661.021 330.153ZM671.213 324.491C674.238 321.984 676.611 318.913 678.322 315.321L670.97 311.821C669.756 314.369 668.109 316.488 666.017 318.221L671.213 324.491ZM678.296 315.374C680.109 311.704 680.965 307.618 680.965 303.209L672.822 303.209C672.822 306.549 672.179 309.371 670.995 311.768L678.296 315.374ZM680.965 303.209L680.965 277.058L672.822 277.058L672.822 303.209L680.965 303.209ZM680.965 277.058C680.965 272.647 680.108 268.541 678.313 264.818L670.979 268.356C672.18 270.846 672.822 273.72 672.822 277.058L680.965 277.058ZM678.322 264.836C676.614 261.251 674.248 258.171 671.239 255.634L665.991 261.86C668.098 263.636 669.753 265.782 670.97 268.337L678.322 264.836ZM671.235 255.63C668.296 253.16 664.887 251.28 661.058 249.963L658.409 257.663C661.378 258.684 663.89 260.094 665.995 261.864L671.235 255.63ZM661.021 249.95C657.174 248.668 653.1 248.042 648.823 248.042L648.823 256.185C652.296 256.185 655.494 256.691 658.446 257.675L661.021 249.95ZM648.823 248.042C644.547 248.042 640.459 248.668 636.584 249.946L639.134 257.679C642.13 256.691 645.352 256.185 648.823 256.185L648.823 248.042ZM636.534 249.963C632.709 251.279 629.291 253.154 626.325 255.612L631.52 261.882C633.671 260.1 636.21 258.686 639.183 257.663L636.534 249.963ZM626.276 255.653C623.31 258.189 620.972 261.264 619.271 264.836L626.622 268.337C627.845 265.769 629.491 263.618 631.568 261.841L626.276 255.653ZM619.263 264.853C617.515 268.568 616.682 272.662 616.682 277.058L624.825 277.058C624.825 273.706 625.455 270.819 626.63 268.32L619.263 264.853ZM616.682 277.058L616.682 303.209L624.825 303.209L624.825 277.058L616.682 277.058ZM616.682 303.209C616.682 307.603 617.514 311.676 619.279 315.339L626.614 311.803C625.455 309.399 624.825 306.564 624.825 303.209L616.682 303.209ZM619.271 315.321C620.975 318.9 623.321 321.966 626.303 324.473L631.542 318.239C629.48 316.506 627.842 314.382 626.622 311.821L619.271 315.321ZM626.298 324.469C629.278 326.981 632.718 328.868 636.571 330.153L639.146 322.428C636.201 321.446 633.683 320.044 631.546 318.243L626.298 324.469ZM636.584 330.157C640.459 331.435 644.547 332.061 648.823 332.061L648.823 323.918C645.352 323.918 642.13 323.412 639.134 322.424L636.584 330.157ZM609.515 376.621L605.443 376.621L605.443 380.692L609.515 380.692L609.515 376.621ZM609.515 365.382L609.515 361.311L605.443 361.311L605.443 365.382L609.515 365.382ZM688.132 365.382L692.204 365.382L692.204 361.311L688.132 361.311L688.132 365.382ZM688.132 376.621L688.132 380.692L692.204 380.692L692.204 376.621L688.132 376.621ZM613.586 376.621L613.586 365.382L605.443 365.382L605.443 376.621L613.586 376.621ZM609.515 369.453L688.132 369.453L688.132 361.311L609.515 361.311L609.515 369.453ZM684.061 365.382L684.061 376.621L692.204 376.621L692.204 365.382L684.061 365.382ZM688.132 372.549L609.515 372.549L609.515 380.692L688.132 380.692L688.132 372.549ZM623.166 498.058L624.806 494.332L624.794 494.327L624.782 494.321L623.166 498.058ZM609.515 424.155L609.515 420.084L605.443 420.084L605.443 424.155L609.515 424.155ZM620.754 424.155L624.825 424.155L624.825 420.084L620.754 420.084L620.754 424.155ZM621.631 481.721L625.383 480.141L625.375 480.123L625.368 480.105L621.631 481.721ZM624.043 485.339L621.164 488.218L624.043 485.339ZM627.607 487.751L625.991 491.488L626.009 491.496L626.027 491.504L627.607 487.751ZM636.324 487.751L637.94 491.488L636.324 487.751ZM642.299 481.721L638.562 480.105L638.555 480.123L638.547 480.141L642.299 481.721ZM643.177 424.155L643.177 420.084L639.105 420.084L639.105 424.155L643.177 424.155ZM654.416 424.155L658.487 424.155L658.487 420.084L654.416 420.084L654.416 424.155ZM655.293 470.482L659.045 468.902L659.037 468.884L659.03 468.866L655.293 470.482ZM661.269 476.512L659.653 480.249L659.671 480.257L659.689 480.265L661.269 476.512ZM669.986 476.512L668.406 472.76L668.388 472.768L668.37 472.776L669.986 476.512ZM673.604 474.1L676.483 476.979L673.604 474.1ZM676.016 470.482L672.279 468.866L672.272 468.884L672.264 468.902L676.016 470.482ZM676.893 418.563L680.965 418.563L680.965 414.492L676.893 414.492L676.893 418.563ZM609.515 418.563L605.443 418.563L605.443 422.635L609.515 422.635L609.515 418.563ZM609.515 407.325L609.515 403.253L605.443 403.253L605.443 407.325L609.515 407.325ZM688.132 407.325L692.204 407.325L692.204 403.253L688.132 403.253L688.132 407.325ZM686.323 474.868L682.597 473.228L682.587 473.249L682.578 473.27L686.323 474.868ZM681.499 481.995L678.646 479.09L678.62 479.116L678.594 479.142L681.499 481.995ZM674.371 486.819L672.774 483.075L672.753 483.084L672.732 483.093L674.371 486.819ZM658.911 487.587L657.624 491.449L657.634 491.453L657.644 491.456L658.911 487.587ZM653.1 484.791L655.326 481.382L650.974 478.54L649.257 483.446L653.1 484.791ZM649.865 490.822L646.624 488.358L646.612 488.373L646.6 488.389L649.865 490.822ZM645.041 495.591L642.662 492.287L642.64 492.303L642.619 492.319L645.041 495.591ZM638.955 498.716L637.687 494.847L637.648 494.86L637.61 494.873L638.955 498.716ZM631.992 495.796C629.385 495.796 627.004 495.299 624.806 494.332L621.526 501.785C624.81 503.23 628.313 503.939 631.992 503.939L631.992 495.796ZM624.782 494.321C622.54 493.352 620.595 492.032 618.918 490.355L613.16 496.113C615.576 498.529 618.383 500.426 621.55 501.795L624.782 494.321ZM618.918 490.355C617.293 488.73 615.989 486.795 615.014 484.509L607.524 487.704C608.888 490.901 610.764 493.717 613.16 496.113L618.918 490.355ZM615.014 484.509C614.066 482.288 613.586 479.928 613.586 477.39L605.443 477.39C605.443 480.992 606.133 484.443 607.524 487.704L615.014 484.509ZM613.586 477.39L613.586 424.155L605.443 424.155L605.443 477.39L613.586 477.39ZM609.515 428.227L620.754 428.227L620.754 420.084L609.515 420.084L609.515 428.227ZM616.682 424.155L616.682 477.39L624.825 477.39L624.825 424.155L616.682 424.155ZM616.682 477.39C616.682 479.457 617.079 481.453 617.894 483.337L625.368 480.105C625.013 479.284 624.825 478.393 624.825 477.39L616.682 477.39ZM617.878 483.301C618.659 485.155 619.753 486.807 621.164 488.218L626.922 482.46C626.286 481.825 625.772 481.065 625.383 480.141L617.878 483.301ZM621.164 488.218C622.557 489.611 624.176 490.703 625.991 491.488L629.223 484.014C628.333 483.63 627.576 483.114 626.922 482.46L621.164 488.218ZM626.027 491.504C627.925 492.303 629.925 492.7 631.992 492.7L631.992 484.557C630.99 484.557 630.066 484.369 629.186 483.999L626.027 491.504ZM631.992 492.7C634.06 492.7 636.056 492.303 637.94 491.488L634.708 484.014C633.887 484.369 632.996 484.557 631.992 484.557L631.992 492.7ZM637.94 491.488C639.755 490.703 641.373 489.611 642.766 488.218L637.008 482.46C636.355 483.114 635.597 483.63 634.708 484.014L637.94 491.488ZM642.766 488.218C644.177 486.807 645.271 485.155 646.052 483.301L638.547 480.141C638.158 481.065 637.644 481.825 637.008 482.46L642.766 488.218ZM646.036 483.337C646.851 481.453 647.248 479.457 647.248 477.39L639.105 477.39C639.105 478.393 638.917 479.284 638.562 480.105L646.036 483.337ZM647.248 477.39L647.248 424.155L639.105 424.155L639.105 477.39L647.248 477.39ZM643.177 428.227L654.416 428.227L654.416 420.084L643.177 420.084L643.177 428.227ZM650.344 424.155L650.344 466.151L658.487 466.151L658.487 424.155L650.344 424.155ZM650.344 466.151C650.344 468.218 650.741 470.214 651.556 472.098L659.03 468.866C658.675 468.045 658.487 467.154 658.487 466.151L650.344 466.151ZM651.54 472.062C652.321 473.916 653.415 475.568 654.826 476.979L660.584 471.221C659.948 470.586 659.434 469.826 659.045 468.902L651.54 472.062ZM654.826 476.979C656.219 478.372 657.838 479.465 659.653 480.249L662.885 472.776C661.995 472.391 661.238 471.875 660.584 471.221L654.826 476.979ZM659.689 480.265C661.587 481.064 663.587 481.461 665.654 481.461L665.654 473.318C664.652 473.318 663.728 473.13 662.848 472.76L659.689 480.265ZM665.654 481.461C667.722 481.461 669.718 481.064 671.602 480.249L668.37 472.776C667.549 473.13 666.657 473.318 665.654 473.318L665.654 481.461ZM671.565 480.265C673.419 479.484 675.072 478.39 676.483 476.979L670.725 471.221C670.089 471.857 669.329 472.371 668.406 472.76L671.565 480.265ZM676.483 476.979C677.894 475.568 678.988 473.916 679.769 472.062L672.264 468.902C671.875 469.826 671.361 470.586 670.725 471.221L676.483 476.979ZM679.753 472.098C680.568 470.214 680.965 468.218 680.965 466.151L672.822 466.151C672.822 467.154 672.634 468.045 672.279 468.866L679.753 472.098ZM680.965 466.151L680.965 418.563L672.822 418.563L672.822 466.151L680.965 466.151ZM676.893 414.492L609.515 414.492L609.515 422.635L676.893 422.635L676.893 414.492ZM613.586 418.563L613.586 407.325L605.443 407.325L605.443 418.563L613.586 418.563ZM609.515 411.396L688.132 411.396L688.132 403.253L609.515 403.253L609.515 411.396ZM684.061 407.325L684.061 466.151L692.204 466.151L692.204 407.325L684.061 407.325ZM684.061 466.151C684.061 468.671 683.57 471.017 682.597 473.228L690.05 476.507C691.489 473.236 692.204 469.771 692.204 466.151L684.061 466.151ZM682.578 473.27C681.61 475.541 680.298 477.468 678.646 479.09L684.351 484.9C686.793 482.502 688.698 479.677 690.068 476.466L682.578 473.27ZM678.594 479.142C676.971 480.794 675.045 482.106 672.774 483.075L675.969 490.564C679.181 489.194 682.005 487.289 684.403 484.848L678.594 479.142ZM672.732 483.093C670.521 484.066 668.175 484.557 665.654 484.557L665.654 492.7C669.275 492.7 672.74 491.985 676.011 490.546L672.732 483.093ZM665.654 484.557C663.681 484.557 661.863 484.27 660.179 483.718L657.644 491.456C660.198 492.293 662.876 492.7 665.654 492.7L665.654 484.557ZM660.199 483.724C658.437 483.137 656.817 482.356 655.326 481.382L650.874 488.2C652.964 489.565 655.218 490.648 657.624 491.449L660.199 483.724ZM649.257 483.446C648.628 485.242 647.752 486.874 646.624 488.358L653.107 493.285C654.756 491.114 656.036 488.726 656.943 486.136L649.257 483.446ZM646.6 488.389C645.452 489.93 644.14 491.223 642.662 492.287L647.42 498.895C649.596 497.328 651.5 495.441 653.13 493.254L646.6 488.389ZM642.619 492.319C641.153 493.403 639.516 494.248 637.687 494.847L640.224 502.585C642.854 501.723 645.274 500.484 647.462 498.864L642.619 492.319ZM637.61 494.873C635.872 495.482 634.008 495.796 631.992 495.796L631.992 503.939C634.874 503.939 637.652 503.486 640.3 502.559L637.61 494.873ZM609.515 606.119L605.443 606.119L605.443 610.19L609.515 610.19L609.515 606.119ZM609.515 524.815L609.515 520.743L605.443 520.743L605.443 524.815L609.515 524.815ZM688.132 524.815L692.204 524.815L692.204 520.743L688.132 520.743L688.132 524.815ZM688.132 606.119L688.132 610.19L692.204 610.19L692.204 606.119L688.132 606.119ZM676.893 606.119L672.822 606.119L672.822 610.19L676.893 610.19L676.893 606.119ZM676.893 536.054L680.965 536.054L680.965 531.982L676.893 531.982L676.893 536.054ZM620.754 536.054L620.754 531.982L616.682 531.982L616.682 536.054L620.754 536.054ZM620.754 606.119L620.754 610.19L624.825 610.19L624.825 606.119L620.754 606.119ZM643.177 596.579L639.105 596.579L639.105 600.651L643.177 600.651L643.177 596.579ZM643.177 541.646L643.177 537.574L639.105 537.574L639.105 541.646L643.177 541.646ZM654.416 541.646L658.487 541.646L658.487 537.574L654.416 537.574L654.416 541.646ZM654.416 596.579L654.416 600.651L658.487 600.651L658.487 596.579L654.416 596.579ZM613.586 606.119L613.586 524.815L605.443 524.815L605.443 606.119L613.586 606.119ZM609.515 528.886L688.132 528.886L688.132 520.743L609.515 520.743L609.515 528.886ZM684.061 524.815L684.061 606.119L692.204 606.119L692.204 524.815L684.061 524.815ZM688.132 602.047L676.893 602.047L676.893 610.19L688.132 610.19L688.132 602.047ZM680.965 606.119L680.965 536.054L672.822 536.054L672.822 606.119L680.965 606.119ZM676.893 531.982L620.754 531.982L620.754 540.125L676.893 540.125L676.893 531.982ZM616.682 536.054L616.682 606.119L624.825 606.119L624.825 536.054L616.682 536.054ZM620.754 602.047L609.515 602.047L609.515 610.19L620.754 610.19L620.754 602.047ZM647.248 596.579L647.248 541.646L639.105 541.646L639.105 596.579L647.248 596.579ZM643.177 545.717L654.416 545.717L654.416 537.574L643.177 537.574L643.177 545.717ZM650.344 541.646L650.344 596.579L658.487 596.579L658.487 541.646L650.344 541.646ZM654.416 592.508L643.177 592.508L643.177 600.651L654.416 600.651L654.416 592.508ZM609.515 713.192L605.443 713.192L605.443 717.264L609.515 717.264L609.515 713.192ZM609.515 631.888L609.515 627.817L605.443 627.817L605.443 631.888L609.515 631.888ZM688.132 631.888L692.204 631.888L692.204 627.817L688.132 627.817L688.132 631.888ZM688.132 713.192L688.132 717.264L692.204 717.264L692.204 713.192L688.132 713.192ZM676.893 713.192L672.822 713.192L672.822 717.264L676.893 717.264L676.893 713.192ZM676.893 643.127L680.965 643.127L680.965 639.056L676.893 639.056L676.893 643.127ZM620.754 643.127L620.754 639.056L616.682 639.056L616.682 643.127L620.754 643.127ZM620.754 713.192L620.754 717.264L624.825 717.264L624.825 713.192L620.754 713.192ZM643.177 703.653L639.105 703.653L639.105 707.724L643.177 707.724L643.177 703.653ZM643.177 648.719L643.177 644.648L639.105 644.648L639.105 648.719L643.177 648.719ZM654.416 648.719L658.487 648.719L658.487 644.648L654.416 644.648L654.416 648.719ZM654.416 703.653L654.416 707.724L658.487 707.724L658.487 703.653L654.416 703.653ZM613.586 713.192L613.586 631.888L605.443 631.888L605.443 713.192L613.586 713.192ZM609.515 635.96L688.132 635.96L688.132 627.817L609.515 627.817L609.515 635.96ZM684.061 631.888L684.061 713.192L692.204 713.192L692.204 631.888L684.061 631.888ZM688.132 709.121L676.893 709.121L676.893 717.264L688.132 717.264L688.132 709.121ZM680.965 713.192L680.965 643.127L672.822 643.127L672.822 713.192L680.965 713.192ZM676.893 639.056L620.754 639.056L620.754 647.199L676.893 647.199L676.893 639.056ZM616.682 643.127L616.682 713.192L624.825 713.192L624.825 643.127L616.682 643.127ZM620.754 709.121L609.515 709.121L609.515 717.264L620.754 717.264L620.754 709.121ZM647.248 703.653L647.248 648.719L639.105 648.719L639.105 703.653L647.248 703.653ZM643.177 652.791L654.416 652.791L654.416 644.648L643.177 644.648L643.177 652.791ZM650.344 648.719L650.344 703.653L658.487 703.653L658.487 648.719L650.344 648.719ZM654.416 699.582L643.177 699.582L643.177 707.724L654.416 707.724L654.416 699.582Z" fill="black"/>
<path d="M594.603 118.998L598.674 118.998L598.674 114.927L594.603 114.927L594.603 118.998ZM594.602 717.688L594.602 721.759L598.674 721.759L598.674 717.688L594.602 717.688ZM592.355 717.688L588.283 717.688L588.283 721.759L592.355 721.759L592.355 717.688ZM592.355 118.998L592.355 114.927L588.283 114.927L588.283 118.998L592.355 118.998ZM590.531 118.998L590.531 717.688L598.674 717.688L598.674 118.998L590.531 118.998ZM594.602 713.617L592.355 713.617L592.355 721.759L594.602 721.759L594.602 713.617ZM596.426 717.688L596.426 118.998L588.283 118.998L588.283 717.688L596.426 717.688ZM592.355 123.07L594.603 123.07L594.603 114.927L592.355 114.927L592.355 123.07Z" fill="black"/>
</svg>
