<svg width="640" height="365" viewBox="0 0 640 365" fill="none" xmlns="http://www.w3.org/2000/svg">
<path d="M25.2694 59.8054L107.692 12.2184L190.116 59.8054V154.979L107.692 202.566L25.2694 154.979L25.2694 59.8054Z" stroke="white" stroke-width="20"/>
<path d="M113.49 200.592L195.913 153.005L278.336 200.592V295.766L195.913 343.353L113.49 295.766V200.592Z" stroke="white" stroke-width="20"/>
<path d="M198.141 59.8054L280.564 12.2184L362.987 59.8054V154.979L280.564 202.566L198.141 154.979V59.8054Z" stroke="white" stroke-width="20"/>
<path d="M285.711 200.592L368.134 153.005L450.558 200.592V295.766L368.134 343.353L285.711 295.766V200.592Z" stroke="white" stroke-width="20"/>
<path d="M368.582 59.8054L451.006 12.2184L533.429 59.8054V154.979L451.006 202.566L368.582 154.979V59.8054Z" stroke="white" stroke-width="20"/>
<path d="M449.888 210.084L532.311 162.497L614.735 210.084V305.258L532.311 352.845L449.888 305.258V210.084Z" stroke="white" stroke-width="20"/>
<path d="M118.935 162.354C118.782 162.621 118.292 162.591 117.465 162.266C115.888 161.66 112.191 159.678 106.373 156.319C101.392 153.443 98.0738 151.375 96.4183 150.115C95.6476 149.518 95.2272 149.148 95.157 149.006C94.9947 148.761 94.9481 148.227 95.0171 147.405C95.3029 145.592 95.7397 142.904 96.3274 139.339C97.0398 134.681 97.9585 127.733 99.0834 118.496C99.2551 116.618 98.1491 114.889 95.7653 113.31C96.8621 114.044 94.8819 112.952 89.8246 110.032C89.2542 109.703 88.4092 110.508 87.2895 112.447C85.7967 115.033 83.7965 119.024 81.2891 124.421C78.8197 129.84 76.8385 133.842 75.3457 136.427C74.9724 137.074 74.5818 137.355 74.1737 137.272C73.6194 137.003 73.0651 136.733 72.5108 136.464C70.1795 135.321 66.6373 133.377 61.8842 130.633C56.4466 127.493 53.2423 125.491 52.2713 124.626C51.3003 123.762 51.0892 122.854 51.6381 121.903C54.053 117.721 57.8874 111.518 63.1414 103.296C68.4334 95.0961 72.2979 88.8857 74.7347 84.665C84.0211 68.5804 90.9046 55.8236 95.3852 46.3945L95.7892 45.5631C96.1244 44.8947 96.9662 44.7977 98.3148 45.2721C99.7013 45.7684 105.651 48.8992 116.163 54.6644C123.286 58.5737 128.938 61.7359 133.121 64.1508C141.791 69.1562 147.733 75.1979 150.947 82.2758C154.599 90.2652 154.02 98.4236 149.213 106.751C146.007 112.303 142.651 116.272 139.144 118.658C135.637 121.044 130.835 122.556 124.738 123.193C123.512 123.296 122.746 123.614 122.438 124.147C122.46 124.108 122.025 130.22 121.131 142.48C120.238 154.741 119.506 161.366 118.935 162.354ZM124.518 97.3609C127.197 92.7219 127.531 88.6306 125.52 85.0871C123.953 82.3571 120.66 79.5432 115.641 76.6453C112.028 74.5597 109.79 74.0024 108.925 74.9734C107.95 76.1345 105.685 79.7951 102.128 85.9551C101.623 86.8297 100.896 88.1335 99.9461 89.8666C98.9962 91.5997 98.2798 92.8845 97.7968 93.721C97.687 93.9112 98.1856 94.4525 99.2927 95.3452C101.415 97.0266 103.749 98.6027 106.297 100.074C114.625 104.882 120.698 103.977 124.518 97.3609Z" fill="#9B51E0"/>
<path d="M325.017 134.341C318.168 146.204 308.643 153.963 296.444 157.618C284.027 161.299 271.906 159.725 260.08 152.898C248.33 146.114 240.948 136.376 237.933 123.684C234.96 111.27 236.876 99.1692 243.682 87.3815C250.51 75.5557 260.053 67.8076 272.312 64.137C284.833 60.3642 296.969 61.8696 308.718 68.6533C320.392 75.3931 327.744 85.139 330.776 97.8909C333.72 110.441 331.801 122.591 325.017 134.341ZM303.466 121.746C306.759 116.042 307.828 110.195 306.673 104.205C305.475 97.9362 302.063 93.1774 296.435 89.9283C291.074 86.8328 285.278 86.3767 279.049 88.5601C273.022 90.6573 268.439 94.4246 265.299 99.8622C261.94 105.68 260.833 111.505 261.978 117.338C263.203 123.47 266.687 128.194 272.429 131.509C277.79 134.604 283.594 135.09 289.839 132.967C295.784 130.924 300.327 127.183 303.466 121.746Z" fill="#9B51E0"/>
<path d="M470.149 107.32C467.558 111.807 463.776 118.623 458.801 127.766C453.826 136.91 450.043 143.725 447.453 148.212C447.014 148.973 446.568 149.349 446.116 149.342C446.018 149.336 445.48 149.127 444.501 148.714C441.854 147.591 438.458 145.833 434.313 143.44C428.762 140.235 425.313 138.041 423.968 136.859C422.997 135.994 422.786 135.086 423.335 134.136C422.983 134.744 425.086 131.497 429.644 124.393C439.219 109.388 445.401 99.4714 448.189 94.6422C450.539 90.5735 453.929 84.3937 458.361 76.1026C462.793 67.8116 466.183 61.6318 468.532 57.5631C469.015 56.7265 469.694 56.5607 470.569 57.0657C471.748 57.7462 473.483 58.8241 475.774 60.2993C478.104 61.7965 479.858 62.8854 481.037 63.5659C482.216 64.2465 483.979 65.1883 486.326 66.3915C488.712 67.6166 490.494 68.5694 491.673 69.25C492.775 69.8867 493.085 70.6233 492.602 71.4598C490.253 75.5285 486.501 81.4998 481.347 89.3737C476.231 97.2695 472.498 103.252 470.149 107.32Z" fill="#9B51E0"/>
<path d="M218.41 282.037C214.371 289.033 208.836 293.57 201.807 295.646C193.774 298.056 183.503 295.649 170.992 288.426C170.042 287.878 168.684 287.068 166.919 285.998C165.093 284.945 163.743 284.165 162.869 283.66C148.838 275.559 140.656 270.455 138.323 268.348C137.352 267.483 137.141 266.576 137.69 265.625C140.039 261.556 143.824 255.528 149.044 247.54C154.302 239.574 158.117 233.538 160.488 229.431C163.035 225.02 167.592 216.599 174.161 204.167C175.848 200.984 178.339 196.186 181.635 189.774L182.039 188.943C182.418 188.198 183.26 188.101 184.564 188.652C185.907 189.224 190.362 191.695 197.929 196.063C210.059 203.067 217.129 207.199 219.138 208.46C228.295 214.203 234.318 219.709 237.208 224.977C241.016 231.993 240.44 239.797 235.478 248.391C234.183 250.634 232.126 252.615 229.309 254.335C227.288 255.551 224.963 256.592 222.335 257.457C220.028 258.204 218.907 258.52 218.973 258.406C218.819 258.672 219.072 259.376 219.731 260.517C221.515 263.575 222.212 267.197 221.823 271.383C221.48 275.139 220.342 278.691 218.41 282.037ZM212.424 235.765C214.312 232.494 213.928 229.383 211.273 226.43C209.777 224.806 206.938 222.787 202.755 220.372C198.648 218.001 196.419 217.119 196.068 217.728C195.651 218.45 194.938 219.509 193.93 220.904C192.981 222.283 192.299 223.334 191.882 224.057C189.686 227.859 188.78 230.175 189.163 231.005C189.384 231.588 191.699 233.153 196.11 235.7C204.286 240.42 209.724 240.442 212.424 235.765ZM195.727 268.636C197.703 265.214 197.616 262.071 195.467 259.208C194.08 257.394 191.334 255.301 187.227 252.93C182.322 250.098 179.551 248.752 178.913 248.89C178.297 248.991 176.749 251.19 174.268 255.487C171.677 259.974 170.486 262.607 170.695 263.387C170.926 264.128 173.532 265.937 178.514 268.813C182.62 271.184 185.697 272.529 187.743 272.849C191.156 273.349 193.817 271.945 195.727 268.636Z" fill="#FFBD12"/>
<path d="M382.257 289.875C381.313 291.51 379.256 294.327 376.085 298.327C372.656 302.685 370.412 305.166 369.353 305.772C368.479 306.231 367.643 306.23 366.845 305.769C366.503 305.571 365.965 305.185 365.233 304.61C362.676 302.627 354.687 297.761 341.264 290.011C338.336 288.32 333.993 285.788 328.235 282.413C322.477 279.038 318.154 276.516 315.264 274.848C314.009 274.123 313.7 273.209 314.336 272.107C316.795 267.848 320.712 261.591 326.086 253.337C331.519 245.067 335.466 238.803 337.925 234.544C340.427 230.209 344.864 221.997 351.236 209.908C352.878 206.8 355.292 202.135 358.479 195.913L358.883 195.082C359.312 194.164 360.039 194.001 361.066 194.593C363.88 196.218 368.057 198.731 373.597 202.132C379.175 205.555 383.37 208.079 386.184 209.704C388.96 211.306 393.187 213.645 398.864 216.72C404.542 219.796 408.768 222.134 411.544 223.737C413.521 224.879 414.234 226.279 413.682 227.937C413.367 228.922 412.116 231.748 409.927 236.417C407.799 241.069 406.46 243.87 405.912 244.821C405.451 245.62 404.84 245.799 404.079 245.36C403.851 245.228 403.463 244.979 402.914 244.612C393.283 237.935 384.436 232.27 376.375 227.616C374.36 226.452 372.849 226.214 371.844 226.901C371.391 227.248 370.45 228.657 369.023 231.129C367.531 233.714 366.923 235.645 367.2 236.921C367.43 238.016 368.457 239.091 370.282 240.145C370.662 240.364 371.415 240.773 372.54 241.372C373.686 241.933 374.621 242.422 375.343 242.839C380.134 245.605 385.059 248.271 390.118 250.837C390.559 251.04 391.659 251.549 393.42 252.363C394.801 252.957 395.871 253.474 396.632 253.913C397.544 254.44 397.748 255.14 397.243 256.015C397.704 255.217 395.683 257.928 391.178 264.149C389.118 267.015 387.209 269.97 385.453 273.012C385.014 273.772 384.243 273.834 383.14 273.197C383.14 273.197 381.539 272.019 378.336 269.663C376.301 268.184 371.423 265.216 363.704 260.759L357.658 257.268C356.099 256.368 354.967 256.222 354.262 256.828C354.114 256.997 353.414 258.164 352.163 260.332C350.495 263.222 349.609 265.195 349.506 266.251C349.318 268.069 351.258 270.33 355.325 273.033C355.249 272.989 358.025 274.591 363.653 277.84C365.668 279.004 368.752 280.556 372.904 282.497C377.116 284.422 380.211 285.955 382.188 287.097C383.025 287.58 383.048 288.506 382.257 289.875Z" fill="#FFBD12"/>
<path d="M547.881 296.629C546.937 298.264 544.88 301.082 541.708 305.081C538.28 309.439 536.036 311.921 534.977 312.526C534.103 312.985 533.267 312.984 532.469 312.523C532.126 312.326 531.589 311.939 530.856 311.364C528.3 309.381 520.31 304.515 506.888 296.765C503.96 295.075 499.617 292.542 493.859 289.167C488.101 285.792 483.777 283.271 480.887 281.602C479.633 280.878 479.323 279.964 479.96 278.861C482.419 274.603 486.335 268.346 491.709 260.092C497.143 251.822 501.09 245.557 503.548 241.298C506.051 236.963 510.488 228.751 516.859 216.662C518.502 213.554 520.916 208.89 524.102 202.668L524.506 201.837C524.935 200.918 525.663 200.755 526.69 201.348C529.504 202.973 533.68 205.485 539.22 208.887C544.798 212.31 548.994 214.834 551.808 216.458C554.584 218.061 558.81 220.4 564.488 223.475C570.165 226.55 574.392 228.889 577.168 230.492C579.145 231.633 579.858 233.033 579.306 234.692C578.991 235.676 577.74 238.503 575.551 243.171C573.423 247.823 572.084 250.625 571.535 251.576C571.074 252.374 570.464 252.554 569.703 252.115C569.475 251.983 569.087 251.734 568.538 251.366C558.907 244.69 550.06 239.025 541.999 234.371C539.983 233.207 538.473 232.969 537.468 233.656C537.015 234.003 536.074 235.412 534.647 237.883C533.154 240.469 532.547 242.4 532.824 243.675C533.054 244.771 534.081 245.846 535.906 246.899C536.286 247.119 537.039 247.528 538.163 248.127C539.31 248.687 540.245 249.176 540.967 249.593C545.758 252.359 550.683 255.025 555.742 257.591C556.182 257.795 557.283 258.303 559.044 259.117C560.424 259.712 561.495 260.228 562.256 260.667C563.168 261.194 563.372 261.895 562.867 262.77C563.328 261.971 561.306 264.682 556.802 270.904C554.742 273.77 552.833 276.724 551.077 279.766C550.638 280.527 549.867 280.589 548.764 279.952C548.764 279.952 547.163 278.774 543.96 276.418C541.924 274.938 537.047 271.97 529.328 267.514L523.282 264.023C521.723 263.123 520.591 262.976 519.886 263.583C519.738 263.751 519.038 264.919 517.787 267.086C516.118 269.976 515.233 271.949 515.13 273.005C514.942 274.824 516.882 277.084 520.949 279.787C520.873 279.743 523.649 281.346 529.276 284.595C531.292 285.759 534.375 287.311 538.528 289.252C542.74 291.177 545.834 292.71 547.812 293.852C548.648 294.335 548.671 295.26 547.881 296.629Z" fill="#FFBD12"/>
</svg>
