<svg width="652" height="420" viewBox="0 0 652 420" fill="none" xmlns="http://www.w3.org/2000/svg">
<rect x="120.533" y="51.8894" width="83.9879" height="145.2" transform="rotate(30 120.533 51.8894)" fill="white"/>
<rect x="285.471" y="54.7254" width="83.9879" height="145.2" transform="rotate(30 285.471 54.7254)" fill="white"/>
<rect x="450.409" y="57.5615" width="83.9879" height="145.2" transform="rotate(30 450.409 57.5615)" fill="white"/>
<rect x="201.414" y="195.831" width="83.9879" height="145.2" transform="rotate(30 201.414 195.831)" fill="#F2C94C"/>
<rect x="366.717" y="198.657" width="83.9879" height="145.2" transform="rotate(30 366.717 198.657)" fill="#F2C94C"/>
<rect x="534.263" y="197.597" width="83.9879" height="149.688" transform="rotate(30 534.263 197.597)" fill="#F2C94C"/>
<path d="M111.596 131.384L127.196 140.391C129.568 141.76 132.012 142.149 134.526 141.556C137.065 140.977 139.151 139.274 140.783 136.446C141.987 134.361 142.204 131.994 141.433 129.345C140.676 126.671 139.195 124.698 136.991 123.425L114.778 110.601L87.8831 157.183L85.2952 155.689L113.684 106.519L138.485 120.838C141.408 122.525 143.355 125.103 144.324 128.57C145.308 132.013 144.99 135.137 143.371 137.94C141.379 141.391 138.703 143.536 135.343 144.376C131.983 145.215 128.769 144.749 125.702 142.979L110.102 133.972L111.596 131.384ZM108.608 136.56L124.208 145.567C127.946 147.725 131.911 148.273 136.102 147.21C140.308 146.124 143.594 143.532 145.959 139.434C147.993 135.912 148.4 132.025 147.18 127.775C145.998 123.514 143.597 120.339 139.979 118.25L112.59 102.437L82.7073 154.195L80.1194 152.701L111.496 98.3545L141.473 115.662C144.325 117.308 146.574 119.581 148.223 122.482C149.895 125.396 150.761 128.516 150.822 131.842C150.896 135.144 150.138 138.173 148.547 140.929C145.822 145.649 141.934 148.676 136.883 150.009C131.869 151.332 127.146 150.714 122.713 148.155L107.114 139.148L108.608 136.56ZM105.62 141.736L121.219 150.742C124.574 152.679 128.166 153.651 131.996 153.658C135.826 153.665 139.455 152.692 142.882 150.741C146.323 148.766 149.074 145.993 151.135 142.423C153.003 139.188 153.89 135.658 153.797 131.835C153.742 128.001 152.756 124.397 150.839 121.021C148.922 117.646 146.298 114.997 142.967 113.074L110.403 94.2724L77.5314 151.207L74.9435 149.713L109.309 90.1904L144.461 110.486C148.224 112.658 151.198 115.669 153.384 119.519C155.584 123.345 156.714 127.448 156.773 131.827C156.87 136.197 155.854 140.227 153.723 143.917C151.261 148.182 148.173 151.4 144.46 153.569C140.771 155.753 136.832 156.849 132.641 156.858L127.996 180.343L125.264 178.765L129.491 156.669C128.312 156.499 127.429 156.34 126.842 156.193L122.676 177.271L119.945 175.694L123.902 155.31C123.658 155.234 122.843 154.875 121.456 154.234L117.357 174.2L114.625 172.623L118.755 152.77L116.418 151.421L112.037 171.129L109.305 169.552L113.651 149.823L104.126 144.324L105.62 141.736ZM93.059 160.172L90.4711 158.678L115.871 114.683L135.497 126.013C137.102 126.94 138.162 128.287 138.675 130.053C139.227 131.809 139.067 133.442 138.196 134.952C135.788 139.121 132.62 140.072 128.69 137.803L113.09 128.796L114.585 126.209L130.184 135.215C131.214 135.81 132.169 136.01 133.049 135.815C133.966 135.609 134.819 134.824 135.608 133.458C136.092 132.619 136.17 131.737 135.841 130.813C135.55 129.878 134.937 129.141 134.002 128.601L116.965 118.765L93.059 160.172Z" fill="black"/>
<path d="M282.595 120.256C278.21 121.431 274.884 123.983 272.615 127.913C270.346 131.843 269.799 136 270.974 140.384C272.149 144.769 274.701 148.095 278.631 150.364C282.561 152.633 286.718 153.18 291.102 152.005C295.487 150.831 298.813 148.278 301.082 144.349C303.351 140.419 303.898 136.262 302.723 131.877C301.548 127.493 298.996 124.166 295.066 121.897C291.136 119.628 286.979 119.081 282.595 120.256ZM267.58 133.728C267.897 131.132 268.713 128.695 270.027 126.419C271.341 124.142 273.037 122.23 275.113 120.681C277.203 119.108 279.439 118.003 281.82 117.365C284.201 116.727 286.678 116.559 289.251 116.862C291.848 117.179 294.284 117.995 296.56 119.309C298.837 120.624 300.75 122.319 302.298 124.395C303.871 126.485 304.977 128.721 305.615 131.102C306.253 133.484 306.413 135.972 306.096 138.569C305.793 141.142 304.984 143.566 303.67 145.843C302.356 148.119 300.654 150.044 298.563 151.617C296.487 153.165 294.258 154.259 291.877 154.897C289.496 155.535 287.007 155.695 284.41 155.378C281.838 155.075 279.413 154.267 277.137 152.952C274.86 151.638 272.936 149.936 271.363 147.846C269.814 145.769 268.72 143.54 268.082 141.159C267.444 138.778 267.277 136.301 267.58 133.728ZM275.651 116.678C272.21 118.653 269.473 121.402 267.439 124.925C265.405 128.447 264.393 132.192 264.403 136.16C264.437 140.141 265.435 143.864 267.396 147.328C269.371 150.769 272.12 153.507 275.642 155.54C279.165 157.574 282.91 158.586 286.877 158.576C290.859 158.542 294.57 157.538 298.01 155.563C301.475 153.601 304.224 150.859 306.258 147.337C308.292 143.814 309.292 140.062 309.258 136.081C309.248 132.114 308.256 128.41 306.28 124.969C304.319 121.504 301.577 118.755 298.055 116.721C294.532 114.688 290.78 113.688 286.799 113.721C282.832 113.731 279.116 114.717 275.651 116.678ZM261.428 136.167C261.413 131.654 262.555 127.408 264.851 123.431C267.148 119.453 270.254 116.342 274.169 114.098C278.085 111.853 282.299 110.724 286.812 110.71C291.326 110.696 295.571 111.837 299.549 114.133C303.526 116.43 306.637 119.536 308.882 123.452C311.126 127.367 312.255 131.582 312.269 136.095C312.284 140.608 311.142 144.853 308.846 148.831C306.549 152.809 303.443 155.92 299.528 158.164C295.612 160.408 291.398 161.537 286.885 161.552C282.372 161.566 278.126 160.425 274.148 158.128C270.171 155.832 267.06 152.726 264.815 148.81C262.571 144.894 261.442 140.68 261.428 136.167ZM269.724 113.496C266.673 115.792 264.186 118.606 262.263 121.936C260.34 125.267 259.147 128.828 258.684 132.618C258.221 136.408 258.443 140.035 259.351 143.499C260.297 146.952 261.918 150.204 264.214 153.255C266.51 156.306 269.323 158.793 272.654 160.716C275.985 162.639 279.545 163.832 283.336 164.295C287.126 164.758 290.741 164.529 294.18 163.607C297.658 162.676 300.922 161.062 303.973 158.765C307.024 156.469 309.511 153.656 311.434 150.325C313.357 146.994 314.55 143.434 315.013 139.644C315.476 135.853 315.235 132.231 314.289 128.778C313.381 125.315 311.779 122.057 309.483 119.006C307.187 115.955 304.374 113.468 301.043 111.545C297.712 109.622 294.152 108.429 290.361 107.966C286.571 107.503 282.937 107.738 279.46 108.669C276.02 109.591 272.775 111.2 269.724 113.496ZM255.441 136.161C255.428 130.594 256.839 125.355 259.675 120.442C262.511 115.53 266.343 111.688 271.171 108.916C276.022 106.157 281.231 104.772 286.798 104.759C292.378 104.722 297.625 106.121 302.537 108.958C307.449 111.794 311.285 115.637 314.043 120.489C316.815 125.316 318.208 130.513 318.221 136.08C318.257 141.661 316.858 146.907 314.022 151.819C311.186 156.731 307.342 160.567 302.491 163.325C297.663 166.097 292.459 167.502 286.879 167.539C281.312 167.552 276.072 166.14 271.16 163.304C266.248 160.468 262.406 156.636 259.633 151.809C256.875 146.957 255.478 141.741 255.441 136.161ZM266.085 108.759C262.411 111.526 259.412 114.922 257.087 118.948C254.763 122.974 253.315 127.281 252.742 131.871C252.206 136.45 252.501 140.837 253.625 145.033C254.749 149.228 256.688 153.175 259.441 156.873C262.232 160.562 265.64 163.568 269.666 165.892C273.692 168.216 277.987 169.658 282.553 170.217C287.156 170.766 291.555 170.478 295.751 169.354C299.946 168.23 303.881 166.285 307.555 163.518C311.267 160.74 314.285 157.339 316.61 153.313C318.934 149.288 320.364 144.985 320.899 140.406C321.472 135.816 321.196 131.424 320.072 127.229C318.948 123.033 316.99 119.091 314.199 115.403C311.446 111.705 308.057 108.694 304.031 106.37C300.005 104.045 295.691 102.609 291.088 102.06C286.522 101.501 282.142 101.783 277.946 102.907C273.751 104.031 269.797 105.982 266.085 108.759ZM249.788 131.508C250.397 126.524 251.968 121.839 254.499 117.454C257.031 113.069 260.296 109.379 264.294 106.383C268.33 103.378 272.615 101.267 277.151 100.052C281.724 98.8263 286.491 98.5112 291.451 99.1064C296.449 99.6915 301.14 101.25 305.525 103.782C309.91 106.313 313.594 109.59 316.575 113.612C319.595 117.624 321.705 121.909 322.907 126.469C324.146 131.018 324.461 135.785 323.852 140.769C323.281 145.743 321.729 150.422 319.198 154.808C316.666 159.193 313.382 162.888 309.347 165.894C305.349 168.889 301.063 171 296.49 172.225C291.954 173.44 287.194 173.743 282.21 173.134C277.236 172.563 272.557 171.012 268.172 168.48C263.787 165.948 260.091 162.664 257.086 158.629C254.09 154.631 251.973 150.357 250.734 145.808C249.532 141.248 249.217 136.481 249.788 131.508Z" fill="black"/>
<path d="M475.471 115.551L478.059 117.045L443.693 176.568L441.105 175.073L475.471 115.551ZM470.295 112.563L472.883 114.057L438.517 173.579L435.929 172.085L470.295 112.563ZM465.119 109.575L467.707 111.069L433.342 170.591L430.754 169.097L465.119 109.575ZM459.943 106.586L462.531 108.08L428.166 167.603L425.578 166.109L459.943 106.586Z" fill="black"/>
<path d="M206.914 295.985C207.454 295.049 207.527 294.259 207.131 293.614C206.759 292.984 206.033 292.357 204.953 291.733L188.252 282.091L189.748 279.499L206.45 289.142C210.385 291.414 211.404 294.194 209.506 297.481C208.439 299.329 207.13 300.349 205.579 300.541C204.028 300.734 202.365 300.317 200.589 299.292L183.888 289.65L185.384 287.058L202.085 296.701C204.293 297.975 205.903 297.737 206.914 295.985ZM173.471 304.368L170.879 302.872L196.315 258.815L217.048 270.785C218.68 271.727 219.781 273.034 220.35 274.707C220.934 276.356 220.797 277.924 219.938 279.412C218.802 281.38 217.437 282.496 215.845 282.76C214.266 283.001 212.589 282.608 210.814 281.583L194.112 271.94L195.609 269.349L212.31 278.991C214.517 280.266 216.196 279.907 217.346 277.916C217.817 277.1 217.872 276.284 217.512 275.468C217.165 274.628 216.512 273.93 215.552 273.376L197.411 262.903L173.471 304.368ZM192.616 274.532L209.317 284.175C211.693 285.546 214.105 285.995 216.554 285.521C219.041 285.038 221.033 283.5 222.529 280.908C223.735 278.821 223.924 276.498 223.096 273.941C222.293 271.397 220.776 269.482 218.544 268.193L195.22 254.727L168.287 301.375L165.696 299.879L194.125 250.639L220.04 265.602C222.992 267.306 224.969 269.839 225.971 273.201C227.011 276.553 226.728 279.621 225.121 282.404C223.86 284.588 222.243 286.198 220.269 287.234C218.319 288.284 216.224 288.754 213.984 288.644C216.975 292.163 217.279 295.986 214.897 300.114C213.012 303.377 210.422 305.369 207.127 306.09C203.845 306.787 200.668 306.249 197.597 304.475L180.895 294.833L182.392 292.241L199.093 301.884C201.469 303.255 203.881 303.704 206.33 303.23C208.817 302.747 210.809 301.209 212.305 298.617C213.316 296.866 213.586 294.958 213.114 292.894C212.642 290.829 211.257 288.99 208.958 287.374C208.704 287.26 208.325 287.057 207.821 286.766L191.12 277.124L192.616 274.532ZM230.304 285.397C228.364 288.756 225.424 291.106 221.483 292.446C222.335 296.457 221.867 300.011 220.08 303.106C218.348 306.106 216.013 308.405 213.074 310.004C210.173 311.592 207.08 312.35 203.795 312.277C200.547 312.194 197.484 311.321 194.604 309.658L177.903 300.016L179.399 297.424L196.1 307.067C199.844 309.228 203.78 309.837 207.908 308.893C212.05 307.925 215.244 305.497 217.488 301.61C218.292 300.218 218.818 298.475 219.068 296.379C219.356 294.274 219.132 292.417 218.397 290.809C222.502 289.851 225.607 287.548 227.712 283.901C229.735 280.397 230.12 276.572 228.867 272.425C227.627 268.254 225.184 265.116 221.537 263.01L193.029 246.551L163.104 298.383L160.513 296.887L191.934 242.463L223.033 260.418C225.888 262.067 228.155 264.32 229.834 267.176C231.55 270.023 232.452 273.087 232.54 276.37C232.643 279.628 231.897 282.637 230.304 285.397ZM224.351 294.294C228.136 292.672 230.984 290.205 232.896 286.893C234.766 283.654 235.641 280.143 235.52 276.362C235.437 272.571 234.415 269.022 232.454 265.714C230.506 262.381 227.865 259.753 224.529 257.827L190.839 238.376L157.921 295.39L155.33 293.894L189.743 234.288L226.025 255.235C229.817 257.424 232.816 260.404 235.023 264.173C237.254 267.957 238.413 272.017 238.5 276.355C238.625 280.683 237.621 284.694 235.487 288.389C233.451 291.917 230.668 294.437 227.138 295.951C227.537 299.861 226.911 303.243 225.263 306.099C223.406 309.314 221.126 311.933 218.423 313.956C215.733 315.954 212.892 317.273 209.899 317.913C206.93 318.567 203.866 318.637 200.706 318.125C197.547 317.612 194.515 316.518 191.612 314.842L174.91 305.199L176.407 302.608L193.108 312.25C195.628 313.705 198.309 314.629 201.153 315.023C204.011 315.393 206.763 315.254 209.409 314.606C212.054 313.958 214.546 312.773 216.884 311.052C219.246 309.344 221.175 307.194 222.671 304.602C223.336 303.451 223.857 301.911 224.233 299.985C224.647 298.049 224.687 296.152 224.351 294.294Z" fill="black"/>
<path d="M341.625 305.453L339.033 303.957L373.447 244.351L376.039 245.847L341.625 305.453ZM336.442 302.461L333.85 300.964L368.264 241.358L370.856 242.854L336.442 302.461ZM331.259 299.468L328.667 297.972L363.081 238.366L365.672 239.862L331.259 299.468ZM354.289 295.488L381.861 311.406L380.365 313.998L352.793 298.079L351.297 300.671L378.868 316.589L377.372 319.181L349.801 303.262L348.304 305.854L375.876 321.773L374.38 324.364L344.216 306.949L378.63 247.343L408.793 264.758L407.297 267.349L379.726 251.431L378.229 254.022L405.801 269.941L404.305 272.532L376.733 256.614L375.237 259.206L402.808 275.124L401.312 277.716L373.741 261.797L367.756 272.164L381.901 280.331L380.405 282.922L366.259 274.755L364.763 277.347L378.909 285.514L377.413 288.105L363.267 279.938L361.771 282.53L375.916 290.697L374.42 293.288L360.274 285.121L354.289 295.488Z" fill="black"/>
<path d="M510.914 306.206L508.322 304.71L542.736 245.104L545.327 246.6L510.914 306.206ZM505.73 303.214L503.139 301.717L537.553 242.111L540.144 243.607L505.73 303.214ZM500.547 300.221L497.956 298.725L532.369 239.119L534.961 240.615L500.547 300.221ZM523.578 296.241L551.15 312.159L549.653 314.751L522.082 298.832L520.586 301.424L548.157 317.342L546.661 319.934L519.089 304.016L517.593 306.607L545.165 322.526L543.668 325.117L513.505 307.702L547.919 248.096L578.082 265.511L576.586 268.102L549.014 252.184L547.518 254.776L575.09 270.694L573.593 273.286L546.022 257.367L544.526 259.959L572.097 275.877L570.601 278.469L543.029 262.55L537.044 272.917L551.19 281.084L549.694 283.675L535.548 275.508L534.052 278.1L548.197 286.267L546.701 288.858L532.556 280.691L531.059 283.283L545.205 291.45L543.709 294.042L529.563 285.874L523.578 296.241Z" fill="black"/>
<g>
<g>
<path d="M38.0707 87.9745L120.494 40.3875L202.917 87.9745V183.148L120.494 230.736L38.0707 183.148L38.0707 87.9745Z" stroke="#9B51E0" stroke-width="20"/>
</g>
<g>
<path d="M118.991 232.114L201.414 184.527L283.837 232.114V327.288L201.414 374.875L118.991 327.288V232.114Z" stroke="#9B51E0" stroke-width="20"/>
</g>
<g>
<path d="M203.183 91.009L285.606 43.422L368.029 91.009V186.183L285.606 233.77L203.183 186.183V91.009Z" stroke="#9B51E0" stroke-width="20"/>
</g>
<g>
<path d="M284.294 234.94L366.717 187.353L449.14 234.94V330.114L366.717 377.701L284.294 330.114V234.94Z" stroke="#9B51E0" stroke-width="20"/>
</g>
<path d="M367.392 93.3946L449.815 45.8076L532.238 93.3946V188.569L449.815 236.156L367.392 188.569V93.3946Z" stroke="#9B51E0" stroke-width="20"/>
<g>
<path d="M448.9 236.928L531.323 189.341L613.746 236.928V332.102L531.323 379.689L448.9 332.102V236.928Z" stroke="#9B51E0" stroke-width="20"/>
</g>
</g>
<defs>
</defs>
</svg>
