<svg width="508" height="113" viewBox="0 0 508 113" fill="none" xmlns="http://www.w3.org/2000/svg">
<g filter="url(#filter0_d)">
<path d="M44.314 55.3873H62.3267C65.066 55.3873 67.3764 54.5019 69.2579 52.7311C71.1671 50.9603 72.1216 48.4424 72.1216 45.1774C72.1216 42.7702 71.1255 40.612 69.1334 38.7028C67.1412 36.7659 64.8723 35.7975 62.3267 35.7975H36.6773L36.6773 89.5866H33.689L33.689 32.8092H62.3267C65.7024 32.8092 68.6768 34.0682 71.2501 36.5861C73.8233 39.0763 75.1099 41.9401 75.1099 45.1774C75.1099 49.1618 73.8648 52.3576 71.3746 54.7648C68.8843 57.172 65.8684 58.3756 62.3267 58.3756H44.314V55.3873ZM44.314 61.3639H62.3267C66.6431 61.3639 70.3508 59.8559 73.4498 56.84C76.5487 53.7964 78.0982 49.9088 78.0982 45.1774C78.0982 41.11 76.5072 37.5407 73.3253 34.4694C70.171 31.3704 66.5048 29.8209 62.3267 29.8209H30.7007L30.7007 89.5866H27.7125L27.7125 26.8327H62.3267C65.6194 26.8327 68.7045 27.6766 71.5821 29.3644C74.4874 31.0522 76.7977 33.3211 78.5132 36.171C80.2287 38.9933 81.0865 41.9954 81.0865 45.1774C81.0865 50.6282 79.2326 55.1937 75.525 58.8737C71.845 62.526 67.4455 64.3522 62.3267 64.3522H44.314V61.3639ZM44.314 67.3405H62.3267C66.2004 67.3405 69.7974 66.3859 73.1177 64.4767C76.438 62.5675 79.0943 59.9113 81.0865 56.5079C83.0787 53.077 84.0748 49.3001 84.0748 45.1774C84.0748 41.442 83.0787 37.9419 81.0865 34.6769C79.122 31.3843 76.4657 28.7557 73.1177 26.7912C69.7698 24.8266 66.1727 23.8444 62.3267 23.8444H24.7242L24.7242 89.5866H21.7359L21.7359 20.8561L62.3267 20.8561C66.6708 20.8561 70.752 21.9767 74.5704 24.2179C78.3887 26.4315 81.4185 29.4197 83.6597 33.1828C85.9286 36.9181 87.063 40.9163 87.063 45.1774C87.063 50.1025 85.9978 54.4328 83.8672 58.1681C81.7644 61.9035 78.9006 64.8226 75.2759 66.9254L82.9957 89.5866H79.8414L72.4537 68.3366C71.3469 68.7793 70.503 69.0836 69.9219 69.2496L76.8531 89.5866H73.6988L66.9337 69.9552C66.6846 70.0106 65.7992 70.1074 64.2774 70.2457L70.7105 89.5866H67.5562L61.2061 70.3288H58.5084L64.5679 89.5866H61.4136L55.3126 70.3288H44.314V67.3405ZM42.6539 89.5866H39.6656L39.6656 38.7858H62.3267C64.1806 38.7858 65.7715 39.4222 67.0997 40.695C68.4555 41.9401 69.1334 43.4342 69.1334 45.1774C69.1334 49.9918 66.8645 52.3991 62.3267 52.3991H44.314V49.4108H62.3267C63.5165 49.4108 64.4434 49.1064 65.1075 48.4977C65.7992 47.8613 66.1451 46.7545 66.1451 45.1774C66.1451 44.209 65.7715 43.4066 65.0245 42.7702C64.3051 42.1061 63.4058 41.7741 62.3267 41.7741H42.6539L42.6539 89.5866ZM130.03 43.6002C126.82 46.8099 125.215 50.6836 125.215 55.2213C125.215 59.7591 126.82 63.6328 130.03 66.8424C133.239 70.0521 137.113 71.6569 141.651 71.6569C146.188 71.6569 150.062 70.0521 153.272 66.8424C156.481 63.6328 158.086 59.7591 158.086 55.2213C158.086 50.6836 156.481 46.8099 153.272 43.6002C150.062 40.3906 146.188 38.7858 141.651 38.7858C137.113 38.7858 133.239 40.3906 130.03 43.6002ZM123.762 62.775C122.739 60.3678 122.227 57.8499 122.227 55.2213C122.227 52.5927 122.739 50.0887 123.762 47.7091C124.786 45.3019 126.17 43.2267 127.913 41.4835C129.656 39.7404 131.717 38.3569 134.097 37.3331C136.504 36.3094 139.022 35.7975 141.651 35.7975C144.279 35.7975 146.783 36.3094 149.163 37.3331C151.57 38.3569 153.645 39.7404 155.388 41.4835C157.132 43.2267 158.515 45.3019 159.539 47.7091C160.563 50.0887 161.074 52.5927 161.074 55.2213C161.074 57.8499 160.563 60.3678 159.539 62.775C158.515 65.1546 157.132 67.216 155.388 68.9591C153.645 70.7023 151.57 72.0857 149.163 73.1095C146.783 74.1333 144.279 74.6452 141.651 74.6452C139.022 74.6452 136.504 74.1333 134.097 73.1095C131.717 72.0857 129.656 70.7023 127.913 68.9591C126.17 67.216 124.786 65.1546 123.762 62.775ZM122.227 43.9738C120.235 47.4048 119.239 51.1539 119.239 55.2213C119.239 59.2887 120.235 63.0379 122.227 66.4689C124.247 69.8999 126.972 72.6253 130.403 74.6452C133.834 76.6373 137.583 77.6334 141.651 77.6334C145.718 77.6334 149.467 76.6373 152.898 74.6452C156.329 72.6253 159.041 69.8999 161.033 66.4689C163.053 63.0379 164.063 59.2887 164.063 55.2213C164.063 51.1539 163.053 47.4048 161.033 43.9738C159.041 40.5428 156.329 37.8312 152.898 35.839C149.467 33.8191 145.718 32.8092 141.651 32.8092C137.583 32.8092 133.834 33.8191 130.403 35.839C126.972 37.8312 124.247 40.5428 122.227 43.9738ZM119.654 67.963C117.385 64.0617 116.25 59.8144 116.25 55.2213C116.25 50.6282 117.385 46.381 119.654 42.4796C121.922 38.5783 125.008 35.4931 128.909 33.2243C132.81 30.9554 137.058 29.8209 141.651 29.8209C146.244 29.8209 150.491 30.9554 154.392 33.2243C158.294 35.4931 161.379 38.5783 163.648 42.4796C165.917 46.381 167.051 50.6282 167.051 55.2213C167.051 59.8144 165.917 64.0617 163.648 67.963C161.379 71.8644 158.294 74.9495 154.392 77.2184C150.491 79.4873 146.244 80.6217 141.651 80.6217C137.058 80.6217 132.81 79.4873 128.909 77.2184C125.008 74.9495 121.922 71.8644 119.654 67.963ZM115.503 44.1813C114.009 47.6953 113.262 51.3753 113.262 55.2213C113.262 59.0674 114.009 62.7474 115.503 66.2614C116.997 69.7754 119.003 72.8052 121.521 75.3507C124.067 77.8686 127.097 79.8746 130.611 81.3688C134.125 82.8629 137.805 83.61 141.651 83.61C145.497 83.61 149.177 82.8629 152.691 81.3688C156.205 79.8746 159.221 77.8686 161.739 75.3507C164.284 72.8052 166.304 69.7754 167.798 66.2614C169.292 62.7474 170.039 59.0674 170.039 55.2213C170.039 51.3753 169.292 47.6953 167.798 44.1813C166.304 40.6673 164.284 37.6513 161.739 35.1334C159.221 32.5879 156.205 30.568 152.691 29.0739C149.177 27.5797 145.497 26.8327 141.651 26.8327C137.805 26.8327 134.125 27.5797 130.611 29.0739C127.097 30.568 124.067 32.5879 121.521 35.1334C119.003 37.6513 116.997 40.6673 115.503 44.1813ZM114.466 70.9513C111.671 66.1369 110.274 60.8935 110.274 55.2213C110.274 49.5491 111.671 44.3058 114.466 39.4913C117.288 34.6769 121.106 30.8724 125.921 28.0778C130.735 25.2555 135.978 23.8444 141.651 23.8444C147.323 23.8444 152.566 25.2555 157.381 28.0778C162.195 30.8724 166 34.6769 168.794 39.4913C171.616 44.3058 173.028 49.5491 173.028 55.2213C173.028 60.8935 171.616 66.1369 168.794 70.9513C166 75.7658 162.195 79.5841 157.381 82.4064C152.566 85.201 147.323 86.5983 141.651 86.5983C135.978 86.5983 130.735 85.201 125.921 82.4064C121.106 79.5841 117.288 75.7658 114.466 70.9513ZM109.983 41.8986C108.185 46.132 107.285 50.5729 107.285 55.2213C107.285 59.8698 108.185 64.3245 109.983 68.5856C111.809 72.819 114.258 76.4713 117.329 79.5426C120.401 82.6139 124.053 85.0626 128.286 86.8888C132.547 88.6873 137.002 89.5866 141.651 89.5866C146.299 89.5866 150.74 88.6873 154.973 86.8888C159.234 85.0626 162.901 82.6139 165.972 79.5426C169.043 76.4713 171.478 72.819 173.277 68.5856C175.103 64.3245 176.016 59.8698 176.016 55.2213C176.016 50.5729 175.103 46.132 173.277 41.8986C171.478 37.6375 169.043 33.9713 165.972 30.9C162.901 27.8288 159.234 25.3939 154.973 23.5954C150.74 21.7692 146.299 20.8561 141.651 20.8561C137.002 20.8561 132.547 21.7692 128.286 23.5954C124.053 25.3939 120.401 27.8288 117.329 30.9C114.258 33.9713 111.809 37.6375 109.983 41.8986ZM107.244 69.7477C105.279 65.1269 104.297 60.2848 104.297 55.2213C104.297 50.1579 105.279 45.3296 107.244 40.7365C109.236 36.1157 111.892 32.1452 115.213 28.8248C118.561 25.4769 122.531 22.8206 127.124 20.8561C131.745 18.8639 136.587 17.8678 141.651 17.8678C146.714 17.8678 151.542 18.8639 156.136 20.8561C160.756 22.8206 164.727 25.4769 168.047 28.8248C171.395 32.1452 174.051 36.1157 176.016 40.7365C178.008 45.3296 179.004 50.1579 179.004 55.2213C179.004 60.2848 178.008 65.1269 176.016 69.7477C174.051 74.3408 171.395 78.3113 168.047 81.6593C164.727 84.9796 160.756 87.622 156.136 89.5866C151.542 91.5788 146.714 92.5748 141.651 92.5748C136.587 92.5748 131.745 91.5788 127.124 89.5866C122.531 87.622 118.561 84.9796 115.213 81.6593C111.892 78.3113 109.236 74.3408 107.244 69.7477ZM224.793 20.8561H227.781V89.5866H224.793V20.8561ZM218.816 20.8561H221.805V89.5866H218.816V20.8561ZM212.84 20.8561H215.828V89.5866H212.84V20.8561ZM206.863 20.8561H209.852V89.5866H206.863V20.8561Z" fill="#9B51E0"/>
<path d="M302.996 65.6388C302.996 64.5597 302.664 63.8403 302 63.4806C301.364 63.1209 300.423 62.9411 299.178 62.9411H279.92V59.9528H299.178C303.716 59.9528 305.985 61.8481 305.985 65.6388C305.985 67.7693 305.362 69.305 304.117 70.2457C302.872 71.1865 301.225 71.6569 299.178 71.6569H279.92V68.6686H299.178C301.723 68.6686 302.996 67.6587 302.996 65.6388ZM278.26 89.5866H275.272V38.7858H299.178C301.059 38.7858 302.664 39.3668 303.992 40.5289C305.32 41.6634 305.985 43.0884 305.985 44.8038C305.985 47.0727 305.362 48.7191 304.117 49.7428C302.872 50.7389 301.225 51.237 299.178 51.237H279.92V48.2487H299.178C301.723 48.2487 302.996 47.1004 302.996 44.8038C302.996 43.8631 302.637 43.1299 301.917 42.6041C301.198 42.0508 300.285 41.7741 299.178 41.7741H278.26V89.5866ZM279.92 54.2252H299.178C301.917 54.2252 304.228 53.409 306.109 51.7765C308.018 50.1163 308.973 47.7921 308.973 44.8038C308.973 42.3966 307.977 40.2938 305.985 38.4953C304.02 36.6968 301.751 35.7975 299.178 35.7975H272.283V89.5866H269.295V32.8092H299.178C302.581 32.8092 305.556 34.0128 308.101 36.4201C310.674 38.7996 311.961 41.5942 311.961 44.8038C311.961 47.3218 311.366 49.5215 310.176 51.403C309.014 53.2845 307.437 54.7371 305.445 55.7609C309.789 57.3104 311.961 60.4647 311.961 65.2238C311.961 68.9868 310.716 72.0027 308.226 74.2716C305.736 76.5128 302.72 77.6334 299.178 77.6334H279.92V74.6452H299.178C301.917 74.6452 304.228 73.8289 306.109 72.1964C308.018 70.5363 308.973 68.2121 308.973 65.2238C308.973 63.2039 308.253 61.4192 306.815 59.8698C305.376 58.3203 303.259 57.421 300.465 57.172C300.188 57.1997 299.759 57.2135 299.178 57.2135H279.92V54.2252ZM317.938 44.8038C317.938 48.6775 316.568 52.1777 313.829 55.3043C316.568 58.348 317.938 61.6544 317.938 65.2238C317.938 68.6824 317.066 71.8367 315.323 74.6867C313.607 77.5089 311.311 79.7086 308.433 81.2858C305.583 82.8353 302.498 83.61 299.178 83.61H279.92V80.6217H299.178C303.494 80.6217 307.202 79.1829 310.301 76.3053C313.4 73.4 314.949 69.7062 314.949 65.2238C314.949 63.619 314.534 61.8481 313.704 59.9113C312.902 57.9468 311.781 56.4526 310.342 55.4288C313.414 52.5512 314.949 49.0096 314.949 44.8038C314.949 40.7641 313.372 37.264 310.218 34.3034C307.064 31.3151 303.384 29.8209 299.178 29.8209H266.307V89.5866H263.319V26.8327H299.178C302.471 26.8327 305.556 27.6489 308.433 29.2814C311.339 30.8862 313.649 33.0859 315.364 35.8805C317.08 38.6474 317.938 41.6219 317.938 44.8038ZM317.232 55.4704C319.695 52.1777 320.926 48.6222 320.926 44.8038C320.926 41.0685 319.93 37.596 317.938 34.3864C315.973 31.1491 313.317 28.5897 309.969 26.7081C306.621 24.799 303.024 23.8444 299.178 23.8444H260.33V89.5866H257.342V20.8561H299.178C303.55 20.8561 307.631 21.9352 311.422 24.0934C315.24 26.2516 318.27 29.1845 320.511 32.8922C322.78 36.5722 323.914 40.5428 323.914 44.8038C323.914 48.8712 322.766 52.4406 320.469 55.5119C322.766 58.6938 323.914 61.9311 323.914 65.2238C323.914 68.9315 323.25 72.3348 321.922 75.4337C320.594 78.505 318.795 81.0644 316.527 83.112C314.285 85.1595 311.671 86.7505 308.682 87.8849C305.694 89.0193 302.526 89.5866 299.178 89.5866H279.92V86.5983H299.178C302.083 86.5983 304.864 86.0587 307.52 84.9796C310.176 83.8729 312.487 82.3787 314.451 80.4972C316.416 78.6157 317.979 76.3468 319.141 73.6906C320.331 71.0343 320.926 68.2121 320.926 65.2238C320.926 63.8956 320.608 62.3047 319.971 60.4508C319.363 58.5693 318.45 56.9092 317.232 55.4704ZM367.254 89.5866H364.266V20.8561H367.254V89.5866ZM361.278 89.5866H358.289V20.8561H361.278V89.5866ZM355.301 89.5866H352.313V20.8561H355.301V89.5866ZM373.231 74.6452L405.023 74.6452V77.6334L373.231 77.6334V80.6217L405.023 80.6217V83.61L373.231 83.61V86.5983L405.023 86.5983V89.5866L370.243 89.5866V20.8561H405.023V23.8444H373.231V26.8327H405.023V29.8209H373.231V32.8092H405.023V35.7975H373.231V47.7506H389.542V50.7389H373.231V53.7272H389.542V56.7155H373.231V59.7038H389.542V62.692H373.231V74.6452ZM449.027 89.5866H446.039V20.8561H449.027V89.5866ZM443.05 89.5866H440.062V20.8561H443.05V89.5866ZM437.074 89.5866H434.086V20.8561H437.074V89.5866ZM455.003 74.6452H486.795V77.6334H455.003V80.6217H486.795V83.61H455.003V86.5983H486.795V89.5866H452.015V20.8561H486.795V23.8444L455.003 23.8444V26.8327L486.795 26.8327V29.8209L455.003 29.8209V32.8092L486.795 32.8092V35.7975L455.003 35.7975V47.7506L471.315 47.7506V50.7389L455.003 50.7389V53.7272L471.315 53.7272V56.7155H455.003V59.7038H471.315V62.692H455.003V74.6452Z" fill="white"/>
<path d="M17.876 93.737L253.482 93.737V95.8121L17.876 95.8121V93.737Z" fill="#9B51E0"/>
<path d="M253.482 93.737L490.282 93.737V95.8121L253.482 95.8121V93.737Z" fill="white"/>
</g>
<defs>
<filter id="filter0_d" x="0.876038" y="0.867813" width="506.406" height="111.944" filterUnits="userSpaceOnUse" color-interpolation-filters="sRGB">
<feFlood flood-opacity="0" result="BackgroundImageFix"/>
<feColorMatrix in="SourceAlpha" type="matrix" values="0 0 0 0 0 0 0 0 0 0 0 0 0 0 0 0 0 0 127 0"/>
<feOffset/>
<feGaussianBlur stdDeviation="8.5"/>
<feColorMatrix type="matrix" values="0 0 0 0 0 0 0 0 0 0 0 0 0 0 0 0 0 0 1 0"/>
<feBlend mode="normal" in2="BackgroundImageFix" result="effect1_dropShadow"/>
<feBlend mode="normal" in="SourceGraphic" in2="effect1_dropShadow" result="shape"/>
</filter>
</defs>
</svg>
