<svg width="364" height="78" viewBox="0 0 364 78" fill="none" xmlns="http://www.w3.org/2000/svg">
<path d="M24.0767 2.16469L37.3995 2.04018C40.2217 2.04018 42.7811 2.09551 45.0777 2.20619C51.2479 2.37221 55.9379 3.82484 59.1475 6.5641C62.3848 9.30336 64.0035 13.1632 64.0035 18.1437C64.0035 21.6024 62.9936 24.563 60.9737 27.0255C58.9538 29.4604 56.0071 31.6048 52.1334 33.4586C58.2759 35.3955 61.9975 40.0993 63.2979 47.57C63.6023 49.2024 63.8375 51.0701 64.0035 53.173C64.1972 55.2759 64.3493 56.687 64.46 57.4064L64.8751 59.5231C65.3178 62.0133 65.7051 63.8118 66.0372 64.9186L65.8712 65.0431C61.1674 65.3475 56.8648 65.4996 52.9634 65.4996C49.0897 65.4996 45.6588 65.4305 42.6705 65.2921H42.4214C41.5637 65.2921 40.6506 61.2109 39.6822 53.0485L39.4747 51.2638C39.364 48.2202 38.8244 46.1727 37.856 45.1212C36.9153 44.0698 35.2689 43.5441 32.9171 43.5441L32.3775 43.5856H30.1778V56.2028L30.2193 57.5309V65.1261C30.1363 65.4028 29.9288 65.5688 29.5967 65.6242C26.5531 65.7348 22.2505 65.7902 16.689 65.7902C11.1552 65.7902 7.50283 65.804 5.73199 65.8317L5.48297 65.7487L5.39996 65.7902C5.34462 65.7902 5.26162 65.7487 5.15094 65.6657L5.23395 61.9303L5.19244 60.6852L5.35846 43.4611L5.35846 40.4313L5.39996 37.3185L5.44147 26.569L5.48297 25.1579L5.35846 15.7365C5.35846 15.7365 5.4138 11.3232 5.52448 2.49672C5.52448 2.27537 6.31305 2.16469 7.8902 2.16469L10.5464 2.20619H13.0782L18.3492 2.2477L24.0767 2.16469ZM66.2862 64.7941L66.0787 64.9186V64.8356C66.0787 64.8079 66.1478 64.7941 66.2862 64.7941ZM66.0787 64.9186V64.9601C66.051 64.9601 66.0372 64.9463 66.0372 64.9186H66.0787ZM39.4332 15.695C37.773 14.9756 35.5595 14.6159 32.7925 14.6159H30.3853C30.081 15.0586 29.9288 17.3966 29.9288 21.63C29.9288 25.8357 29.9979 28.658 30.1363 30.0968C38.7968 29.9031 43.127 26.9149 43.127 21.132C43.127 18.6694 41.8957 16.8571 39.4332 15.695ZM95.2725 33.0436C95.2725 33.0713 95.2587 33.1404 95.231 33.2511V33.3756C95.1203 34.5377 95.065 35.8382 95.065 37.277C95.065 38.7158 95.1757 40.2376 95.397 41.8424C95.6461 43.4472 96.0334 45.0521 96.5591 46.6569C97.1125 48.2617 97.9564 49.5621 99.0909 50.5582C100.308 51.6097 101.664 52.1354 103.158 52.1354C104.68 52.1354 105.953 51.9279 106.977 51.5128C108.028 51.0701 108.9 50.5167 109.591 49.8527C110.311 49.1886 110.933 48.2894 111.459 47.1549C112.787 44.139 113.451 39.4629 113.451 33.1266C113.451 26.6797 112.704 22.1696 111.21 19.5963C109.744 16.9954 107.516 15.695 104.528 15.695C103.034 15.695 101.719 16.0547 100.585 16.7741C99.4783 17.4935 98.6343 18.2405 98.0533 19.0153C97.4999 19.79 96.9188 21.4363 96.3101 23.9542C95.7291 26.4721 95.4385 28.7964 95.4385 30.9269L95.2725 33.0436ZM71.4078 33.3756L71.4908 32.4625C71.8228 29.0039 72.2655 25.9464 72.8189 23.2902C73.3723 20.6063 74.2715 18.1022 75.5167 15.778C78.4773 10.6592 82.6 6.78546 87.8848 4.15688C93.1973 1.50063 98.911 0.172501 105.026 0.172501C111.169 0.172501 116.744 1.40378 121.752 3.86635C124.74 5.33282 127.078 7.18666 128.766 9.42787C132.003 13.4676 134.134 17.1891 135.158 20.5924C136.182 23.9957 136.693 27.9248 136.693 32.3795C136.693 42.2851 134.646 49.8388 130.551 55.0407L128.642 57.5724C126.068 60.5607 122.43 62.8711 117.726 64.5036C113.022 66.1084 108.36 66.9385 103.739 66.9938C95.8259 66.9938 89.3375 65.3336 84.274 62.0133C75.6965 56.4518 71.4078 46.9059 71.4078 33.3756ZM146.795 60.1456C146.795 54.5288 146.948 50.6274 147.252 48.4415C147.252 36.4054 147.418 24.2724 147.75 12.0426C147.667 10.2995 147.626 8.54246 147.626 6.77162V5.40199C147.515 4.54425 147.46 3.78334 147.46 3.11928C147.46 2.45522 147.529 2.02634 147.667 1.83266C153.588 2.19236 158.776 2.37221 163.231 2.37221C167.686 2.37221 170.743 2.2892 172.403 2.12318C172.459 2.20619 172.5 2.44138 172.528 2.82875H172.237V17.8532L172.528 51.6373C172.528 51.8864 172.569 52.0939 172.652 52.2599V52.3429C172.735 52.5089 172.777 52.6888 172.777 52.8825L173.109 64.9601C172.971 65.2645 172.722 65.4996 172.362 65.6657H170.951L147.709 66.0392C147.432 65.9009 147.072 65.6933 146.629 65.4166L146.671 64.7111L146.795 60.1456Z" fill="#9B51E0"/>
<path d="M186.241 18.2682L186.199 17.4381V14.8649C186.199 11.2955 186.268 7.2005 186.407 2.57973L186.324 2.49672L188.565 2.37221C195.787 1.98484 200.477 1.79115 202.635 1.79115H221.976C228.589 1.79115 234.081 3.16078 238.453 5.90004C240.002 7.22816 241.261 9.01283 242.23 11.254C243.198 13.4953 243.682 16.027 243.682 18.8493C243.682 24.3001 240.03 28.9347 232.725 32.7531C236.848 33.8875 240.002 35.7137 242.188 38.2316C244.402 40.7218 245.508 43.7793 245.508 47.4039C245.508 53.8232 242.631 58.693 236.876 62.0133C232.642 64.5036 227.288 65.7487 220.814 65.7487L208.445 65.5827C203.105 65.5827 196.022 65.7072 187.195 65.9562C186.421 64.3237 186.033 57.8629 186.033 46.5739C186.033 35.2848 186.102 25.8496 186.241 18.2682ZM212.056 53.007C219.223 53.007 222.806 50.5029 222.806 45.4948C222.806 42.3128 221.837 40.1823 219.9 39.1032C218.157 38.1624 215.487 37.6367 211.89 37.526H210.687L209.94 39.8502C209.746 42.7002 209.649 45.5086 209.649 48.2755C209.649 51.0148 209.94 52.5919 210.521 53.007H212.056ZM220.98 25.2409C221.533 24.1894 221.81 22.9166 221.81 21.4225C221.81 18.5172 220.772 16.5665 218.697 15.5704C216.622 14.5744 214.45 14.0763 212.181 14.0763C209.912 14.0763 208.777 14.9064 208.777 16.5665C208.777 19.5272 208.847 22.5569 208.985 25.6559L209.068 27.8556C209.123 28.907 209.732 29.5296 210.894 29.7233L212.928 29.4743C217.134 28.9762 219.817 27.5651 220.98 25.2409ZM255.942 13.2047L255.735 2.2892C255.763 2.2892 255.859 2.3307 256.025 2.41371C277.054 2.05401 292.895 1.86033 303.547 1.83266C303.658 1.888 303.741 1.971 303.796 2.08168V13.7858C303.796 14.9202 303.769 15.8471 303.713 16.5665C303.575 17.0093 302.759 17.2306 301.265 17.2306H300.974C294.278 17.2306 287.306 17.1199 280.056 16.8986C280.056 17.1476 280.015 17.5903 279.932 18.2267C279.876 18.8631 279.835 19.3196 279.807 19.5963L279.6 21.1735C279.461 22.2249 279.364 24.0511 279.309 26.652L292.175 26.3615C294.389 26.3061 295.994 26.2785 296.99 26.2785H297.654C299.342 26.2785 300.448 26.3338 300.974 26.4445C301.5 26.5275 301.763 26.8042 301.763 27.2746L301.721 27.6066V28.6027L301.929 39.2692L301.887 39.3107V39.2692C293.476 39.6842 286.752 39.8917 281.716 39.8917H279.766V49.9357L302.302 49.2301C303.547 49.2301 304.336 49.41 304.668 49.7697C304.64 50.4891 304.627 51.5128 304.627 52.841L304.917 64.13C304.917 64.8218 304.613 65.223 304.004 65.3336L290.225 65.2091C287.513 65.2091 282.118 65.306 274.038 65.4996L267.232 65.6657C262.417 65.8317 258.848 65.9147 256.523 65.9147L256.399 65.8317H256.44C256.164 65.555 255.901 65.2921 255.652 65.0431V63.5905L255.901 19.2228L255.942 13.2047ZM314.397 13.2047L314.189 2.2892C314.217 2.2892 314.314 2.3307 314.48 2.41371C335.508 2.05401 351.349 1.86033 362.002 1.83266C362.112 1.888 362.195 1.971 362.251 2.08168V13.7858C362.251 14.9202 362.223 15.8471 362.168 16.5665C362.029 17.0093 361.213 17.2306 359.719 17.2306H359.428C352.732 17.2306 345.76 17.1199 338.51 16.8986C338.51 17.1476 338.469 17.5903 338.386 18.2267C338.33 18.8631 338.289 19.3196 338.261 19.5963L338.054 21.1735C337.915 22.2249 337.819 24.0511 337.763 26.652L350.629 26.3615C352.843 26.3061 354.448 26.2785 355.444 26.2785H356.108C357.796 26.2785 358.903 26.3338 359.428 26.4445C359.954 26.5275 360.217 26.8042 360.217 27.2746L360.175 27.6066V28.6027L360.383 39.2692L360.341 39.3107V39.2692C351.93 39.6842 345.206 39.8917 340.17 39.8917H338.22V49.9357L360.756 49.2301C362.002 49.2301 362.79 49.41 363.122 49.7697C363.094 50.4891 363.081 51.5128 363.081 52.841L363.371 64.13C363.371 64.8218 363.067 65.223 362.458 65.3336L348.679 65.2091C345.967 65.2091 340.572 65.306 332.492 65.4996L325.686 65.6657C320.871 65.8317 317.302 65.9147 314.978 65.9147L314.853 65.8317H314.895C314.618 65.555 314.355 65.2921 314.106 65.0431V63.5905L314.355 19.2228L314.397 13.2047Z" fill="white"/>
<path d="M0.876038 73.0949L181.717 73.0949V77.3283L0.876038 77.3283L0.876038 73.0949Z" fill="#9B51E0"/>
<path d="M181.717 73.0949H363.869V77.3283H181.717V73.0949Z" fill="white"/>
</svg>
