<svg width="138" height="27" viewBox="0 0 138 27" fill="none" xmlns="http://www.w3.org/2000/svg">
<path d="M7.80016 1.42755L12.1888 1.38654C13.1185 1.38654 13.9616 1.40476 14.7181 1.44122C16.7507 1.49591 18.2956 1.97443 19.3529 2.87677C20.4193 3.77911 20.9525 5.0506 20.9525 6.69122C20.9525 7.83055 20.6198 8.80581 19.9545 9.617C19.2891 10.4191 18.3184 11.1255 17.0423 11.7361C19.0658 12.3742 20.2917 13.9236 20.7201 16.3846C20.8203 16.9223 20.8978 17.5376 20.9525 18.2303C21.0163 18.923 21.0664 19.3878 21.1029 19.6248L21.2396 20.3221C21.3854 21.1424 21.513 21.7348 21.6224 22.0994L21.5677 22.1404C20.0183 22.2407 18.6009 22.2908 17.3158 22.2908C16.0397 22.2908 14.9095 22.268 13.9252 22.2225H13.8431C13.5606 22.2225 13.2598 20.8781 12.9408 18.1893L12.8724 17.6014C12.836 16.5988 12.6582 15.9243 12.3392 15.5779C12.0293 15.2316 11.487 15.0584 10.7123 15.0584L10.5345 15.0721H9.80992V19.2283L9.82359 19.6658V22.1678C9.79625 22.2589 9.72789 22.3136 9.61852 22.3318C8.61591 22.3683 7.19859 22.3865 5.36656 22.3865C3.54365 22.3865 2.34052 22.3911 1.75719 22.4002L1.67516 22.3729L1.64781 22.3865C1.62958 22.3865 1.60224 22.3729 1.56578 22.3455L1.59312 21.1151L1.57945 20.7049L1.63414 15.0311V14.033L1.64781 13.0076L1.66148 9.46661L1.67516 9.00177L1.63414 5.89825C1.63414 5.89825 1.65237 4.44448 1.68883 1.53693C1.68883 1.46401 1.94859 1.42755 2.46812 1.42755L3.34312 1.44122H4.17711L5.91344 1.4549L7.80016 1.42755ZM21.7045 22.0584L21.6361 22.0994V22.0721C21.6361 22.063 21.6589 22.0584 21.7045 22.0584ZM21.6361 22.0994V22.1131C21.627 22.1131 21.6224 22.1085 21.6224 22.0994H21.6361ZM12.8587 5.88458C12.3119 5.6476 11.5827 5.52911 10.6712 5.52911H9.87828C9.77802 5.67495 9.72789 6.44513 9.72789 7.83966C9.72789 9.22508 9.75068 10.1548 9.79625 10.6287C12.6491 10.5649 14.0755 9.58055 14.0755 7.6756C14.0755 6.8644 13.6699 6.2674 12.8587 5.88458ZM34.7529 11.5994C34.7529 11.6085 34.7483 11.6313 34.7392 11.6678V11.7088C34.7028 12.0916 34.6845 12.52 34.6845 12.994C34.6845 13.4679 34.721 13.9692 34.7939 14.4979C34.8759 15.0265 35.0035 15.5552 35.1767 16.0838C35.359 16.6124 35.637 17.0408 36.0107 17.369C36.4117 17.7153 36.8584 17.8885 37.3505 17.8885C37.8518 17.8885 38.2711 17.8201 38.6084 17.6834C38.9547 17.5376 39.2418 17.3553 39.4697 17.1365C39.7067 16.9178 39.9117 16.6216 40.0849 16.2479C40.5224 15.2544 40.7412 13.714 40.7412 11.6268C40.7412 9.50307 40.4951 8.0174 40.0029 7.16974C39.5198 6.31297 38.7861 5.88458 37.8017 5.88458C37.3095 5.88458 36.8766 6.00307 36.5029 6.24005C36.1383 6.47703 35.8603 6.72312 35.6689 6.97833C35.4866 7.23354 35.2952 7.77586 35.0947 8.60529C34.9033 9.43471 34.8076 10.2003 34.8076 10.9022L34.7529 11.5994ZM26.8916 11.7088L26.9189 11.408C27.0283 10.2687 27.1741 9.26154 27.3564 8.38654C27.5387 7.50242 27.8349 6.67755 28.2451 5.91193C29.2203 4.22573 30.5784 2.94969 32.3193 2.0838C34.0693 1.2088 35.9515 0.771301 37.9658 0.771301C39.9892 0.771301 41.8258 1.1769 43.4755 1.9881C44.4599 2.47117 45.2301 3.08185 45.7861 3.82013C46.8525 5.15086 47.5543 6.37677 47.8916 7.49786C48.2288 8.61896 48.3974 9.91323 48.3974 11.3807C48.3974 14.6437 47.7229 17.132 46.374 18.8455L45.7451 19.6795C44.8974 20.6639 43.6989 21.4249 42.1494 21.9627C40.5999 22.4914 39.0641 22.7648 37.542 22.783C34.9352 22.783 32.7978 22.2361 31.1298 21.1424C28.3043 19.3104 26.8916 16.1658 26.8916 11.7088ZM55.2252 20.5272C55.2252 18.6769 55.2753 17.3917 55.3755 16.6717C55.3755 12.7068 55.4302 8.7101 55.5396 4.68146C55.5123 4.10724 55.4986 3.52846 55.4986 2.94513V2.49396C55.4621 2.21141 55.4439 1.96075 55.4439 1.742C55.4439 1.52325 55.4667 1.38198 55.5123 1.31818C57.4628 1.43667 59.1718 1.49591 60.6392 1.49591C62.1067 1.49591 63.1138 1.46857 63.6607 1.41388C63.6789 1.44122 63.6926 1.5187 63.7017 1.6463H63.606V6.59552L63.7017 17.7244C63.7017 17.8065 63.7154 17.8748 63.7427 17.9295V17.9568C63.7701 18.0115 63.7837 18.0708 63.7837 18.1346L63.8931 22.1131C63.8476 22.2134 63.7655 22.2908 63.647 22.3455H63.1822L55.5259 22.4686C55.4348 22.423 55.3163 22.3546 55.1705 22.2635L55.1841 22.0311L55.2252 20.5272Z" fill="url(#paint1_linear)"/>
<path d="M71.7189 6.73224L71.7052 6.4588V5.61115C71.7052 4.43536 71.728 3.08641 71.7736 1.56427L71.7462 1.53693L72.4845 1.49591C74.8634 1.36831 76.4084 1.3045 77.1193 1.3045L83.4904 1.3045C85.6688 1.3045 87.478 1.75568 88.9181 2.65802C89.4285 3.09552 89.8433 3.68341 90.1623 4.42169C90.4813 5.15997 90.6408 5.99396 90.6408 6.92365C90.6408 8.71922 89.4377 10.2459 87.0314 11.5037C88.3895 11.8774 89.4285 12.479 90.1486 13.3084C90.8778 14.1287 91.2423 15.1359 91.2423 16.3299C91.2423 18.4445 90.2944 20.0486 88.3986 21.1424C87.0041 21.9627 85.2404 22.3729 83.1076 22.3729L79.0334 22.3182C77.2742 22.3182 74.9409 22.3592 72.0334 22.4412C71.7781 21.9035 71.6505 19.7752 71.6505 16.0565C71.6505 12.3377 71.6733 9.22963 71.7189 6.73224ZM80.2228 18.1756C82.5835 18.1756 83.7638 17.3507 83.7638 15.701C83.7638 14.6528 83.4448 13.951 82.8068 13.5955C82.2326 13.2856 81.353 13.1124 80.1681 13.076H79.7716L79.5255 13.8416C79.4617 14.7804 79.4298 15.7055 79.4298 16.617C79.4298 17.5193 79.5255 18.0389 79.7169 18.1756H80.2228ZM83.1623 9.02911C83.3446 8.68276 83.4357 8.26349 83.4357 7.7713C83.4357 6.81427 83.0939 6.17169 82.4103 5.84357C81.7267 5.51544 81.0112 5.35138 80.2638 5.35138C79.5164 5.35138 79.1427 5.62482 79.1427 6.17169C79.1427 7.14695 79.1655 8.145 79.2111 9.16583L79.2384 9.89044C79.2567 10.2368 79.4572 10.4419 79.84 10.5057L80.5099 10.4236C81.8953 10.2596 82.7794 9.79474 83.1623 9.02911ZM98.1795 5.06427L98.1111 1.46857C98.1202 1.46857 98.1521 1.48224 98.2068 1.50958C105.134 1.39109 110.352 1.32729 113.861 1.31818C113.898 1.33641 113.925 1.36375 113.943 1.40021V5.25568C113.943 5.62937 113.934 5.93471 113.916 6.17169C113.87 6.31753 113.601 6.39044 113.109 6.39044H113.013C110.808 6.39044 108.511 6.35398 106.123 6.28107C106.123 6.3631 106.109 6.50893 106.082 6.71857C106.064 6.9282 106.05 7.07859 106.041 7.16974L105.972 7.68927C105.927 8.03562 105.895 8.63719 105.877 9.49396L110.115 9.39825C110.844 9.38003 111.373 9.37091 111.701 9.37091H111.92C112.476 9.37091 112.84 9.38914 113.013 9.4256C113.187 9.45294 113.273 9.54409 113.273 9.69904L113.26 9.80841V10.1365L113.328 13.6502L113.314 13.6639V13.6502C110.543 13.7869 108.329 13.8553 106.67 13.8553H106.027V17.1639L113.451 16.9315C113.861 16.9315 114.121 16.9907 114.23 17.1092C114.221 17.3462 114.217 17.6834 114.217 18.1209L114.312 21.8397C114.312 22.0675 114.212 22.1997 114.011 22.2361L109.472 22.1951C108.579 22.1951 106.802 22.227 104.14 22.2908L101.898 22.3455C100.312 22.4002 99.1365 22.4276 98.3709 22.4276L98.3298 22.4002H98.3435C98.2524 22.3091 98.1658 22.2225 98.0837 22.1404V21.6619L98.1658 7.04669L98.1795 5.06427ZM120.935 5.06427L120.867 1.46857C120.876 1.46857 120.908 1.48224 120.962 1.50958C127.889 1.39109 133.107 1.32729 136.617 1.31818C136.653 1.33641 136.68 1.36375 136.699 1.40021V5.25568C136.699 5.62937 136.689 5.93471 136.671 6.17169C136.626 6.31753 136.357 6.39044 135.865 6.39044H135.769C133.563 6.39044 131.266 6.35398 128.878 6.28107C128.878 6.3631 128.865 6.50893 128.837 6.71857C128.819 6.9282 128.805 7.07859 128.796 7.16974L128.728 7.68927C128.682 8.03562 128.65 8.63719 128.632 9.49396L132.87 9.39825C133.6 9.38003 134.128 9.37091 134.456 9.37091H134.675C135.231 9.37091 135.596 9.38914 135.769 9.4256C135.942 9.45294 136.029 9.54409 136.029 9.69904L136.015 9.80841V10.1365L136.083 13.6502L136.07 13.6639V13.6502C133.299 13.7869 131.084 13.8553 129.425 13.8553H128.783V17.1639L136.206 16.9315C136.617 16.9315 136.876 16.9907 136.986 17.1092C136.977 17.3462 136.972 17.6834 136.972 18.1209L137.068 21.8397C137.068 22.0675 136.967 22.1997 136.767 22.2361L132.228 22.1951C131.335 22.1951 129.557 22.227 126.896 22.2908L124.654 22.3455C123.068 22.4002 121.892 22.4276 121.126 22.4276L121.085 22.4002H121.099C121.008 22.3091 120.921 22.2225 120.839 22.1404V21.6619L120.921 7.04669L120.935 5.06427Z" fill="white"/>
<path d="M0.157578 24.7928L70.2287 24.7928V26.1873L0.157578 26.1873L0.157578 24.7928Z" fill="url(#paint1_linear)"/>
<path d="M70.2287 24.7928H137.232V26.1873H70.2287V24.7928Z" fill="white"/>
<defs>
<linearGradient id="paint1_linear" x1="69.1576" y1="-9.00995" x2="69.1576" y2="34.9901" gradientUnits="userSpaceOnUse">
<stop id="color1" offset="0.395833"/>
<stop id="color2" offset="1"/>
</linearGradient>
<style>
#color1{
    transition:all 600ms ease;
    animation: logo1 600ms linear infinite alternate 0s forwards;
    stop-color:#5451E0;
}
#color2{
    transition:all 600ms ease;
    animation: logo2 600ms linear infinite alternate 0s forwards;
    stop-color: #9B51E0;
}
@keyframes logo1{
    0%{
    stop-color:#5451E0;
    }
    100%{
	stop-color: #9B51E0;
    }
}
@keyframes logo2{
    0%{
	stop-color: #9B51E0;
    }
    100%{
    stop-color:#27ABFF ;
    }
}</style>
</defs>
</svg>