<svg xmlns="http://www.w3.org/2000/svg">
    <symbol id="vk-icon" viewBox="0 0 27 27" fill="none">
        <path d="M24.776.425H2.24c-.911 0-1.65.738-1.65 1.648V24.61c0 .91.739 1.648 1.65 1.648h22.536c.91 0 1.648-.738 1.648-1.648V2.073A1.645 1.645 0 0 0 24.777.425Zm-2.758 15.741c.473.482 1.497 1.29 1.311 2.111-.171.755-1.298.48-2.392.524-1.248.052-1.989.08-2.74-.524-.353-.286-.561-.625-.9-1.004-.308-.343-.697-.957-1.225-.933-.95.047-.653 1.37-.99 2.273-5.28.831-7.4-2.43-9.27-5.595-.906-1.533-2.215-4.825-2.215-4.825l3.734-.013s1.197 2.178 1.515 2.74c.27.478.567.857.873 1.283.257.354.663 1.047 1.108.99.724-.093.855-2.9.407-3.84-.179-.382-.607-.515-1.05-.644.15-.945 4.187-1.142 4.84-.409.948 1.065-.657 4.029.641 4.893 1.823-.955 3.38-4.955 3.38-4.955l4.371.028s-.683 2.162-1.4 3.12c-.417.562-1.802 1.813-1.748 2.74.044.735 1.17 1.45 1.75 2.04Z" fill="currentColor"/>
    </symbol>
    <symbol id="twitter-icon" viewBox="0 0 33 27" fill="none">
        <path d="M12.275 26.258c-1.369 0-2.778-.11-4.195-.333-2.497-.392-5.024-1.698-5.74-2.088L.465 22.81l2.03-.668c2.22-.73 3.57-1.183 5.242-1.892-1.673-.81-2.963-2.269-3.584-4.154l-.473-1.434.388.06a7.045 7.045 0 0 1-.883-1.088c-.8-1.215-1.223-2.7-1.133-3.971l.09-1.252.749.29A7.006 7.006 0 0 1 2.21 6.8c-.327-1.63-.053-3.361.772-4.875L3.636.725l.873 1.049c2.762 3.317 6.26 5.285 10.41 5.86-.17-1.168-.042-2.296.378-3.307.49-1.177 1.361-2.175 2.518-2.887a7.563 7.563 0 0 1 4.39-1.078c1.64.1 3.127.715 4.31 1.778.577-.15 1.002-.31 1.577-.527.346-.13.738-.278 1.229-.447l1.808-.623L29.95 3.91a5.96 5.96 0 0 1 .242-.016l1.931-.087-1.141 1.56c-.066.09-.082.115-.106.15-.092.139-.206.311-1.773 2.403-.392.524-.588 1.206-.552 1.922.14 2.719-.194 5.178-.992 7.31-.754 2.018-1.922 3.749-3.472 5.145-1.919 1.727-4.365 2.91-7.27 3.515a22.383 22.383 0 0 1-4.542.445Z" fill="currentColor"/>
    </symbol>
    <symbol id="instagram-icon" viewBox="0 0 27 27" fill="none">
        <path d="M19.586.348H7.703A7.022 7.022 0 0 0 .689 7.362v11.883a7.022 7.022 0 0 0 7.014 7.013h11.883a7.022 7.022 0 0 0 7.014-7.013V7.362A7.022 7.022 0 0 0 19.586.348Zm-5.942 20.04a7.093 7.093 0 0 1-7.084-7.085 7.093 7.093 0 0 1 7.084-7.085 7.093 7.093 0 0 1 7.085 7.085 7.093 7.093 0 0 1-7.085 7.085ZM20.9 7.889a2.096 2.096 0 0 1-2.094-2.093c0-1.155.94-2.094 2.094-2.094s2.093.94 2.093 2.094-.939 2.093-2.093 2.093Z" fill="currentColor"/>
        <path d="M13.645 7.737a5.572 5.572 0 0 0-5.566 5.566 5.572 5.572 0 0 0 5.566 5.566 5.572 5.572 0 0 0 5.565-5.566 5.572 5.572 0 0 0-5.565-5.566ZM20.899 5.221a.575.575 0 1 0 .001 1.15.575.575 0 0 0-.001-1.15Z" fill="currentColor"/>
    </symbol>
    <symbol id="close" viewBox="0 0 12 12" fill="none">
        <path stroke="currentColor" stroke-linecap="round" d="m3 9 6-6m0 6L3 3" fill="currentColor"/>
    </symbol>
</svg>