<svg xmlns="http://www.w3.org/2000/svg">
	<symbol id="box" viewBox="0 0 44 45 "  fill="none" >
		<path d="M36.667 15.152H7.333c-1.012 0-1.833.821-1.833 1.834v3.666c0 1.013.82 1.834 1.833 1.834h29.334c1.012 0 1.833-.821 1.833-1.834v-3.666c0-1.013-.82-1.834-1.833-1.834ZM22 15.152v23.834" stroke="#000" stroke-width="3" stroke-linecap="round" stroke-linejoin="round"/>
		<path d="M34.833 22.486v12.833a3.667 3.667 0 0 1-3.666 3.667H12.833a3.667 3.667 0 0 1-3.666-3.667V22.486M13.75 15.152a4.583 4.583 0 1 1 0-9.166c1.769-.031 3.502.827 4.973 2.462 1.472 1.635 2.614 3.972 3.277 6.704.663-2.732 1.805-5.069 3.277-6.704 1.471-1.635 3.204-2.493 4.973-2.462a4.583 4.583 0 1 1 0 9.166" stroke="#000" stroke-width="3" stroke-linecap="round" stroke-linejoin="round"/>
	</symbol>
	<symbol id="mark" viewBox="0 0 40 40"  fill="none"><path d="M20 0C12.246 0 5.937 6.308 5.937 14.063c0 2.62.726 5.176 2.1 7.394l11.162 17.989c.214.345.591.554.996.554h.01c.408-.003.786-.22.996-.57l10.878-18.163a14.046 14.046 0 0 0 1.983-7.204C34.063 6.308 27.755 0 20 0Zm10.068 20.064-9.89 16.513-10.15-16.355a11.704 11.704 0 0 1-1.762-6.16C8.266 7.601 13.538 2.329 20 2.329s11.727 5.273 11.727 11.735c0 2.118-.58 4.194-1.66 6Z" fill="currentColor"/><path d="M20 7.031a7.04 7.04 0 0 0-7.031 7.032A7.022 7.022 0 0 0 20 21.093c3.977 0 7.031-3.22 7.031-7.03A7.04 7.04 0 0 0 20 7.03Zm0 11.735a4.707 4.707 0 0 1-4.703-4.703c0-2.585 2.118-4.704 4.703-4.704 2.585 0 4.695 2.119 4.695 4.704 0 2.553-2.056 4.703-4.695 4.703Z" fill="currentColor"/>
	</symbol>
	<symbol id="phone" viewBox="0 0 40 40" fill="none"><g clip-path="url(#a)"><path d="m38.97 29.503-4.972-4.973a3.52 3.52 0 0 0-4.972 0l-2.26 2.26a2.667 2.667 0 0 1-3.767 0l-9.797-9.805a2.662 2.662 0 0 1 0-3.767l2.26-2.26a3.514 3.514 0 0 0-.002-4.974L10.49 1.03a3.52 3.52 0 0 0-4.97-.004L3.708 2.821c-4.943 4.944-4.943 12.988 0 17.931l15.523 15.531c4.955 4.956 12.976 4.956 17.931 0l1.809-1.808a3.52 3.52 0 0 0 0-4.972ZM7.175 2.686a1.174 1.174 0 0 1 1.66.001l4.97 4.956c.458.458.458 1.2 0 1.657l-.829.83L6.35 3.502l.824-.817Zm13.715 31.94L5.366 19.095a10.305 10.305 0 0 1-.647-13.907l6.607 6.607a5.003 5.003 0 0 0 .218 6.848l9.796 9.804a5.003 5.003 0 0 0 6.849.219l6.606 6.607a10.285 10.285 0 0 1-13.906-.647Zm16.424-1.808-.829.828-6.63-6.63.829-.828a1.174 1.174 0 0 1 1.658 0l4.972 4.972c.457.457.457 1.2 0 1.658Z" fill="currentColor"/></g><defs><clipPath id="a"><path fill="currentColor" d="M0 0h40v40H0z"/></clipPath></defs></symbol>
	<symbol id="rigt-arrow" viewBox="0 0 25 25" fill="none"><g clip-path="url(#a)"><path d="m24.714 11.809-.001-.001L19.61 6.73a.977.977 0 0 0-1.378 1.384l3.426 3.41H.977a.977.977 0 0 0 0 1.953h20.681l-3.426 3.409a.977.977 0 1 0 1.378 1.384l5.103-5.078a.977.977 0 0 0 0-1.383Z" fill="currentColor"/></g><defs><clipPath id="a"><path fill="currentColor" d="M0 0h25v25H0z"/></clipPath></defs></symbol>
</svg>
