<svg xmlns="http://www.w3.org/2000/svg">
    <symbol id="vk-icon" viewBox="0 0 27 27" fill="none">
        <path d="M24.776.425H2.24c-.911 0-1.65.738-1.65 1.648V24.61c0 .91.739 1.648 1.65 1.648h22.536c.91 0 1.648-.738 1.648-1.648V2.073A1.645 1.645 0 0 0 24.777.425Zm-2.758 15.741c.473.482 1.497 1.29 1.311 2.111-.171.755-1.298.48-2.392.524-1.248.052-1.989.08-2.74-.524-.353-.286-.561-.625-.9-1.004-.308-.343-.697-.957-1.225-.933-.95.047-.653 1.37-.99 2.273-5.28.831-7.4-2.43-9.27-5.595-.906-1.533-2.215-4.825-2.215-4.825l3.734-.013s1.197 2.178 1.515 2.74c.27.478.567.857.873 1.283.257.354.663 1.047 1.108.99.724-.093.855-2.9.407-3.84-.179-.382-.607-.515-1.05-.644.15-.945 4.187-1.142 4.84-.409.948 1.065-.657 4.029.641 4.893 1.823-.955 3.38-4.955 3.38-4.955l4.371.028s-.683 2.162-1.4 3.12c-.417.562-1.802 1.813-1.748 2.74.044.735 1.17 1.45 1.75 2.04Z" fill="currentColor"/>
    </symbol>
    <symbol id="twitter-icon" viewBox="0 0 33 27" fill="none">
        <path d="M12.275 26.258c-1.369 0-2.778-.11-4.195-.333-2.497-.392-5.024-1.698-5.74-2.088L.465 22.81l2.03-.668c2.22-.73 3.57-1.183 5.242-1.892-1.673-.81-2.963-2.269-3.584-4.154l-.473-1.434.388.06a7.045 7.045 0 0 1-.883-1.088c-.8-1.215-1.223-2.7-1.133-3.971l.09-1.252.749.29A7.006 7.006 0 0 1 2.21 6.8c-.327-1.63-.053-3.361.772-4.875L3.636.725l.873 1.049c2.762 3.317 6.26 5.285 10.41 5.86-.17-1.168-.042-2.296.378-3.307.49-1.177 1.361-2.175 2.518-2.887a7.563 7.563 0 0 1 4.39-1.078c1.64.1 3.127.715 4.31 1.778.577-.15 1.002-.31 1.577-.527.346-.13.738-.278 1.229-.447l1.808-.623L29.95 3.91a5.96 5.96 0 0 1 .242-.016l1.931-.087-1.141 1.56c-.066.09-.082.115-.106.15-.092.139-.206.311-1.773 2.403-.392.524-.588 1.206-.552 1.922.14 2.719-.194 5.178-.992 7.31-.754 2.018-1.922 3.749-3.472 5.145-1.919 1.727-4.365 2.91-7.27 3.515a22.383 22.383 0 0 1-4.542.445Z" fill="currentColor"/>
    </symbol>
    <symbol id="instagram-icon" viewBox="0 0 27 27" fill="none">
        <path d="M19.586.348H7.703A7.022 7.022 0 0 0 .689 7.362v11.883a7.022 7.022 0 0 0 7.014 7.013h11.883a7.022 7.022 0 0 0 7.014-7.013V7.362A7.022 7.022 0 0 0 19.586.348Zm-5.942 20.04a7.093 7.093 0 0 1-7.084-7.085 7.093 7.093 0 0 1 7.084-7.085 7.093 7.093 0 0 1 7.085 7.085 7.093 7.093 0 0 1-7.085 7.085ZM20.9 7.889a2.096 2.096 0 0 1-2.094-2.093c0-1.155.94-2.094 2.094-2.094s2.093.94 2.093 2.094-.939 2.093-2.093 2.093Z" fill="currentColor"/>
        <path d="M13.645 7.737a5.572 5.572 0 0 0-5.566 5.566 5.572 5.572 0 0 0 5.566 5.566 5.572 5.572 0 0 0 5.565-5.566 5.572 5.572 0 0 0-5.565-5.566ZM20.899 5.221a.575.575 0 1 0 .001 1.15.575.575 0 0 0-.001-1.15Z" fill="currentColor"/>
    </symbol>
    <symbol id="close" viewBox="0 0 12 12" fill="none">
        <path stroke="currentColor" stroke-linecap="round" d="m3 9 6-6m0 6L3 3" fill="currentColor"/>
    </symbol>
    <symbol id="arrow" viewBox="0 0 33 16" fill="none">
        <path d="M32.707 8.676a1 1 0 0 0 0-1.414L26.343.898a1 1 0 1 0-1.414 1.414l5.657 5.657-5.657 5.657a1 1 0 0 0 1.414 1.414l6.364-6.364ZM0 8.969h32v-2H0v2Z" fill="currentColor"/>
    </symbol>
    <symbol id="flag" viewBox="0 0 29 29" fill="none">
        <path d="M14.5 2.362a8.088 8.088 0 0 0-8.092 8.092c0 3.704 1.939 7.66 3.844 10.73 1.904 3.07 3.812 5.256 3.812 5.256a.578.578 0 0 0 .875-.004s1.906-2.228 3.81-5.318c1.904-3.09 3.843-7.041 3.843-10.664A8.088 8.088 0 0 0 14.5 2.362Zm0 1.156a6.91 6.91 0 0 1 6.936 6.936c0 3.198-1.818 7.05-3.671 10.057-1.505 2.442-2.756 4.001-3.269 4.624-.515-.615-1.762-2.142-3.262-4.56-1.852-2.985-3.67-6.831-3.67-10.121A6.91 6.91 0 0 1 14.5 3.518Zm0 2.89a4.061 4.061 0 0 0-4.046 4.046A4.061 4.061 0 0 0 14.5 14.5a4.061 4.061 0 0 0 4.046-4.046A4.061 4.061 0 0 0 14.5 6.408Zm0 1.156a2.895 2.895 0 0 1 2.89 2.89 2.895 2.895 0 0 1-2.89 2.89 2.895 2.895 0 0 1-2.89-2.89 2.895 2.895 0 0 1 2.89-2.89Z" fill="#606571"/>
    </symbol>
    <symbol id="marcker-map" viewBox="0 0 20 30" fill="none">
        <path d="M10 .72a9.516 9.516 0 0 0-9.52 9.52c0 4.357 2.281 9.013 4.522 12.624 2.241 3.611 4.485 6.183 4.485 6.183a.68.68 0 0 0 1.03-.005s2.242-2.621 4.482-6.257c2.24-3.635 4.521-8.283 4.521-12.545A9.516 9.516 0 0 0 10 .72Zm0 1.36a8.13 8.13 0 0 1 8.16 8.16c0 3.762-2.139 8.293-4.32 11.832-1.77 2.873-3.241 4.707-3.844 5.44-.606-.724-2.073-2.52-3.838-5.365C3.978 18.635 1.84 14.11 1.84 10.24A8.13 8.13 0 0 1 10 2.08Zm0 3.4c-2.615 0-4.76 2.145-4.76 4.76C5.24 12.855 7.385 15 10 15c2.615 0 4.76-2.145 4.76-4.76 0-2.615-2.145-4.76-4.76-4.76Zm0 1.36c1.873 0 3.4 1.527 3.4 3.4s-1.527 3.4-3.4 3.4a3.406 3.406 0 0 1-3.4-3.4c0-1.873 1.527-3.4 3.4-3.4Z" fill="currentColor"/>
    </symbol>
    <symbol id="tel" viewBox="0 0 29 29" fill="none">
        <path d="M16.693 1.178a2.183 2.183 0 0 0-.435.073L6.036 4.15A2.184 2.184 0 0 0 4.53 6.833l4.785 16.82c.01.057.027.111.055.163l.688 2.447a2.173 2.173 0 0 0 2.683 1.486l10.222-2.9a2.184 2.184 0 0 0 1.505-2.682l-.671-2.356a.586.586 0 0 0-.109-.381L18.941 2.737a2.163 2.163 0 0 0-1.813-1.559 2.146 2.146 0 0 0-.435 0Zm.09 1.142c.474-.036.916.267 1.052.743l4.622 16.313-12.18 3.443L5.655 6.507a1.008 1.008 0 0 1 .707-1.25l10.222-2.9a.88.88 0 0 1 .2-.037Zm5.366 3.86a.58.58 0 0 0-.454.762l2.9 10.222a.585.585 0 1 0 1.124-.326l-2.9-10.222a.58.58 0 0 0-.562-.435h-.108Zm3.28 1.831a.58.58 0 0 0-.453.761l1.45 5.112a.585.585 0 1 0 1.124-.327l-1.45-5.11a.58.58 0 0 0-.562-.436h-.109Zm-21.641 3.39a.525.525 0 0 0-.054.018.58.58 0 0 0-.453.743l2.9 10.222a.585.585 0 1 0 1.123-.326l-2.9-10.222a.58.58 0 0 0-.562-.435h-.054Zm-1.83 3.28c-.019.005-.037.012-.055.018a.58.58 0 0 0-.453.744l1.45 5.11a.585.585 0 1 0 1.124-.326l-1.45-5.11a.58.58 0 0 0-.562-.436h-.055ZM22.782 20.5l.562 1.994a1.008 1.008 0 0 1-.707 1.25l-10.223 2.9a1.008 1.008 0 0 1-1.25-.706l-.562-1.994 12.18-3.444Zm-5.728 2.411c-.052.005-.11.002-.163.018a.807.807 0 0 0-.543.997c.12.424.555.664.978.544a.788.788 0 0 0 .544-.979.787.787 0 0 0-.816-.58Z" fill="currentColor"/>
    </symbol>
</svg>