<svg xmlns="http://www.w3.org/2000/svg">
	<symbol id="box" viewBox="0 0 44 45 "  fill="none" >
		<path d="M36.667 15.152H7.333c-1.012 0-1.833.821-1.833 1.834v3.666c0 1.013.82 1.834 1.833 1.834h29.334c1.012 0 1.833-.821 1.833-1.834v-3.666c0-1.013-.82-1.834-1.833-1.834ZM22 15.152v23.834" stroke="#000" stroke-width="3" stroke-linecap="round" stroke-linejoin="round"/>
		<path d="M34.833 22.486v12.833a3.667 3.667 0 0 1-3.666 3.667H12.833a3.667 3.667 0 0 1-3.666-3.667V22.486M13.75 15.152a4.583 4.583 0 1 1 0-9.166c1.769-.031 3.502.827 4.973 2.462 1.472 1.635 2.614 3.972 3.277 6.704.663-2.732 1.805-5.069 3.277-6.704 1.471-1.635 3.204-2.493 4.973-2.462a4.583 4.583 0 1 1 0 9.166" stroke="#000" stroke-width="3" stroke-linecap="round" stroke-linejoin="round"/>
	</symbol>
</svg>
