<svg width="846" height="804" viewBox="0 0 846 804" fill="none" xmlns="http://www.w3.org/2000/svg">
<path d="M483.344 -36.5285C556.783 -143.781 697.614 -181.204 814.607 -124.556L874.898 -95.3623C952.947 -57.5704 1013.64 8.57323 1044.6 89.5774L1061.57 134.007C1138.03 334.08 1066.47 560.454 888.892 680.215L841.186 712.388C750.438 773.592 643.045 805.371 533.604 803.405L158.798 796.674C143.121 796.392 127.596 793.538 112.844 788.226L83.8124 777.77C-8.98819 744.35 -29.1369 622.079 48.0339 560.65C55.246 554.909 61.8063 548.394 67.597 541.222L279.356 278.943L483.344 -36.5285Z" fill="url(#paint0_linear)"/>
<defs>
<linearGradient id="paint0_linear" x1="817.037" y1="-97.5094" x2="-19.1161" y2="768.389" gradientUnits="userSpaceOnUse">
<stop stop-color="#516DFF"/>
<stop offset="1" stop-color="#8F00FF"/>
</linearGradient>
</defs>
</svg>
