<svg width="826" height="954" viewBox="0 0 826 954" fill="none" xmlns="http://www.w3.org/2000/svg">
<path d="M784.098 94.8734C791.539 77.058 802.289 60.814 815.778 47.0011C879.221 -17.9651 984.984 -13.604 1042.86 56.365L1069.98 89.1417C1083.24 105.18 1093.8 123.278 1101.23 142.72L1134.64 230.146C1223.13 461.692 1140.3 723.677 934.792 862.277C844.043 923.481 736.651 955.259 627.21 953.294L256.722 946.64C238.113 946.306 219.518 943.963 201.404 939.686C38.4438 901.209 -47.0725 720.766 27.4012 570.799C74.9855 474.978 176.408 418.088 282.984 427.437L360.235 434.213C522.323 448.431 674.978 356.129 737.688 205.99L784.098 94.8734Z" fill="url(#paint0_linear)"/>
<defs>
<linearGradient id="paint0_linear" x1="910.643" y1="52.3794" x2="74.4897" y2="918.277" gradientUnits="userSpaceOnUse">
<stop stop-color="#516DFF"/>
<stop offset="1" stop-color="#8F00FF"/>
</linearGradient>
</defs>
</svg>
