<svg width="269" height="982" viewBox="0 0 269 982" fill="none" xmlns="http://www.w3.org/2000/svg">
<path d="M-302.177 135.329C-302.177 114.97 -297.58 94.8742 -288.73 76.5398C-256.234 9.2191 -175.284 -18.9679 -108.003 13.61L47.3086 88.8128C116.767 122.445 170.779 181.308 198.327 253.396L255.894 404.033C302.417 525.773 214.617 656.946 84.3335 660.34C-0.504028 662.551 -73.4572 721.059 -94.0361 803.393L-98.3043 820.47C-122.249 916.269 -209.14 982.868 -307.871 981.095L-677.848 974.45C-696.457 974.116 -715.052 971.773 -733.166 967.496C-896.126 929.02 -981.642 748.576 -907.169 598.609C-859.584 502.788 -758.161 445.898 -651.586 455.247L-616.38 458.335C-447.479 473.151 -302.177 340.037 -302.177 170.487V135.329Z" fill="url(#paint0_linear)"/>
<defs>
<linearGradient id="paint0_linear" x1="-23.9266" y1="80.1898" x2="-860.08" y2="946.088" gradientUnits="userSpaceOnUse">
<stop offset="0.135417" stop-color="#8F00FF"/>
<stop offset="1" stop-color="#516DFF"/>
</linearGradient>
</defs>
</svg>
