<svg width="305" height="963" viewBox="0 0 305 963" fill="none" xmlns="http://www.w3.org/2000/svg">
<path d="M-173.182 137.248C-151.271 102.997 -122.952 73.2985 -89.782 49.7827L147.163 -118.197C186.443 -146.044 240.863 -136.751 268.676 -97.4477C294.013 -61.644 288.785 -12.5876 256.472 17.072L158.236 107.239C53.0333 203.802 65.4074 373.231 183.524 453.484C206.505 469.097 226.341 488.897 241.998 511.848L261.108 539.863C294.614 588.979 309.618 648.383 303.456 707.519L298.934 750.917C295.555 783.342 280.548 813.447 256.687 835.661L250.482 841.439C236.867 854.115 226.905 870.214 221.637 888.055C208.597 932.215 168.045 962.524 121.999 962.524H37.1984C-2.76453 962.524 -38.7831 938.425 -54.0297 901.484C-56.0692 896.543 -57.7039 891.444 -58.9176 886.237L-128.02 589.808C-135.971 555.7 -148.658 522.873 -165.712 492.282L-182.995 461.28C-239.625 359.699 -235.855 235.217 -173.182 137.248Z" fill="url(#paint0_linear)"/>
<defs>
<linearGradient id="paint0_linear" x1="148.738" y1="114.952" x2="148.738" y2="567.958" gradientUnits="userSpaceOnUse">
<stop stop-color="#5F54FF"/>
<stop offset="1" stop-color="#890BFF"/>
</linearGradient>
</defs>
</svg>
