<svg width="231" height="761" viewBox="0 0 231 761" fill="none" xmlns="http://www.w3.org/2000/svg">
<path d="M-230.766 369.497C-270.535 313.545 -286.862 244.266 -276.264 176.444L-269.867 135.504C-263.34 92.6375 -234.631 56.4189 -194.385 40.2808L-136.272 16.9779C-36.1188 -23.1827 78.5011 11.0055 140.289 99.469L174.842 148.939C211.061 200.794 230.435 262.544 230.333 325.796L229.999 531.421C229.972 547.826 228.189 564.18 224.681 580.206L220.045 601.381C200.018 692.857 119.852 758.648 26.2278 760.446L3.48422 760.883C-114.245 763.143 -203.814 655.839 -180.548 540.409C-170.502 490.571 -181.511 438.797 -210.964 397.358L-230.766 369.497Z" fill="url(#paint0_linear)"/>
<defs>
<linearGradient id="paint0_linear" x1="-328.479" y1="188.857" x2="179.713" y2="663.8" gradientUnits="userSpaceOnUse">
<stop stop-color="#516DFF"/>
<stop offset="1" stop-color="#8F00FF"/>
</linearGradient>
</defs>
</svg>
