<svg width="340" height="338" viewBox="0 0 340 338" fill="none" xmlns="http://www.w3.org/2000/svg">
<mask id="path-1-inside-1" fill="white">
<path d="M151.215 21.314C234.366 12.7144 308.744 73.1499 317.343 156.3C325.943 239.451 265.508 313.829 182.357 322.429C99.2063 331.029 24.8281 270.593 16.2284 187.443C7.6288 104.292 68.0643 29.9136 151.215 21.314ZM177.646 276.876C235.638 270.878 277.788 219.004 271.79 161.012C265.792 103.019 213.918 60.8696 155.926 66.8673C97.9339 72.865 55.784 124.739 61.7817 182.731C67.7794 240.724 119.653 282.873 177.646 276.876Z"/>
</mask>
<path d="M151.215 21.314C234.366 12.7144 308.744 73.1499 317.343 156.3C325.943 239.451 265.508 313.829 182.357 322.429C99.2063 331.029 24.8281 270.593 16.2284 187.443C7.6288 104.292 68.0643 29.9136 151.215 21.314ZM177.646 276.876C235.638 270.878 277.788 219.004 271.79 161.012C265.792 103.019 213.918 60.8696 155.926 66.8673C97.9339 72.865 55.784 124.739 61.7817 182.731C67.7794 240.724 119.653 282.873 177.646 276.876Z" stroke="white" stroke-width="0.617032" mask="url(#path-1-inside-1)"/>
<path d="M157.747 16.1407C240.897 7.54103 315.276 67.9765 323.875 151.127C332.475 234.278 272.039 308.656 188.889 317.256C105.738 325.855 31.3599 265.42 22.7603 182.269C14.1607 99.1186 74.5962 24.7403 157.747 16.1407ZM184.178 271.702C242.17 265.705 284.32 213.831 278.322 155.838C272.324 97.8461 220.45 55.6962 162.458 61.6939C104.466 67.6916 62.3159 119.566 68.3135 177.558C74.3112 235.55 126.185 277.7 184.178 271.702Z" fill="#515151" fill-opacity="0.8"/>
</svg>
