<svg width="90" height="89" viewBox="0 0 90 89" fill="none" xmlns="http://www.w3.org/2000/svg">
<path d="M26.7095 44.3496C26.7095 54.3562 34.8504 62.4971 44.857 62.4971C54.8635 62.4971 63.0045 54.3562 63.0045 44.3496C63.0045 38.3025 60.0491 32.7988 55.227 29.4536V44.3496C55.227 45.2164 54.7937 46.0259 54.0725 46.5067L46.295 51.6917C45.4241 52.2723 44.2897 52.2723 43.4188 51.6917L35.6413 46.5067C34.9201 46.0259 34.4868 45.2165 34.4868 44.3496V29.4536C29.6649 32.7988 26.7095 38.3025 26.7095 44.3496Z" fill="#AB25CC"/>
<path d="M50.0419 88.5948V67.1003C48.3737 67.4804 46.6384 67.6819 44.8569 67.6819C43.0753 67.6819 41.3401 67.4804 39.6719 67.1003V88.5948H50.0419Z" fill="#AB25CC"/>
<path d="M87.1279 34.054L79.0017 32.0594C78.6179 31.0066 78.1756 29.9527 77.6778 28.906L81.9102 21.8518C82.5222 20.8318 82.3615 19.526 81.5203 18.6848L70.5212 7.68569C69.6801 6.84451 68.3742 6.68377 67.3542 7.29578L60.3001 11.5283C59.2533 11.0305 58.1995 10.5881 57.1466 10.2042L55.1521 2.07845C54.8676 0.919259 53.8282 0.104004 52.6344 0.104004H37.0794C35.8857 0.104004 34.8463 0.919259 34.5618 2.07845L32.5673 10.2042C31.5144 10.5881 30.4606 11.0305 29.4138 11.5283L22.3597 7.29578C21.3398 6.68377 20.0339 6.84451 19.1927 7.68569L8.1936 18.6848C7.35242 19.526 7.19169 20.8318 7.80369 21.8518L12.036 28.906C11.5383 29.9527 11.096 31.0066 10.7121 32.0594L2.58602 34.054C1.42683 34.3387 0.611572 35.3781 0.611572 36.5719V52.1269C0.611572 53.3206 1.42683 54.3601 2.58602 54.6447L10.7121 56.6394C11.096 57.6921 11.5383 58.7461 12.036 59.7927L7.80369 66.8469C7.19169 67.867 7.35242 69.1728 8.1936 70.0139L19.1927 81.0131C20.0339 81.8542 21.3397 82.015 22.3597 81.403L29.4138 77.1705C30.4606 77.6682 31.5144 78.1107 32.5673 78.4945L34.4869 86.3156V65.2465C26.8109 61.4219 21.5244 53.4919 21.5244 44.3494C21.5244 39.6193 22.9385 35.0606 25.6137 31.1665C28.2233 27.368 31.8509 24.4473 36.1041 22.7205C36.9033 22.3959 37.8119 22.4903 38.5273 22.9721C39.243 23.4538 39.6719 24.2601 39.6719 25.1227V42.962L44.8569 46.4187L50.0419 42.962V25.1225C50.0419 24.2599 50.4709 23.4538 51.1866 22.9719C51.9021 22.4903 52.8106 22.3959 53.6097 22.7203C57.863 24.4471 61.4908 27.3678 64.1002 31.1663C66.7753 35.0606 68.1895 39.6193 68.1895 44.3494C68.1895 53.4919 62.903 61.4219 55.2269 65.2465V86.3156L57.1466 78.4944C58.1995 78.1105 59.2533 77.668 60.3001 77.1703L67.3542 81.4028C68.374 82.015 69.68 81.8542 70.5212 81.0129L81.5203 70.0138C82.3615 69.1726 82.5222 67.8668 81.9102 66.8468L77.6778 59.7926C78.1756 58.7459 78.6179 57.6919 79.0017 56.6392L87.1279 54.6445C88.2871 54.3601 89.1023 53.3206 89.1023 52.1269V36.5719C89.1023 35.3781 88.2871 34.3387 87.1279 34.054Z" fill="#AB25CC"/>
</svg>
