<svg width="27" height="27" viewBox="0 0 27 27" fill="none" xmlns="http://www.w3.org/2000/svg">
<path d="M23.6597 0.34787H4.22685C2.44064 0.34787 0.988037 1.80048 0.988037 3.58668V23.0195C0.988037 24.8057 2.44064 26.2583 4.22685 26.2583H23.6597C25.4459 26.2583 26.8985 24.8057 26.8985 23.0195V3.58668C26.8985 1.80048 25.4459 0.34787 23.6597 0.34787Z" fill="white"/>
<path d="M22.85 13.3031H18.8015V10.0643C18.8015 9.17039 19.527 9.2546 20.4209 9.2546H22.0403V5.20609H18.8015C16.1181 5.20609 13.9433 7.38095 13.9433 10.0643V13.3031H10.7045V17.3516H13.9433V26.2583H18.8015V17.3516H21.2306L22.85 13.3031Z" fill="black"/>
</svg>
