<svg width="27" height="27" viewBox="0 0 27 27" fill="none" xmlns="http://www.w3.org/2000/svg">
<path d="M19.5859 0.34787H7.70294C3.8355 0.34787 0.689209 3.49416 0.689209 7.3616V19.2448C0.689209 23.112 3.8355 26.2583 7.70294 26.2583H19.5861C23.4534 26.2583 26.5997 23.112 26.5997 19.2448V7.3616C26.5997 3.49416 23.4534 0.34787 19.5859 0.34787V0.34787ZM13.6444 20.3878C9.73787 20.3878 6.55975 17.2097 6.55975 13.3031C6.55975 9.39653 9.73787 6.21841 13.6444 6.21841C17.551 6.21841 20.7291 9.39653 20.7291 13.3031C20.7291 17.2097 17.551 20.3878 13.6444 20.3878ZM20.8986 7.88921C19.7441 7.88921 18.8051 6.95022 18.8051 5.79577C18.8051 4.64131 19.7441 3.70212 20.8986 3.70212C22.053 3.70212 22.9922 4.64131 22.9922 5.79577C22.9922 6.95022 22.053 7.88921 20.8986 7.88921Z" fill="white"/>
<path d="M13.6446 7.73746C10.5758 7.73746 8.07886 10.2342 8.07886 13.3032C8.07886 16.372 10.5758 18.8689 13.6446 18.8689C16.7136 18.8689 19.2103 16.372 19.2103 13.3032C19.2103 10.2342 16.7136 7.73746 13.6446 7.73746Z" fill="white"/>
<path d="M20.8987 5.22134C20.582 5.22134 20.3242 5.47912 20.3242 5.79581C20.3242 6.11249 20.582 6.37027 20.8987 6.37027C21.2156 6.37027 21.4733 6.11269 21.4733 5.79581C21.4733 5.47892 21.2156 5.22134 20.8987 5.22134Z" fill="white"/>
</svg>
