<svg width="89" height="89" viewBox="0 0 89 89" fill="none" xmlns="http://www.w3.org/2000/svg">
<path d="M88.4417 33.9241C87.3591 29.5 83.6258 25.897 79.1536 24.9607C78.7844 24.8833 78.4164 24.8968 78.0466 24.8526C74.7192 10.4261 62.0362 0.104004 47.0229 0.104004H42.1064C27.0959 0.104004 14.4109 10.4282 11.0819 24.8531C8.7295 25.1513 6.48197 26.0509 4.64671 27.6108C1.89543 29.9514 0.315735 33.3648 0.315735 36.9751C0.315735 40.8183 2.16897 44.4478 5.23227 46.7571V68.9302C5.23227 72.5539 7.224 75.6898 10.1488 77.3951V81.2205C10.1488 85.2869 13.4568 88.5947 17.5237 88.5947C21.5906 88.5947 24.8986 85.2869 24.8986 81.2205V78.7624H64.2312V81.2205C64.2312 85.2869 67.5392 88.5947 71.6061 88.5947C75.673 88.5947 78.981 85.2869 78.981 81.2205V77.3951C81.9058 75.6898 83.8975 72.5539 83.8975 68.9302V46.7596C87.8271 43.8117 89.6395 38.8284 88.4417 33.9241ZM42.103 5.02008H47.019C59.467 5.02008 70.0075 13.4131 73.0789 25.2333C71.5294 25.685 70.054 26.3908 68.7721 27.4308C65.8818 29.7784 64.2256 33.2567 64.2256 36.9751V49.2654H24.8966V37.5008C24.8966 31.7558 21.1698 26.7492 16.0457 25.2197C19.1198 13.4085 29.6608 5.02008 42.103 5.02008ZM69.1419 56.6397C69.1419 57.9958 68.0402 59.0978 66.6838 59.0978H22.4384C21.0823 59.0978 19.9803 57.9961 19.9803 56.6397C19.9803 55.2835 21.082 54.1815 22.4384 54.1815H66.6838C68.04 54.1818 69.1419 55.2835 69.1419 56.6397ZM19.9803 81.2205C19.9803 82.5767 18.8785 83.6787 17.5221 83.6787C16.1659 83.6787 15.0642 82.5767 15.0642 81.2205V78.7624H19.9803V81.2205ZM74.058 81.2205C74.058 82.5767 72.9563 83.6787 71.5999 83.6787C70.2437 83.6787 69.1417 82.5769 69.1417 81.2205V78.7624H74.058V81.2205ZM80.1959 43.3195C79.4398 43.7587 78.9741 44.5678 78.9741 45.444V68.9302C78.9741 71.6402 76.7681 73.8463 74.058 73.8463H15.0642C12.3542 73.8463 10.1481 71.6402 10.1481 68.9302V45.444C10.1481 44.5701 9.68239 43.7613 8.9263 43.3195C6.61217 41.973 5.23181 39.6013 5.23181 36.9751C5.23181 34.8099 6.18009 32.7599 7.83146 31.3558C9.50702 29.9298 11.6555 29.3442 13.8615 29.7042C17.3493 30.2706 19.9803 33.624 19.9803 37.5008V49.7183C17.1253 50.7364 15.0642 53.4393 15.0642 56.6397C15.0642 60.7061 18.372 64.0139 22.4384 64.0139H66.6838C70.7502 64.0139 74.058 60.7061 74.058 56.6397C74.058 53.4393 71.9969 50.7364 69.1419 49.7183V36.9751C69.1419 34.7426 70.1358 32.6566 71.8713 31.2477C73.6308 29.8194 75.8562 29.2937 78.139 29.7714C80.7988 30.3284 83.0168 32.4672 83.6577 35.0908C84.4665 38.3963 83.1078 41.6248 80.1959 43.3195Z" fill="#B929DD"/>
</svg>
