<svg width="255" height="254" viewBox="0 0 255 254" fill="none" xmlns="http://www.w3.org/2000/svg">
<path d="M136.637 128.697L136.534 128.925L136.762 129.027L190.496 153.138C193.118 154.315 194.29 157.394 193.113 160.016C191.937 162.638 188.858 163.81 186.236 162.633L132.502 138.522L132.274 138.419L132.171 138.647L108.06 192.381C106.884 195.003 103.804 196.175 101.183 194.998C98.5606 193.822 97.389 190.743 98.5655 188.121L122.677 134.387L122.779 134.159L122.551 134.057L68.8172 109.945C66.1952 108.769 65.0236 105.69 66.2001 103.068C67.3766 100.446 70.4556 99.274 73.0775 100.451L126.812 124.562L127.04 124.664L127.142 124.436L151.253 70.7022C152.43 68.0803 155.509 66.9086 158.131 68.0851C160.753 69.2616 161.924 72.3407 160.748 74.9626L136.637 128.697Z" stroke="white" stroke-width="0.5"/>
<path d="M186.917 144.324L133.183 120.213L157.295 66.4786C158.528 63.7307 157.3 60.5038 154.552 59.2707C151.804 58.0377 148.577 59.2657 147.344 62.0136L123.233 115.748L69.4987 91.6361C66.7508 90.4031 63.5238 91.6311 62.2907 94.379C61.0577 97.1269 62.2857 100.354 65.0336 101.587L118.768 125.698L94.6561 179.432C93.4231 182.18 94.6511 185.407 97.399 186.64C100.147 187.873 103.374 186.645 104.607 183.897L128.718 130.163L182.452 154.275C185.2 155.508 188.427 154.28 189.66 151.532C190.893 148.784 189.665 145.557 186.917 144.324Z" fill="#6B66DE"/>
</svg>
