<svg width="33" height="27" viewBox="0 0 33 27" fill="none" xmlns="http://www.w3.org/2000/svg">
<path d="M12.2753 26.2583C10.9063 26.2583 9.49723 26.1475 8.07967 25.9253C5.58294 25.5335 3.05553 24.2275 2.34035 23.8365L0.4646 22.8109L2.49541 22.1431C4.71535 21.4132 6.06576 20.9603 7.73741 20.2512C6.06359 19.4406 4.77356 17.9824 4.15257 16.0975L3.68014 14.6633L4.06755 14.7225C3.70018 14.3522 3.4101 13.9764 3.18523 13.6346C2.38552 12.4199 1.96211 10.9357 2.0522 9.66378L2.14108 8.41191L2.89056 8.70224C2.57439 8.10517 2.3459 7.46752 2.21161 6.79919C1.88433 5.16933 2.15823 3.43777 2.98307 1.9236L3.63593 0.725109L4.50908 1.77385C7.27053 5.09107 10.7682 7.05884 14.9194 7.6349C14.7499 6.46612 14.8769 5.33816 15.2974 4.3271C15.787 3.14986 16.658 2.15161 17.8154 1.44005C19.1008 0.649993 20.6597 0.267162 22.2048 0.362085C23.8441 0.462804 25.3324 1.07702 26.5145 2.13953C27.0917 1.98954 27.5171 1.8294 28.0919 1.61299C28.4378 1.4828 28.8301 1.33498 29.3208 1.16591L31.1294 0.542752L29.95 3.91118C30.0278 3.90466 30.108 3.8991 30.1918 3.89548L32.1231 3.80804L30.9816 5.36811C30.9162 5.45748 30.8995 5.48284 30.8763 5.51786C30.7843 5.6565 30.6698 5.82895 29.103 7.92112C28.7107 8.445 28.5149 9.12733 28.5513 9.84276C28.6902 12.5615 28.3566 15.0212 27.5593 17.1535C26.8053 19.1708 25.6367 20.9016 24.0866 22.2979C22.1683 24.0254 19.7223 25.2082 16.8162 25.813C15.3906 26.1096 13.8598 26.2583 12.2753 26.2583Z" fill="white"/>
</svg>
