<svg width="27" height="27" viewBox="0 0 27 27" fill="none" xmlns="http://www.w3.org/2000/svg">
<path d="M24.7765 0.425079H2.23914C1.32766 0.425079 0.589355 1.16338 0.589355 2.07304V24.6104C0.589355 25.52 1.32766 26.2583 2.23914 26.2583H24.7746C25.6843 26.2583 26.4226 25.52 26.4226 24.6104V2.07304C26.4244 1.16156 25.6861 0.425079 24.7765 0.425079ZM22.0183 16.1664C22.4905 16.6477 23.515 17.4552 23.329 18.2774C23.1577 19.0321 22.0311 18.7568 20.9373 18.8006C19.6886 18.8534 18.9484 18.8808 18.1974 18.2774C17.8437 17.9912 17.6359 17.6521 17.2968 17.2729C16.9888 16.9302 16.6005 16.3159 16.0718 16.3396C15.122 16.387 15.4192 17.7104 15.0819 18.6128C9.80263 19.4441 7.68252 16.1828 5.81215 13.0181C4.90614 11.485 3.59725 8.19274 3.59725 8.19274L7.33068 8.17998C7.33068 8.17998 8.52837 10.3584 8.84557 10.9199C9.11537 11.3975 9.41251 11.7767 9.71877 12.2033C9.97581 12.5569 10.3823 13.2496 10.8271 13.1931C11.5508 13.1002 11.6821 10.2928 11.2337 9.35214C11.055 8.97114 10.6266 8.83807 10.1836 8.70864C10.3331 7.76434 14.371 7.56746 15.0236 8.30029C15.9715 9.3649 14.3673 12.329 15.6653 13.1931C17.4883 12.2379 19.0451 8.23831 19.0451 8.23831L23.4165 8.26566C23.4165 8.26566 22.7329 10.4277 22.0165 11.3866C21.599 11.948 20.2136 13.1986 20.2683 14.1265C20.312 14.8611 21.4386 15.5757 22.0183 16.1664Z" fill="white"/>
</svg>
